SplineFontDB: 3.2
FontName: NotoSans-Regular-Plus-Thai
FullName: Noto Sans Regular Plus Thai
FamilyName: Noto Sans
Weight: Regular

StartChar: .notdef
Encoding: 65536 -1 0
Width: 600
Flags: W
LayerCount: 2
Fore
SplineSet
94 0 m 1,0,-1
 94 714 l 1,1,-1
 505 714 l 1,2,-1
 505 0 l 1,3,-1
 94 0 l 1,0,-1
145 51 m 1,4,-1
 454 51 l 1,5,-1
 454 663 l 1,6,-1
 145 663 l 1,7,-1
 145 51 l 1,4,-1
EndSplineSet
EndChar

StartChar: exclam
Encoding: 33 33 4
Width: 269
Flags: W
LayerCount: 2
Fore
SplineSet
163 201 m 1,0,-1
 106 201 l 1,1,-1
 81 714 l 1,2,-1
 188 714 l 1,3,-1
 163 201 l 1,0,-1
72 54 m 0,4,5
 72 91 72 91 90 106 c 128,-1,6
 108 121 108 121 134 121 c 0,7,8
 159 121 159 121 177.5 106 c 128,-1,9
 196 91 196 91 196 54 c 0,10,11
 196 18 196 18 177.5 2 c 128,-1,12
 159 -14 159 -14 134 -14 c 0,13,14
 108 -14 108 -14 90 2 c 128,-1,15
 72 18 72 18 72 54 c 0,4,5
EndSplineSet
Substitution2: "'smcp' Lowercase to Small Capitals lookup 34 subtable" exclam.sc
Substitution2: "'c2sc' Capitals to Small Capitals lookup 33 subtable" exclam.sc
EndChar

StartChar: quotedbl
Encoding: 34 34 5
Width: 408
Flags: W
LayerCount: 2
Fore
SplineSet
160 714 m 1,0,-1
 140 456 l 1,1,-1
 85 456 l 1,2,-1
 65 714 l 1,3,-1
 160 714 l 1,0,-1
343 714 m 1,4,-1
 323 456 l 1,5,-1
 268 456 l 1,6,-1
 248 714 l 1,7,-1
 343 714 l 1,4,-1
EndSplineSet
EndChar

StartChar: numbersign
Encoding: 35 35 6
Width: 646
Flags: W
LayerCount: 2
Fore
SplineSet
480 436 m 1,0,-1
 449 276 l 1,1,-1
 586 276 l 1,2,-1
 586 209 l 1,3,-1
 436 209 l 1,4,-1
 395 0 l 1,5,-1
 324 0 l 1,6,-1
 365 209 l 1,7,-1
 222 209 l 1,8,-1
 183 0 l 1,9,-1
 113 0 l 1,10,-1
 151 209 l 1,11,-1
 25 209 l 1,12,-1
 25 276 l 1,13,-1
 164 276 l 1,14,-1
 196 436 l 1,15,-1
 62 436 l 1,16,-1
 62 502 l 1,17,-1
 208 502 l 1,18,-1
 248 714 l 1,19,-1
 320 714 l 1,20,-1
 280 502 l 1,21,-1
 424 502 l 1,22,-1
 464 714 l 1,23,-1
 533 714 l 1,24,-1
 493 502 l 1,25,-1
 620 502 l 1,26,-1
 620 436 l 1,27,-1
 480 436 l 1,0,-1
235 276 m 1,28,-1
 378 276 l 1,29,-1
 409 436 l 1,30,-1
 266 436 l 1,31,-1
 235 276 l 1,28,-1
EndSplineSet
EndChar

StartChar: dollar
Encoding: 36 36 7
Width: 572
Flags: W
LayerCount: 2
Fore
SplineSet
253 -58 m 1,0,-1
 253 49 l 1,1,2
 198 50 198 50 146 58.5 c 128,-1,3
 94 67 94 67 62 82 c 1,4,-1
 62 167 l 1,5,6
 96 151 96 151 149 139 c 128,-1,7
 202 127 202 127 253 126 c 1,8,-1
 253 328 l 1,9,10
 154 355 154 355 108 396 c 128,-1,11
 62 437 62 437 62 508 c 0,12,13
 62 582 62 582 113.5 624 c 128,-1,14
 165 666 165 666 253 671 c 1,15,-1
 253 759 l 1,16,-1
 317 759 l 1,17,-1
 317 672 l 1,18,19
 370 670 370 670 413.5 660 c 128,-1,20
 457 650 457 650 493 635 c 1,21,-1
 466 561 l 1,22,23
 434 574 434 574 395.5 583.5 c 128,-1,24
 357 593 357 593 317 596 c 1,25,-1
 317 395 l 1,26,27
 383 376 383 376 427 354.5 c 128,-1,28
 471 333 471 333 493.5 301.5 c 128,-1,29
 516 270 516 270 516 220 c 0,30,31
 516 150 516 150 464 106.5 c 128,-1,32
 412 63 412 63 317 53 c 1,33,-1
 317 -58 l 1,34,-1
 253 -58 l 1,0,-1
253 417 m 1,35,-1
 253 594 l 1,36,37
 199 590 199 590 173.5 569 c 128,-1,38
 148 548 148 548 148 515 c 0,39,40
 148 475 148 475 170.5 453.5 c 128,-1,41
 193 432 193 432 253 417 c 1,35,-1
317 131 m 1,42,43
 376 137 376 137 403 158.5 c 128,-1,44
 430 180 430 180 430 214 c 0,45,46
 430 252 430 252 406 271 c 128,-1,47
 382 290 382 290 317 307 c 1,48,-1
 317 131 l 1,42,43
EndSplineSet
EndChar

StartChar: percent
Encoding: 37 37 8
Width: 831
Flags: W
LayerCount: 2
Fore
SplineSet
195 724 m 0,0,1
 268 724 268 724 306.5 665.5 c 128,-1,2
 345 607 345 607 345 501 c 256,3,4
 345 395 345 395 308.5 335.5 c 128,-1,5
 272 276 272 276 195 276 c 0,6,7
 124 276 124 276 86.5 335.5 c 128,-1,8
 49 395 49 395 49 501 c 256,9,10
 49 607 49 607 84 665.5 c 128,-1,11
 119 724 119 724 195 724 c 0,0,1
652 714 m 1,12,-1
 256 0 l 1,13,-1
 179 0 l 1,14,-1
 575 714 l 1,15,-1
 652 714 l 1,12,-1
195 662 m 0,16,17
 157 662 157 662 139.5 621.5 c 128,-1,18
 122 581 122 581 122 501 c 256,19,20
 122 421 122 421 139.5 380 c 128,-1,21
 157 339 157 339 195 339 c 0,22,23
 272 339 272 339 272 501 c 0,24,25
 272 662 272 662 195 662 c 0,16,17
632 438 m 0,26,27
 705 438 705 438 743.5 379.5 c 128,-1,28
 782 321 782 321 782 215 c 256,29,30
 782 109 782 109 745.5 49.5 c 128,-1,31
 709 -10 709 -10 632 -10 c 0,32,33
 561 -10 561 -10 523.5 49.5 c 128,-1,34
 486 109 486 109 486 215 c 256,35,36
 486 321 486 321 521 379.5 c 128,-1,37
 556 438 556 438 632 438 c 0,26,27
632 375 m 0,38,39
 594 375 594 375 576.5 335 c 128,-1,40
 559 295 559 295 559 215 c 0,41,42
 559 134 559 134 576.5 93.5 c 128,-1,43
 594 53 594 53 632 53 c 0,44,45
 709 53 709 53 709 215 c 0,46,47
 709 375 709 375 632 375 c 0,38,39
EndSplineSet
EndChar

StartChar: ampersand
Encoding: 38 38 9
Width: 732
Flags: W
LayerCount: 2
Fore
SplineSet
304 725 m 0,0,1
 384 725 384 725 430.5 684.5 c 128,-1,2
 477 644 477 644 477 571 c 0,3,4
 477 508 477 508 436.5 464 c 128,-1,5
 396 420 396 420 334 384 c 1,6,-1
 527 198 l 1,7,8
 553 229 553 229 569.5 269.5 c 128,-1,9
 586 310 586 310 597 357 c 1,10,-1
 686 357 l 1,11,12
 670 292 670 292 646 237.5 c 128,-1,13
 622 183 622 183 584 142 c 1,14,-1
 730 0 l 1,15,-1
 611 0 l 1,16,-1
 524 84 l 1,17,18
 477 42 477 42 419 16 c 128,-1,19
 361 -10 361 -10 278 -10 c 0,20,21
 174 -10 174 -10 113.5 41 c 128,-1,22
 53 92 53 92 53 186 c 0,23,24
 53 262 53 262 94.5 309 c 128,-1,25
 136 356 136 356 207 396 c 1,26,27
 175 432 175 432 147.5 473 c 128,-1,28
 120 514 120 514 120 569 c 0,29,30
 120 642 120 642 169 683.5 c 128,-1,31
 218 725 218 725 304 725 c 0,0,1
301 653 m 0,32,33
 259 653 259 653 232.5 631 c 128,-1,34
 206 609 206 609 206 570 c 0,35,36
 206 534 206 534 225 503.5 c 128,-1,37
 244 473 244 473 280 436 c 1,38,39
 339 470 339 470 364.5 500 c 128,-1,40
 390 530 390 530 390 571 c 0,41,42
 390 607 390 607 366 630 c 128,-1,43
 342 653 342 653 301 653 c 0,32,33
260 341 m 1,44,45
 206 309 206 309 175.5 276 c 128,-1,46
 145 243 145 243 145 189 c 0,47,48
 145 134 145 134 182 101 c 128,-1,49
 219 68 219 68 281 68 c 0,50,51
 345 68 345 68 390.5 89 c 128,-1,52
 436 110 436 110 468 139 c 1,53,-1
 260 341 l 1,44,45
EndSplineSet
Substitution2: "'smcp' Lowercase to Small Capitals lookup 34 subtable" ampersand.sc
Substitution2: "'c2sc' Capitals to Small Capitals lookup 33 subtable" ampersand.sc
EndChar

StartChar: quotesingle
Encoding: 39 39 10
Width: 225
Flags: W
LayerCount: 2
Fore
SplineSet
160 714 m 1,0,-1
 140 456 l 1,1,-1
 85 456 l 1,2,-1
 65 714 l 1,3,-1
 160 714 l 1,0,-1
EndSplineSet
EndChar

StartChar: parenleft
Encoding: 40 40 11
Width: 300
Flags: W
LayerCount: 2
Fore
SplineSet
40 274 m 0,0,1
 40 396 40 396 75.5 509.5 c 128,-1,2
 111 623 111 623 187 714 c 1,3,-1
 270 714 l 1,4,5
 200 620 200 620 164.5 507 c 128,-1,6
 129 394 129 394 129 275 c 0,7,8
 129 159 129 159 164.5 47.5 c 128,-1,9
 200 -64 200 -64 269 -158 c 1,10,-1
 187 -158 l 1,11,12
 111 -70 111 -70 75.5 41.5 c 128,-1,13
 40 153 40 153 40 274 c 0,0,1
EndSplineSet
Substitution2: "'smcp' Lowercase to Small Capitals lookup 34 subtable" parenleft.sc
Substitution2: "'c2sc' Capitals to Small Capitals lookup 33 subtable" parenleft.sc
Substitution2: "'sups' Superscript lookup 19 subtable" uni207D
Substitution2: "'subs' Subscript lookup 18 subtable" uni208D
EndChar

StartChar: parenright
Encoding: 41 41 12
Width: 300
Flags: W
LayerCount: 2
Fore
SplineSet
260 274 m 0,0,1
 260 153 260 153 224.5 41.5 c 128,-1,2
 189 -70 189 -70 113 -158 c 1,3,-1
 31 -158 l 1,4,5
 100 -64 100 -64 135.5 47.5 c 128,-1,6
 171 159 171 159 171 275 c 0,7,8
 171 394 171 394 135.5 507 c 128,-1,9
 100 620 100 620 30 714 c 1,10,-1
 113 714 l 1,11,12
 189 623 189 623 224.5 509.5 c 128,-1,13
 260 396 260 396 260 274 c 0,0,1
EndSplineSet
Substitution2: "'smcp' Lowercase to Small Capitals lookup 34 subtable" parenright.sc
Substitution2: "'c2sc' Capitals to Small Capitals lookup 33 subtable" parenright.sc
Substitution2: "'sups' Superscript lookup 19 subtable" uni207E
Substitution2: "'subs' Subscript lookup 18 subtable" uni208E
EndChar

StartChar: asterisk
Encoding: 42 42 13
Width: 551
Flags: W
LayerCount: 2
Fore
SplineSet
322 760 m 1,0,-1
 302 568 l 1,1,-1
 494 622 l 1,2,-1
 508 530 l 1,3,-1
 324 515 l 1,4,-1
 443 357 l 1,5,-1
 357 310 l 1,6,-1
 272 485 l 1,7,-1
 195 310 l 1,8,-1
 106 357 l 1,9,-1
 223 515 l 1,10,-1
 41 530 l 1,11,-1
 55 622 l 1,12,-1
 245 568 l 1,13,-1
 224 760 l 1,14,-1
 322 760 l 1,0,-1
EndSplineSet
EndChar

StartChar: plus
Encoding: 43 43 14
Width: 572
Flags: W
LayerCount: 2
Fore
SplineSet
321 388 m 1,0,-1
 520 388 l 1,1,-1
 520 317 l 1,2,-1
 321 317 l 1,3,-1
 321 111 l 1,4,-1
 249 111 l 1,5,-1
 249 317 l 1,6,-1
 50 317 l 1,7,-1
 50 388 l 1,8,-1
 249 388 l 1,9,-1
 249 595 l 1,10,-1
 321 595 l 1,11,-1
 321 388 l 1,0,-1
EndSplineSet
Substitution2: "'sups' Superscript lookup 19 subtable" uni207A
Substitution2: "'subs' Subscript lookup 18 subtable" uni208A
EndChar

StartChar: comma
Encoding: 44 44 15
Width: 268
Flags: W
LayerCount: 2
Fore
SplineSet
185 116 m 1,0,-1
 192 105 l 1,1,2
 178 52 178 52 154 -11.5 c 128,-1,3
 130 -75 130 -75 106 -129 c 1,4,-1
 41 -129 l 1,5,6
 55 -72 55 -72 69.5 -4 c 128,-1,7
 84 64 84 64 91 116 c 1,8,-1
 185 116 l 1,0,-1
EndSplineSet
EndChar

StartChar: hyphen
Encoding: 45 45 16
Width: 322
Flags: W
LayerCount: 2
Fore
SplineSet
40 229 m 1,0,-1
 40 307 l 1,1,-1
 282 307 l 1,2,-1
 282 229 l 1,3,-1
 40 229 l 1,0,-1
EndSplineSet
EndChar

StartChar: period
Encoding: 46 46 17
Width: 268
Flags: W
LayerCount: 2
Fore
SplineSet
72 54 m 0,0,1
 72 91 72 91 90 106 c 128,-1,2
 108 121 108 121 133 121 c 256,3,4
 158 121 158 121 177 106 c 128,-1,5
 196 91 196 91 196 54 c 0,6,7
 196 18 196 18 177 2 c 128,-1,8
 158 -14 158 -14 133 -14 c 256,9,10
 108 -14 108 -14 90 2 c 128,-1,11
 72 18 72 18 72 54 c 0,0,1
EndSplineSet
EndChar

StartChar: slash
Encoding: 47 47 18
Width: 372
Flags: W
LayerCount: 2
Fore
SplineSet
362 714 m 1,0,-1
 96 0 l 1,1,-1
 10 0 l 1,2,-1
 276 714 l 1,3,-1
 362 714 l 1,0,-1
EndSplineSet
Substitution2: "'frac' Diagonal Fractions lookup 22 subtable" fraction
EndChar

StartChar: zero
Encoding: 48 48 19
Width: 572
Flags: W
LayerCount: 2
Fore
SplineSet
523 358 m 0,0,1
 523 242 523 242 499 160 c 128,-1,2
 475 78 475 78 422.5 34 c 128,-1,3
 370 -10 370 -10 285 -10 c 0,4,5
 164 -10 164 -10 106.5 87.5 c 128,-1,6
 49 185 49 185 49 358 c 0,7,8
 49 474 49 474 72.5 556 c 128,-1,9
 96 638 96 638 148 681.5 c 128,-1,10
 200 725 200 725 285 725 c 0,11,12
 405 725 405 725 464 628.5 c 128,-1,13
 523 532 523 532 523 358 c 0,0,1
137 358 m 0,14,15
 137 211 137 211 170.5 138 c 128,-1,16
 204 65 204 65 285 65 c 0,17,18
 365 65 365 65 399.5 137.5 c 128,-1,19
 434 210 434 210 434 358 c 0,20,21
 434 504 434 504 399.5 577 c 128,-1,22
 365 650 365 650 285 650 c 0,23,24
 204 650 204 650 170.5 577 c 128,-1,25
 137 504 137 504 137 358 c 0,14,15
EndSplineSet
Substitution2: "'zero' Slashed Zero lookup 37 subtable" zero.slash
Substitution2: "'case' Case-Sensitive Forms lookup 35 subtable" zero.lf
Substitution2: "'onum' Oldstyle Figures lookup 32 subtable" zero.tosf
Substitution2: "'pnum' Proportional Numbers lookup 30 subtable" zero.lf
Substitution2: "'frac' Diagonal Fractions lookup 23 subtable" zero.numr
Substitution2: "'dnom' Denominators lookup 21 subtable" zero.dnom
Substitution2: "'numr' Numerators lookup 20 subtable" zero.numr
Substitution2: "'sups' Superscript lookup 19 subtable" uni2070
Substitution2: "'subs' Subscript lookup 18 subtable" uni2080
EndChar

StartChar: one
Encoding: 49 49 20
Width: 572
Flags: W
LayerCount: 2
Fore
SplineSet
355 0 m 1,0,-1
 269 0 l 1,1,-1
 269 499 l 2,2,3
 269 542 269 542 270 568 c 128,-1,4
 271 594 271 594 273 622 c 1,5,6
 257 606 257 606 243.5 595 c 128,-1,7
 230 584 230 584 211 567 c 2,8,-1
 135 505 l 1,9,-1
 89 564 l 1,10,-1
 282 714 l 1,11,-1
 355 714 l 1,12,-1
 355 0 l 1,0,-1
EndSplineSet
Substitution2: "'case' Case-Sensitive Forms lookup 35 subtable" one.lf
Substitution2: "'onum' Oldstyle Figures lookup 32 subtable" one.tosf
Substitution2: "'pnum' Proportional Numbers lookup 30 subtable" one.lf
Substitution2: "'frac' Diagonal Fractions lookup 23 subtable" one.numr
Substitution2: "'dnom' Denominators lookup 21 subtable" one.dnom
Substitution2: "'numr' Numerators lookup 20 subtable" one.numr
Substitution2: "'sups' Superscript lookup 19 subtable" uni00B9
Substitution2: "'subs' Subscript lookup 18 subtable" uni2081
EndChar

StartChar: two
Encoding: 50 50 21
Width: 572
Flags: W
LayerCount: 2
Fore
SplineSet
520 0 m 1,0,-1
 48 0 l 1,1,-1
 48 73 l 1,2,-1
 235 262 l 2,3,4
 288 316 288 316 325.5 358 c 128,-1,5
 363 400 363 400 382 440 c 128,-1,6
 401 480 401 480 401 529 c 0,7,8
 401 588 401 588 366 618.5 c 128,-1,9
 331 649 331 649 275 649 c 0,10,11
 222 649 222 649 183 631 c 128,-1,12
 144 613 144 613 103 581 c 1,13,-1
 56 640 l 1,14,15
 98 675 98 675 152.5 699.5 c 128,-1,16
 207 724 207 724 275 724 c 0,17,18
 375 724 375 724 433 673 c 128,-1,19
 491 622 491 622 491 534 c 0,20,21
 491 478 491 478 468 429 c 128,-1,22
 445 380 445 380 404 332 c 128,-1,23
 363 284 363 284 308 231 c 2,24,-1
 159 84 l 1,25,-1
 159 80 l 1,26,-1
 520 80 l 1,27,-1
 520 0 l 1,0,-1
EndSplineSet
Substitution2: "'case' Case-Sensitive Forms lookup 35 subtable" two.lf
Substitution2: "'onum' Oldstyle Figures lookup 32 subtable" two.tosf
Substitution2: "'pnum' Proportional Numbers lookup 30 subtable" two.lf
Substitution2: "'frac' Diagonal Fractions lookup 23 subtable" two.numr
Substitution2: "'dnom' Denominators lookup 21 subtable" two.dnom
Substitution2: "'numr' Numerators lookup 20 subtable" two.numr
Substitution2: "'sups' Superscript lookup 19 subtable" uni00B2
Substitution2: "'subs' Subscript lookup 18 subtable" uni2082
EndChar

StartChar: three
Encoding: 51 51 22
Width: 572
Flags: W
LayerCount: 2
Fore
SplineSet
493 547 m 0,0,1
 493 475 493 475 452.5 432.5 c 128,-1,2
 412 390 412 390 345 376 c 1,3,-1
 345 372 l 1,4,5
 430 362 430 362 472.5 318 c 128,-1,6
 515 274 515 274 515 203 c 0,7,8
 515 140 515 140 486 92 c 128,-1,9
 457 44 457 44 396.5 17 c 128,-1,10
 336 -10 336 -10 241 -10 c 0,11,12
 185 -10 185 -10 137 -1.5 c 128,-1,13
 89 7 89 7 45 29 c 1,14,-1
 45 111 l 1,15,16
 90 88 90 88 142 76 c 128,-1,17
 194 64 194 64 242 64 c 0,18,19
 338 64 338 64 380.5 101.5 c 128,-1,20
 423 139 423 139 423 205 c 0,21,22
 423 272 423 272 370.5 301.5 c 128,-1,23
 318 331 318 331 223 331 c 2,24,-1
 154 331 l 1,25,-1
 154 406 l 1,26,-1
 224 406 l 2,27,28
 312 406 312 406 357.5 443 c 128,-1,29
 403 480 403 480 403 541 c 0,30,31
 403 593 403 593 368 621.5 c 128,-1,32
 333 650 333 650 273 650 c 0,33,34
 215 650 215 650 174 633 c 128,-1,35
 133 616 133 616 93 590 c 1,36,-1
 49 650 l 1,37,38
 87 680 87 680 143.5 702 c 128,-1,39
 200 724 200 724 272 724 c 0,40,41
 384 724 384 724 438.5 674 c 128,-1,42
 493 624 493 624 493 547 c 0,0,1
EndSplineSet
Substitution2: "'case' Case-Sensitive Forms lookup 35 subtable" three.lf
Substitution2: "'onum' Oldstyle Figures lookup 32 subtable" three.tosf
Substitution2: "'pnum' Proportional Numbers lookup 30 subtable" three.lf
Substitution2: "'frac' Diagonal Fractions lookup 23 subtable" three.numr
Substitution2: "'dnom' Denominators lookup 21 subtable" three.dnom
Substitution2: "'numr' Numerators lookup 20 subtable" three.numr
Substitution2: "'sups' Superscript lookup 19 subtable" uni00B3
Substitution2: "'subs' Subscript lookup 18 subtable" uni2083
EndChar

StartChar: four
Encoding: 52 52 23
Width: 572
Flags: W
LayerCount: 2
Fore
SplineSet
552 162 m 1,0,-1
 448 162 l 1,1,-1
 448 0 l 1,2,-1
 363 0 l 1,3,-1
 363 162 l 1,4,-1
 21 162 l 1,5,-1
 21 237 l 1,6,-1
 357 718 l 1,7,-1
 448 718 l 1,8,-1
 448 241 l 1,9,-1
 552 241 l 1,10,-1
 552 162 l 1,0,-1
363 241 m 1,11,-1
 363 466 l 2,12,13
 363 518 363 518 364.5 554.5 c 128,-1,14
 366 591 366 591 368 624 c 1,15,-1
 364 624 l 1,16,17
 356 605 356 605 344 583 c 128,-1,18
 332 561 332 561 321 546 c 2,19,-1
 107 241 l 1,20,-1
 363 241 l 1,11,-1
EndSplineSet
Substitution2: "'case' Case-Sensitive Forms lookup 35 subtable" four.lf
Substitution2: "'onum' Oldstyle Figures lookup 32 subtable" four.tosf
Substitution2: "'pnum' Proportional Numbers lookup 30 subtable" four.lf
Substitution2: "'frac' Diagonal Fractions lookup 23 subtable" four.numr
Substitution2: "'dnom' Denominators lookup 21 subtable" four.dnom
Substitution2: "'numr' Numerators lookup 20 subtable" four.numr
Substitution2: "'sups' Superscript lookup 19 subtable" uni2074
Substitution2: "'subs' Subscript lookup 18 subtable" uni2084
EndChar

StartChar: five
Encoding: 53 53 24
Width: 572
Flags: W
LayerCount: 2
Fore
SplineSet
275 438 m 0,0,1
 384 438 384 438 449.5 383 c 128,-1,2
 515 328 515 328 515 228 c 0,3,4
 515 117 515 117 444.5 53.5 c 128,-1,5
 374 -10 374 -10 248 -10 c 0,6,7
 192 -10 192 -10 144 0 c 128,-1,8
 96 10 96 10 63 29 c 1,9,-1
 63 112 l 1,10,11
 99 90 99 90 150.5 77.5 c 128,-1,12
 202 65 202 65 249 65 c 0,13,14
 328 65 328 65 376.5 102.5 c 128,-1,15
 425 140 425 140 425 219 c 0,16,17
 425 289 425 289 382 326.5 c 128,-1,18
 339 364 339 364 246 364 c 0,19,20
 218 364 218 364 182 359 c 128,-1,21
 146 354 146 354 124 349 c 1,22,-1
 80 377 l 1,23,-1
 107 714 l 1,24,-1
 465 714 l 1,25,-1
 465 634 l 1,26,-1
 182 634 l 1,27,-1
 165 427 l 1,28,29
 182 430 182 430 211 434 c 128,-1,30
 240 438 240 438 275 438 c 0,0,1
EndSplineSet
Substitution2: "'case' Case-Sensitive Forms lookup 35 subtable" five.lf
Substitution2: "'onum' Oldstyle Figures lookup 32 subtable" five.tosf
Substitution2: "'pnum' Proportional Numbers lookup 30 subtable" five.lf
Substitution2: "'frac' Diagonal Fractions lookup 23 subtable" five.numr
Substitution2: "'dnom' Denominators lookup 21 subtable" five.dnom
Substitution2: "'numr' Numerators lookup 20 subtable" five.numr
Substitution2: "'sups' Superscript lookup 19 subtable" uni2075
Substitution2: "'subs' Subscript lookup 18 subtable" uni2085
EndChar

StartChar: six
Encoding: 54 54 25
Width: 572
Flags: W
LayerCount: 2
Fore
SplineSet
55 305 m 0,0,1
 55 382 55 382 68.5 456.5 c 128,-1,2
 82 531 82 531 117.5 591.5 c 128,-1,3
 153 652 153 652 217 688 c 128,-1,4
 281 724 281 724 382 724 c 0,5,6
 403 724 403 724 428.5 722 c 128,-1,7
 454 720 454 720 470 715 c 1,8,-1
 470 640 l 1,9,10
 452 646 452 646 429 649 c 128,-1,11
 406 652 406 652 384 652 c 0,12,13
 315 652 315 652 269 629 c 128,-1,14
 223 606 223 606 196.5 566 c 128,-1,15
 170 526 170 526 158 474 c 128,-1,16
 146 422 146 422 143 363 c 1,17,-1
 149 363 l 1,18,19
 172 398 172 398 213 422.5 c 128,-1,20
 254 447 254 447 318 447 c 0,21,22
 411 447 411 447 468 390.5 c 128,-1,23
 525 334 525 334 525 230 c 0,24,25
 525 118 525 118 463.5 54 c 128,-1,26
 402 -10 402 -10 298 -10 c 0,27,28
 230 -10 230 -10 175 24 c 128,-1,29
 120 58 120 58 87.5 128 c 128,-1,30
 55 198 55 198 55 305 c 0,0,1
297 64 m 0,31,32
 360 64 360 64 399 104.5 c 128,-1,33
 438 145 438 145 438 230 c 0,34,35
 438 298 438 298 403.5 338 c 128,-1,36
 369 378 369 378 300 378 c 0,37,38
 253 378 253 378 218 358.5 c 128,-1,39
 183 339 183 339 163.5 308.5 c 128,-1,40
 144 278 144 278 144 247 c 0,41,42
 144 204 144 204 161 161.5 c 128,-1,43
 178 119 178 119 212 91.5 c 128,-1,44
 246 64 246 64 297 64 c 0,31,32
EndSplineSet
Substitution2: "'case' Case-Sensitive Forms lookup 35 subtable" six.lf
Substitution2: "'onum' Oldstyle Figures lookup 32 subtable" six.tosf
Substitution2: "'pnum' Proportional Numbers lookup 30 subtable" six.lf
Substitution2: "'frac' Diagonal Fractions lookup 23 subtable" six.numr
Substitution2: "'dnom' Denominators lookup 21 subtable" six.dnom
Substitution2: "'numr' Numerators lookup 20 subtable" six.numr
Substitution2: "'sups' Superscript lookup 19 subtable" uni2076
Substitution2: "'subs' Subscript lookup 18 subtable" uni2086
EndChar

StartChar: seven
Encoding: 55 55 26
Width: 572
Flags: W
LayerCount: 2
Fore
SplineSet
136 0 m 1,0,-1
 429 634 l 1,1,-1
 44 634 l 1,2,-1
 44 714 l 1,3,-1
 523 714 l 1,4,-1
 523 646 l 1,5,-1
 233 0 l 1,6,-1
 136 0 l 1,0,-1
EndSplineSet
Substitution2: "'case' Case-Sensitive Forms lookup 35 subtable" seven.lf
Substitution2: "'onum' Oldstyle Figures lookup 32 subtable" seven.tosf
Substitution2: "'pnum' Proportional Numbers lookup 30 subtable" seven.lf
Substitution2: "'frac' Diagonal Fractions lookup 23 subtable" seven.numr
Substitution2: "'dnom' Denominators lookup 21 subtable" seven.dnom
Substitution2: "'numr' Numerators lookup 20 subtable" seven.numr
Substitution2: "'sups' Superscript lookup 19 subtable" uni2077
Substitution2: "'subs' Subscript lookup 18 subtable" uni2087
EndChar

StartChar: eight
Encoding: 56 56 27
Width: 572
Flags: W
LayerCount: 2
Fore
SplineSet
285 724 m 0,0,1
 379 724 379 724 439 680 c 128,-1,2
 499 636 499 636 499 553 c 0,3,4
 499 510 499 510 480.5 478 c 128,-1,5
 462 446 462 446 431 421.5 c 128,-1,6
 400 397 400 397 363 378 c 1,7,8
 407 356 407 356 443 330 c 128,-1,9
 479 304 479 304 500.5 269 c 128,-1,10
 522 234 522 234 522 185 c 0,11,12
 522 95 522 95 458 42.5 c 128,-1,13
 394 -10 394 -10 288 -10 c 0,14,15
 172 -10 172 -10 110.5 40.5 c 128,-1,16
 49 91 49 91 49 182 c 0,17,18
 49 230 49 230 69.5 266.5 c 128,-1,19
 90 303 90 303 124 329 c 128,-1,20
 158 355 158 355 197 373 c 1,21,22
 144 403 144 403 108 445.5 c 128,-1,23
 72 488 72 488 72 554 c 0,24,25
 72 608 72 608 100 646 c 128,-1,26
 128 684 128 684 176 704 c 128,-1,27
 224 724 224 724 285 724 c 0,0,1
284 653 m 0,28,29
 228 653 228 653 193 626.5 c 128,-1,30
 158 600 158 600 158 550 c 0,31,32
 158 513 158 513 175.5 488 c 128,-1,33
 193 463 193 463 223 445.5 c 128,-1,34
 253 428 253 428 289 412 c 1,35,36
 341 434 341 434 376.5 465 c 128,-1,37
 412 496 412 496 412 550 c 0,38,39
 412 600 412 600 377 626.5 c 128,-1,40
 342 653 342 653 284 653 c 0,28,29
135 181 m 0,41,42
 135 129 135 129 172 94.5 c 128,-1,43
 209 60 209 60 286 60 c 0,44,45
 359 60 359 60 397.5 94.5 c 128,-1,46
 436 129 436 129 436 184 c 0,47,48
 436 236 436 236 395 270.5 c 128,-1,49
 354 305 354 305 286 331 c 2,50,-1
 270 337 l 1,51,52
 204 308 204 308 169.5 272 c 128,-1,53
 135 236 135 236 135 181 c 0,41,42
EndSplineSet
Substitution2: "'case' Case-Sensitive Forms lookup 35 subtable" eight.lf
Substitution2: "'onum' Oldstyle Figures lookup 32 subtable" eight.tosf
Substitution2: "'pnum' Proportional Numbers lookup 30 subtable" eight.lf
Substitution2: "'frac' Diagonal Fractions lookup 23 subtable" eight.numr
Substitution2: "'dnom' Denominators lookup 21 subtable" eight.dnom
Substitution2: "'numr' Numerators lookup 20 subtable" eight.numr
Substitution2: "'sups' Superscript lookup 19 subtable" uni2078
Substitution2: "'subs' Subscript lookup 18 subtable" uni2088
EndChar

StartChar: nine
Encoding: 57 57 28
Width: 572
Flags: W
LayerCount: 2
Fore
SplineSet
520 409 m 0,0,1
 520 332 520 332 506.5 257.5 c 128,-1,2
 493 183 493 183 457.5 122.5 c 128,-1,3
 422 62 422 62 357.5 26 c 128,-1,4
 293 -10 293 -10 192 -10 c 0,5,6
 172 -10 172 -10 145 -7.5 c 128,-1,7
 118 -5 118 -5 102 0 c 1,8,-1
 102 75 l 1,9,10
 141 62 141 62 190 62 c 0,11,12
 260 62 260 62 305.5 85 c 128,-1,13
 351 108 351 108 378 147.5 c 128,-1,14
 405 187 405 187 417 239.5 c 128,-1,15
 429 292 429 292 431 350 c 1,16,-1
 425 350 l 1,17,18
 402 316 402 316 361 291.5 c 128,-1,19
 320 267 320 267 255 267 c 0,20,21
 163 267 163 267 106.5 323.5 c 128,-1,22
 50 380 50 380 50 483 c 0,23,24
 50 558 50 558 78 612 c 128,-1,25
 106 666 106 666 157.5 695 c 128,-1,26
 209 724 209 724 278 724 c 0,27,28
 346 724 346 724 401 689.5 c 128,-1,29
 456 655 456 655 488 585.5 c 128,-1,30
 520 516 520 516 520 409 c 0,0,1
278 650 m 0,31,32
 216 650 216 650 176.5 609 c 128,-1,33
 137 568 137 568 137 484 c 0,34,35
 137 415 137 415 170.5 375.5 c 128,-1,36
 204 336 204 336 274 336 c 0,37,38
 322 336 322 336 357 355.5 c 128,-1,39
 392 375 392 375 411.5 405 c 128,-1,40
 431 435 431 435 431 467 c 0,41,42
 431 510 431 510 414 552 c 128,-1,43
 397 594 397 594 363 622 c 128,-1,44
 329 650 329 650 278 650 c 0,31,32
EndSplineSet
Substitution2: "'case' Case-Sensitive Forms lookup 35 subtable" nine.lf
Substitution2: "'onum' Oldstyle Figures lookup 32 subtable" nine.tosf
Substitution2: "'pnum' Proportional Numbers lookup 30 subtable" nine.lf
Substitution2: "'frac' Diagonal Fractions lookup 23 subtable" nine.numr
Substitution2: "'dnom' Denominators lookup 21 subtable" nine.dnom
Substitution2: "'numr' Numerators lookup 20 subtable" nine.numr
Substitution2: "'sups' Superscript lookup 19 subtable" uni2079
Substitution2: "'subs' Subscript lookup 18 subtable" uni2089
EndChar

StartChar: colon
Encoding: 58 58 29
Width: 268
Flags: W
LayerCount: 2
Fore
SplineSet
72 482 m 0,0,1
 72 520 72 520 90 535 c 128,-1,2
 108 550 108 550 133 550 c 256,3,4
 158 550 158 550 177 535 c 128,-1,5
 196 520 196 520 196 482 c 0,6,7
 196 446 196 446 177 430 c 128,-1,8
 158 414 158 414 133 414 c 256,9,10
 108 414 108 414 90 430 c 128,-1,11
 72 446 72 446 72 482 c 0,0,1
72 54 m 0,12,13
 72 91 72 91 90 106 c 128,-1,14
 108 121 108 121 133 121 c 256,15,16
 158 121 158 121 177 106 c 128,-1,17
 196 91 196 91 196 54 c 0,18,19
 196 18 196 18 177 2 c 128,-1,20
 158 -14 158 -14 133 -14 c 256,21,22
 108 -14 108 -14 90 2 c 128,-1,23
 72 18 72 18 72 54 c 0,12,13
EndSplineSet
EndChar

StartChar: semicolon
Encoding: 59 59 30
Width: 268
Flags: W
LayerCount: 2
Fore
SplineSet
70 482 m 0,0,1
 70 520 70 520 88 535 c 128,-1,2
 106 550 106 550 131 550 c 0,3,4
 157 550 157 550 175.5 535 c 128,-1,5
 194 520 194 520 194 482 c 0,6,7
 194 446 194 446 175.5 430 c 128,-1,8
 157 414 157 414 131 414 c 0,9,10
 106 414 106 414 88 430 c 128,-1,11
 70 446 70 446 70 482 c 0,0,1
176 116 m 1,12,-1
 183 105 l 1,13,14
 170 52 170 52 145.5 -12 c 128,-1,15
 121 -76 121 -76 97 -129 c 1,16,-1
 31 -129 l 1,17,18
 40 -92 40 -92 50 -48 c 128,-1,19
 60 -4 60 -4 68.5 38.5 c 128,-1,20
 77 81 77 81 82 116 c 1,21,-1
 176 116 l 1,12,-1
EndSplineSet
EndChar

StartChar: less
Encoding: 60 60 31
Width: 572
Flags: W
LayerCount: 2
Fore
SplineSet
521 116 m 1,0,-1
 50 323 l 1,1,-1
 50 373 l 1,2,-1
 521 608 l 1,3,-1
 521 530 l 1,4,-1
 144 352 l 1,5,-1
 521 194 l 1,6,-1
 521 116 l 1,0,-1
EndSplineSet
EndChar

StartChar: equal
Encoding: 61 61 32
Width: 572
Flags: W
LayerCount: 2
Fore
SplineSet
56 416 m 1,0,-1
 56 487 l 1,1,-1
 514 487 l 1,2,-1
 514 416 l 1,3,-1
 56 416 l 1,0,-1
56 217 m 1,4,-1
 56 288 l 1,5,-1
 514 288 l 1,6,-1
 514 217 l 1,7,-1
 56 217 l 1,4,-1
EndSplineSet
Substitution2: "'sups' Superscript lookup 19 subtable" uni207C
Substitution2: "'subs' Subscript lookup 18 subtable" uni208C
EndChar

StartChar: greater
Encoding: 62 62 33
Width: 572
Flags: W
LayerCount: 2
Fore
SplineSet
50 194 m 1,0,-1
 427 351 l 1,1,-1
 50 530 l 1,2,-1
 50 608 l 1,3,-1
 521 373 l 1,4,-1
 521 323 l 1,5,-1
 50 116 l 1,6,-1
 50 194 l 1,0,-1
EndSplineSet
EndChar

StartChar: question
Encoding: 63 63 34
Width: 434
Flags: W
LayerCount: 2
Fore
SplineSet
140 201 m 1,0,-1
 140 228 l 2,1,2
 140 266 140 266 147.5 293.5 c 128,-1,3
 155 321 155 321 173.5 345.5 c 128,-1,4
 192 370 192 370 224 398 c 0,5,6
 262 430 262 430 284 452.5 c 128,-1,7
 306 475 306 475 315 496 c 128,-1,8
 324 517 324 517 324 547 c 0,9,10
 324 595 324 595 293 621 c 128,-1,11
 262 647 262 647 203 647 c 0,12,13
 154 647 154 647 116 634.5 c 128,-1,14
 78 622 78 622 43 605 c 1,15,-1
 12 675 l 1,16,17
 52 696 52 696 100.5 710 c 128,-1,18
 149 724 149 724 209 724 c 0,19,20
 304 724 304 724 356 677 c 128,-1,21
 408 630 408 630 408 549 c 0,22,23
 408 504 408 504 393.5 472.5 c 128,-1,24
 379 441 379 441 352.5 414.5 c 128,-1,25
 326 388 326 388 290 358 c 0,26,27
 256 330 256 330 239 309 c 128,-1,28
 222 288 222 288 216 267 c 128,-1,29
 210 246 210 246 210 218 c 2,30,-1
 210 201 l 1,31,-1
 140 201 l 1,0,-1
117 54 m 0,32,33
 117 91 117 91 134.5 106 c 128,-1,34
 152 121 152 121 179 121 c 0,35,36
 204 121 204 121 222 106 c 128,-1,37
 240 91 240 91 240 54 c 0,38,39
 240 18 240 18 222 2 c 128,-1,40
 204 -14 204 -14 179 -14 c 0,41,42
 152 -14 152 -14 134.5 2 c 128,-1,43
 117 18 117 18 117 54 c 0,32,33
EndSplineSet
Substitution2: "'smcp' Lowercase to Small Capitals lookup 34 subtable" question.sc
Substitution2: "'c2sc' Capitals to Small Capitals lookup 33 subtable" question.sc
EndChar

StartChar: at
Encoding: 64 64 35
Width: 899
Flags: W
LayerCount: 2
Fore
SplineSet
841 357 m 0,0,1
 841 311 841 311 830.5 267 c 128,-1,2
 820 223 820 223 798 187.5 c 128,-1,3
 776 152 776 152 744 130.5 c 128,-1,4
 712 109 712 109 668 109 c 0,5,6
 622 109 622 109 595.5 135.5 c 128,-1,7
 569 162 569 162 563 196 c 1,8,-1
 558 196 l 1,9,10
 540 159 540 159 505 134 c 128,-1,11
 470 109 470 109 417 109 c 0,12,13
 340 109 340 109 299 160 c 128,-1,14
 258 211 258 211 258 295 c 0,15,16
 258 360 258 360 284 411 c 128,-1,17
 310 462 310 462 357.5 491 c 128,-1,18
 405 520 405 520 470 520 c 0,19,20
 514 520 514 520 556.5 512.5 c 128,-1,21
 599 505 599 505 623 496 c 1,22,-1
 613 293 l 2,23,24
 612 275 612 275 612 267.5 c 128,-1,25
 612 260 612 260 612 257 c 0,26,27
 612 204 612 204 630.5 187.5 c 128,-1,28
 649 171 649 171 674 171 c 0,29,30
 705 171 705 171 726.5 196.5 c 128,-1,31
 748 222 748 222 759.5 264 c 128,-1,32
 771 306 771 306 771 358 c 0,33,34
 771 450 771 450 733.5 515 c 128,-1,35
 696 580 696 580 630.5 614 c 128,-1,36
 565 648 565 648 482 648 c 0,37,38
 368 648 368 648 289.5 601 c 128,-1,39
 211 554 211 554 170.5 471.5 c 128,-1,40
 130 389 130 389 130 283 c 0,41,42
 130 135 130 135 208 56 c 128,-1,43
 286 -23 286 -23 433 -23 c 0,44,45
 494 -23 494 -23 549.5 -9.5 c 128,-1,46
 605 4 605 4 648 20 c 1,47,-1
 648 -48 l 1,48,49
 605 -66 605 -66 551.5 -77.5 c 128,-1,50
 498 -89 498 -89 433 -89 c 0,51,52
 315 -89 315 -89 231 -45 c 128,-1,53
 147 -1 147 -1 102.5 81.5 c 128,-1,54
 58 164 58 164 58 280 c 0,55,56
 58 373 58 373 87 452.5 c 128,-1,57
 116 532 116 532 171 590.5 c 128,-1,58
 226 649 226 649 304.5 681.5 c 128,-1,59
 383 714 383 714 482 714 c 0,60,61
 586 714 586 714 667 671 c 128,-1,62
 748 628 748 628 794.5 548 c 128,-1,63
 841 468 841 468 841 357 c 0,0,1
336 293 m 0,64,65
 336 228 336 228 361 199.5 c 128,-1,66
 386 171 386 171 430 171 c 0,67,68
 486 171 486 171 510.5 213 c 128,-1,69
 535 255 535 255 539 322 c 2,70,-1
 545 447 l 1,71,72
 532 451 532 451 512 454 c 128,-1,73
 492 457 492 457 471 457 c 0,74,75
 422 457 422 457 392 433 c 128,-1,76
 362 409 362 409 349 371.5 c 128,-1,77
 336 334 336 334 336 293 c 0,64,65
EndSplineSet
EndChar

StartChar: A
Encoding: 65 65 36
Width: 639
GlyphClass: 2
Flags: W
AnchorPoint: "Anchor-3" 519 714 basechar 0
AnchorPoint: "Anchor-2" 318 714 basechar 0
AnchorPoint: "Anchor-0" 324 0 basechar 0
LayerCount: 2
Fore
SplineSet
545 0 m 1,0,-1
 459 221 l 1,1,-1
 176 221 l 1,2,-1
 91 0 l 1,3,-1
 0 0 l 1,4,-1
 279 717 l 1,5,-1
 360 717 l 1,6,-1
 638 0 l 1,7,-1
 545 0 l 1,0,-1
432 301 m 1,8,-1
 352 517 l 2,9,10
 349 525 349 525 342 546 c 128,-1,11
 335 567 335 567 328.5 589.5 c 128,-1,12
 322 612 322 612 318 624 c 1,13,14
 310 593 310 593 301.5 563.5 c 128,-1,15
 293 534 293 534 287 517 c 2,16,-1
 206 301 l 1,17,-1
 432 301 l 1,8,-1
EndSplineSet
Substitution2: "'c2sc' Capitals to Small Capitals lookup 33 subtable" a.sc
Substitution2: "Single Substitution lookup 28 subtable" ordfeminine
EndChar

StartChar: B
Encoding: 66 66 37
Width: 650
GlyphClass: 2
Flags: W
AnchorPoint: "Anchor-3" 630 714 basechar 0
AnchorPoint: "Anchor-2" 322 714 basechar 0
AnchorPoint: "Anchor-0" 315 0 basechar 0
LayerCount: 2
Fore
SplineSet
97 714 m 1,0,-1
 301 714 l 2,1,2
 434 714 434 714 503 674 c 128,-1,3
 572 634 572 634 572 537 c 0,4,5
 572 474 572 474 537 432.5 c 128,-1,6
 502 391 502 391 436 379 c 1,7,-1
 436 374 l 1,8,9
 481 366 481 366 517.5 347 c 128,-1,10
 554 328 554 328 575 293 c 128,-1,11
 596 258 596 258 596 203 c 0,12,13
 596 106 596 106 529.5 53 c 128,-1,14
 463 0 463 0 348 0 c 2,15,-1
 97 0 l 1,16,-1
 97 714 l 1,0,-1
187 410 m 1,17,-1
 319 410 l 2,18,19
 410 410 410 410 444.5 439.5 c 128,-1,20
 479 469 479 469 479 527 c 0,21,22
 479 586 479 586 437.5 611.5 c 128,-1,23
 396 637 396 637 305 637 c 2,24,-1
 187 637 l 1,25,-1
 187 410 l 1,17,-1
187 335 m 1,26,-1
 187 76 l 1,27,-1
 331 76 l 2,28,29
 426 76 426 76 463 113 c 128,-1,30
 500 150 500 150 500 210 c 0,31,32
 500 266 500 266 461.5 300.5 c 128,-1,33
 423 335 423 335 324 335 c 2,34,-1
 187 335 l 1,26,-1
EndSplineSet
Substitution2: "'c2sc' Capitals to Small Capitals lookup 33 subtable" b.sc
EndChar

StartChar: C
Encoding: 67 67 38
Width: 632
GlyphClass: 2
Flags: W
AnchorPoint: "Anchor-3" 612 714 basechar 0
AnchorPoint: "Anchor-2" 380 714 basechar 0
AnchorPoint: "Anchor-0" 372 0 basechar 0
LayerCount: 2
Fore
SplineSet
403 645 m 0,0,1
 288 645 288 645 222 568 c 128,-1,2
 156 491 156 491 156 357 c 0,3,4
 156 224 156 224 217.5 146.5 c 128,-1,5
 279 69 279 69 402 69 c 0,6,7
 448 69 448 69 490 77 c 128,-1,8
 532 85 532 85 573 97 c 1,9,-1
 573 19 l 1,10,11
 533 4 533 4 490.5 -3 c 128,-1,12
 448 -10 448 -10 389 -10 c 0,13,14
 280 -10 280 -10 207 35 c 128,-1,15
 134 80 134 80 97.5 163 c 128,-1,16
 61 246 61 246 61 358 c 0,17,18
 61 466 61 466 100.5 548.5 c 128,-1,19
 140 631 140 631 217 677.5 c 128,-1,20
 294 724 294 724 404 724 c 0,21,22
 517 724 517 724 601 682 c 1,23,-1
 565 606 l 1,24,25
 532 621 532 621 491.5 633 c 128,-1,26
 451 645 451 645 403 645 c 0,0,1
EndSplineSet
Substitution2: "'c2sc' Capitals to Small Capitals lookup 33 subtable" c.sc
EndChar

StartChar: D
Encoding: 68 68 39
Width: 730
GlyphClass: 2
Flags: W
AnchorPoint: "Anchor-3" 710 714 basechar 0
AnchorPoint: "Anchor-2" 361 714 basechar 0
AnchorPoint: "Anchor-1" 365 357 basechar 0
AnchorPoint: "Anchor-0" 342 0 basechar 0
LayerCount: 2
Fore
SplineSet
669 364 m 0,0,1
 669 183 669 183 570.5 91.5 c 128,-1,2
 472 0 472 0 296 0 c 2,3,-1
 97 0 l 1,4,-1
 97 714 l 1,5,-1
 317 714 l 2,6,7
 424 714 424 714 503.5 674 c 128,-1,8
 583 634 583 634 626 556 c 128,-1,9
 669 478 669 478 669 364 c 0,0,1
574 361 m 0,10,11
 574 504 574 504 503.5 570.5 c 128,-1,12
 433 637 433 637 304 637 c 2,13,-1
 187 637 l 1,14,-1
 187 77 l 1,15,-1
 284 77 l 2,16,17
 574 77 574 77 574 361 c 0,10,11
EndSplineSet
Substitution2: "'c2sc' Capitals to Small Capitals lookup 33 subtable" d.sc
EndChar

StartChar: E
Encoding: 69 69 40
Width: 556
GlyphClass: 2
Flags: W
AnchorPoint: "Anchor-3" 536 714 basechar 0
AnchorPoint: "Anchor-2" 305 714 basechar 0
AnchorPoint: "Anchor-0" 300 0 basechar 0
LayerCount: 2
Fore
SplineSet
496 0 m 1,0,-1
 97 0 l 1,1,-1
 97 714 l 1,2,-1
 496 714 l 1,3,-1
 496 635 l 1,4,-1
 187 635 l 1,5,-1
 187 412 l 1,6,-1
 478 412 l 1,7,-1
 478 334 l 1,8,-1
 187 334 l 1,9,-1
 187 79 l 1,10,-1
 496 79 l 1,11,-1
 496 0 l 1,0,-1
EndSplineSet
Substitution2: "'c2sc' Capitals to Small Capitals lookup 33 subtable" e.sc
EndChar

StartChar: F
Encoding: 70 70 41
Width: 519
GlyphClass: 2
Flags: W
AnchorPoint: "Anchor-3" 499 714 basechar 0
AnchorPoint: "Anchor-2" 298 714 basechar 0
AnchorPoint: "Anchor-0" 260 0 basechar 0
LayerCount: 2
Fore
SplineSet
187 0 m 1,0,-1
 97 0 l 1,1,-1
 97 714 l 1,2,-1
 496 714 l 1,3,-1
 496 635 l 1,4,-1
 187 635 l 1,5,-1
 187 382 l 1,6,-1
 477 382 l 1,7,-1
 477 303 l 1,8,-1
 187 303 l 1,9,-1
 187 0 l 1,0,-1
EndSplineSet
Substitution2: "'c2sc' Capitals to Small Capitals lookup 33 subtable" f.sc
EndChar

StartChar: G
Encoding: 71 71 42
Width: 728
GlyphClass: 2
Flags: W
AnchorPoint: "Anchor-3" 708 714 basechar 0
AnchorPoint: "Anchor-2" 405 714 basechar 0
AnchorPoint: "Anchor-0" 402 0 basechar 0
LayerCount: 2
Fore
SplineSet
407 377 m 1,0,-1
 654 377 l 1,1,-1
 654 27 l 1,2,3
 596 8 596 8 537 -1 c 128,-1,4
 478 -10 478 -10 403 -10 c 0,5,6
 292 -10 292 -10 216 34.5 c 128,-1,7
 140 79 140 79 100.5 161.5 c 128,-1,8
 61 244 61 244 61 357 c 0,9,10
 61 468 61 468 104.5 550.5 c 128,-1,11
 148 633 148 633 231 678.5 c 128,-1,12
 314 724 314 724 431 724 c 0,13,14
 491 724 491 724 544.5 713 c 128,-1,15
 598 702 598 702 644 682 c 1,16,-1
 610 604 l 1,17,18
 572 620 572 620 524.5 632.5 c 128,-1,19
 477 645 477 645 426 645 c 0,20,21
 298 645 298 645 226.5 567.5 c 128,-1,22
 155 490 155 490 155 357 c 0,23,24
 155 272 155 272 182.5 206.5 c 128,-1,25
 210 141 210 141 269 104.5 c 128,-1,26
 328 68 328 68 424 68 c 0,27,28
 471 68 471 68 504 73 c 128,-1,29
 537 78 537 78 564 85 c 1,30,-1
 564 297 l 1,31,-1
 407 297 l 1,32,-1
 407 377 l 1,0,-1
EndSplineSet
Substitution2: "'c2sc' Capitals to Small Capitals lookup 33 subtable" g.sc
EndChar

StartChar: H
Encoding: 72 72 43
Width: 741
GlyphClass: 2
Flags: W
AnchorPoint: "Anchor-3" 721 714 basechar 0
AnchorPoint: "Anchor-2" 371 714 basechar 0
AnchorPoint: "Anchor-1" 371 357 basechar 0
AnchorPoint: "Anchor-0" 368 0 basechar 0
LayerCount: 2
Fore
SplineSet
643 0 m 1,0,-1
 553 0 l 1,1,-1
 553 333 l 1,2,-1
 187 333 l 1,3,-1
 187 0 l 1,4,-1
 97 0 l 1,5,-1
 97 714 l 1,6,-1
 187 714 l 1,7,-1
 187 412 l 1,8,-1
 553 412 l 1,9,-1
 553 714 l 1,10,-1
 643 714 l 1,11,-1
 643 0 l 1,0,-1
EndSplineSet
Substitution2: "'c2sc' Capitals to Small Capitals lookup 33 subtable" h.sc
EndChar

StartChar: I
Encoding: 73 73 44
Width: 339
GlyphClass: 2
Flags: W
AnchorPoint: "Anchor-3" 319 714 basechar 0
AnchorPoint: "Anchor-2" 170 714 basechar 0
AnchorPoint: "Anchor-0" 170 0 basechar 0
LayerCount: 2
Fore
SplineSet
298 0 m 1,0,-1
 40 0 l 1,1,-1
 40 52 l 1,2,-1
 124 71 l 1,3,-1
 124 642 l 1,4,-1
 40 662 l 1,5,-1
 40 714 l 1,6,-1
 298 714 l 1,7,-1
 298 662 l 1,8,-1
 214 642 l 1,9,-1
 214 71 l 1,10,-1
 298 52 l 1,11,-1
 298 0 l 1,0,-1
EndSplineSet
Substitution2: "'c2sc' Capitals to Small Capitals lookup 33 subtable" i.sc
EndChar

StartChar: J
Encoding: 74 74 45
Width: 273
GlyphClass: 2
Flags: W
AnchorPoint: "Anchor-3" 253 714 basechar 0
AnchorPoint: "Anchor-2" 137 714 basechar 0
AnchorPoint: "Anchor-0" -4 -170 basechar 0
LayerCount: 2
Fore
SplineSet
-4 -190 m 0,0,1
 -28 -190 -28 -190 -46 -186.5 c 128,-1,2
 -64 -183 -64 -183 -78 -177 c 1,3,-1
 -78 -101 l 1,4,5
 -62 -106 -62 -106 -44 -108.5 c 128,-1,6
 -26 -111 -26 -111 -6 -111 c 0,7,8
 19 -111 19 -111 41.5 -101 c 128,-1,9
 64 -91 64 -91 78 -66.5 c 128,-1,10
 92 -42 92 -42 92 4 c 2,11,-1
 92 714 l 1,12,-1
 182 714 l 1,13,-1
 182 11 l 2,14,15
 182 -92 182 -92 131 -141 c 128,-1,16
 80 -190 80 -190 -4 -190 c 0,0,1
EndSplineSet
Substitution2: "'c2sc' Capitals to Small Capitals lookup 33 subtable" j.sc
EndChar

StartChar: K
Encoding: 75 75 46
Width: 619
GlyphClass: 2
Flags: W
AnchorPoint: "Anchor-3" 599 714 basechar 0
AnchorPoint: "Anchor-2" 340 714 basechar 0
AnchorPoint: "Anchor-0" 330 0 basechar 0
LayerCount: 2
Fore
SplineSet
619 0 m 1,0,-1
 513 0 l 1,1,-1
 260 341 l 1,2,-1
 187 277 l 1,3,-1
 187 0 l 1,4,-1
 97 0 l 1,5,-1
 97 714 l 1,6,-1
 187 714 l 1,7,-1
 187 362 l 1,8,9
 217 396 217 396 248 430 c 128,-1,10
 279 464 279 464 310 498 c 2,11,-1
 503 714 l 1,12,-1
 608 714 l 1,13,-1
 325 403 l 1,14,-1
 619 0 l 1,0,-1
EndSplineSet
Substitution2: "'c2sc' Capitals to Small Capitals lookup 33 subtable" k.sc
EndChar

StartChar: L
Encoding: 76 76 47
Width: 524
GlyphClass: 2
Flags: W
AnchorPoint: "Anchor-3" 364 714 basechar 0
AnchorPoint: "Anchor-2" 140 714 basechar 0
AnchorPoint: "Anchor-1" 262 357 basechar 0
AnchorPoint: "Anchor-0" 300 0 basechar 0
LayerCount: 2
Fore
SplineSet
97 0 m 1,0,-1
 97 714 l 1,1,-1
 187 714 l 1,2,-1
 187 80 l 1,3,-1
 499 80 l 1,4,-1
 499 0 l 1,5,-1
 97 0 l 1,0,-1
EndSplineSet
Substitution2: "'c2sc' Capitals to Small Capitals lookup 33 subtable" l.sc
EndChar

StartChar: M
Encoding: 77 77 48
Width: 907
GlyphClass: 2
Flags: W
AnchorPoint: "Anchor-3" 887 714 basechar 0
AnchorPoint: "Anchor-2" 454 714 basechar 0
AnchorPoint: "Anchor-0" 448 0 basechar 0
LayerCount: 2
Fore
SplineSet
412 0 m 1,0,-1
 177 626 l 1,1,-1
 173 626 l 1,2,3
 176 595 176 595 178 542.5 c 128,-1,4
 180 490 180 490 180 433 c 2,5,-1
 180 0 l 1,6,-1
 97 0 l 1,7,-1
 97 714 l 1,8,-1
 230 714 l 1,9,-1
 450 129 l 1,10,-1
 454 129 l 1,11,-1
 678 714 l 1,12,-1
 810 714 l 1,13,-1
 810 0 l 1,14,-1
 721 0 l 1,15,-1
 721 439 l 2,16,17
 721 491 721 491 723.5 542 c 128,-1,18
 726 593 726 593 728 625 c 1,19,-1
 724 625 l 1,20,-1
 486 0 l 1,21,-1
 412 0 l 1,0,-1
EndSplineSet
Substitution2: "'c2sc' Capitals to Small Capitals lookup 33 subtable" m.sc
EndChar

StartChar: N
Encoding: 78 78 49
Width: 760
GlyphClass: 2
Flags: W
AnchorPoint: "Anchor-3" 740 714 basechar 0
AnchorPoint: "Anchor-2" 380 714 basechar 0
AnchorPoint: "Anchor-0" 380 0 basechar 0
LayerCount: 2
Fore
SplineSet
663 0 m 1,0,-1
 558 0 l 1,1,-1
 176 593 l 1,2,-1
 172 593 l 1,3,4
 174 558 174 558 177 506 c 128,-1,5
 180 454 180 454 180 399 c 2,6,-1
 180 0 l 1,7,-1
 97 0 l 1,8,-1
 97 714 l 1,9,-1
 201 714 l 1,10,-1
 582 123 l 1,11,-1
 586 123 l 1,12,13
 585 139 585 139 583.5 171 c 128,-1,14
 582 203 582 203 580.5 240.5 c 128,-1,15
 579 278 579 278 579 311 c 2,16,-1
 579 714 l 1,17,-1
 663 714 l 1,18,-1
 663 0 l 1,0,-1
EndSplineSet
Substitution2: "'c2sc' Capitals to Small Capitals lookup 33 subtable" n.sc
EndChar

StartChar: O
Encoding: 79 79 50
Width: 781
GlyphClass: 2
Flags: W
AnchorPoint: "Anchor-3" 761 714 basechar 0
AnchorPoint: "Anchor-2" 391 714 basechar 0
AnchorPoint: "Anchor-1" 391 357 basechar 0
AnchorPoint: "Anchor-0" 392 0 basechar 0
LayerCount: 2
Fore
SplineSet
720 358 m 256,0,1
 720 247 720 247 682.5 164.5 c 128,-1,2
 645 82 645 82 571.5 36 c 128,-1,3
 498 -10 498 -10 391 -10 c 0,4,5
 280 -10 280 -10 206.5 36 c 128,-1,6
 133 82 133 82 97 165 c 128,-1,7
 61 248 61 248 61 359 c 0,8,9
 61 468 61 468 97 550.5 c 128,-1,10
 133 633 133 633 206.5 679 c 128,-1,11
 280 725 280 725 392 725 c 0,12,13
 499 725 499 725 572 679.5 c 128,-1,14
 645 634 645 634 682.5 551.5 c 128,-1,15
 720 469 720 469 720 358 c 256,0,1
156 358 m 256,16,17
 156 223 156 223 213 145.5 c 128,-1,18
 270 68 270 68 391 68 c 256,19,20
 512 68 512 68 568.5 145.5 c 128,-1,21
 625 223 625 223 625 358 c 256,22,23
 625 493 625 493 569 569.5 c 128,-1,24
 513 646 513 646 392 646 c 0,25,26
 270 646 270 646 213 569.5 c 128,-1,27
 156 493 156 493 156 358 c 256,16,17
EndSplineSet
Substitution2: "'c2sc' Capitals to Small Capitals lookup 33 subtable" o.sc
Substitution2: "Single Substitution lookup 28 subtable" ordmasculine
EndChar

StartChar: P
Encoding: 80 80 51
Width: 605
GlyphClass: 2
Flags: W
AnchorPoint: "Anchor-3" 585 714 basechar 0
AnchorPoint: "Anchor-2" 317 714 basechar 0
AnchorPoint: "Anchor-0" 303 0 basechar 0
LayerCount: 2
Fore
SplineSet
286 714 m 2,0,1
 426 714 426 714 490 659 c 128,-1,2
 554 604 554 604 554 504 c 0,3,4
 554 445 554 445 527.5 393.5 c 128,-1,5
 501 342 501 342 438.5 310 c 128,-1,6
 376 278 376 278 269 278 c 2,7,-1
 187 278 l 1,8,-1
 187 0 l 1,9,-1
 97 0 l 1,10,-1
 97 714 l 1,11,-1
 286 714 l 2,0,1
278 637 m 2,12,-1
 187 637 l 1,13,-1
 187 355 l 1,14,-1
 259 355 l 2,15,16
 361 355 361 355 411 388 c 128,-1,17
 461 421 461 421 461 500 c 0,18,19
 461 569 461 569 416.5 603 c 128,-1,20
 372 637 372 637 278 637 c 2,12,-1
EndSplineSet
Substitution2: "'c2sc' Capitals to Small Capitals lookup 33 subtable" p.sc
EndChar

StartChar: Q
Encoding: 81 81 52
Width: 781
GlyphClass: 2
Flags: W
AnchorPoint: "Anchor-3" 761 714 basechar 0
AnchorPoint: "Anchor-2" 391 714 basechar 0
AnchorPoint: "Anchor-0" 391 -170 basechar 0
LayerCount: 2
Fore
SplineSet
720 358 m 0,0,1
 720 227 720 227 667.5 134.5 c 128,-1,2
 615 42 615 42 512 8 c 1,3,-1
 683 -170 l 1,4,-1
 554 -170 l 1,5,-1
 416 -9 l 1,6,7
 410 -9 410 -9 403.5 -9.5 c 128,-1,8
 397 -10 397 -10 391 -10 c 0,9,10
 280 -10 280 -10 206.5 36 c 128,-1,11
 133 82 133 82 97 165 c 128,-1,12
 61 248 61 248 61 359 c 0,13,14
 61 468 61 468 97 550.5 c 128,-1,15
 133 633 133 633 206.5 679 c 128,-1,16
 280 725 280 725 392 725 c 0,17,18
 499 725 499 725 572 679.5 c 128,-1,19
 645 634 645 634 682.5 551.5 c 128,-1,20
 720 469 720 469 720 358 c 0,0,1
156 358 m 256,21,22
 156 223 156 223 213 145.5 c 128,-1,23
 270 68 270 68 391 68 c 256,24,25
 512 68 512 68 568.5 145.5 c 128,-1,26
 625 223 625 223 625 358 c 256,27,28
 625 493 625 493 569 569.5 c 128,-1,29
 513 646 513 646 392 646 c 0,30,31
 270 646 270 646 213 569.5 c 128,-1,32
 156 493 156 493 156 358 c 256,21,22
EndSplineSet
Substitution2: "'c2sc' Capitals to Small Capitals lookup 33 subtable" q.sc
EndChar

StartChar: R
Encoding: 82 82 53
Width: 622
GlyphClass: 2
Flags: W
AnchorPoint: "Anchor-3" 602 714 basechar 0
AnchorPoint: "Anchor-2" 311 714 basechar 0
AnchorPoint: "Anchor-0" 328 0 basechar 0
LayerCount: 2
Fore
SplineSet
294 714 m 2,0,1
 427 714 427 714 490.5 663.5 c 128,-1,2
 554 613 554 613 554 511 c 0,3,4
 554 454 554 454 533 416 c 128,-1,5
 512 378 512 378 479.5 355 c 128,-1,6
 447 332 447 332 411 320 c 1,7,-1
 607 0 l 1,8,-1
 502 0 l 1,9,-1
 329 295 l 1,10,-1
 187 295 l 1,11,-1
 187 0 l 1,12,-1
 97 0 l 1,13,-1
 97 714 l 1,14,-1
 294 714 l 2,0,1
289 636 m 2,15,-1
 187 636 l 1,16,-1
 187 371 l 1,17,-1
 294 371 l 2,18,19
 381 371 381 371 421 405.5 c 128,-1,20
 461 440 461 440 461 507 c 0,21,22
 461 577 461 577 419 606.5 c 128,-1,23
 377 636 377 636 289 636 c 2,15,-1
EndSplineSet
Substitution2: "'c2sc' Capitals to Small Capitals lookup 33 subtable" r.sc
EndChar

StartChar: S
Encoding: 83 83 54
Width: 549
GlyphClass: 2
Flags: W
AnchorPoint: "Anchor-3" 529 714 basechar 0
AnchorPoint: "Anchor-2" 285 714 basechar 0
AnchorPoint: "Anchor-0" 257 0 basechar 0
LayerCount: 2
Fore
SplineSet
502 191 m 0,0,1
 502 96 502 96 433 43 c 128,-1,2
 364 -10 364 -10 247 -10 c 0,3,4
 187 -10 187 -10 136 -1 c 128,-1,5
 85 8 85 8 51 24 c 1,6,-1
 51 110 l 1,7,8
 87 94 87 94 140.5 81 c 128,-1,9
 194 68 194 68 251 68 c 0,10,11
 330 68 330 68 371 99 c 128,-1,12
 412 130 412 130 412 183 c 0,13,14
 412 218 412 218 397 242 c 128,-1,15
 382 266 382 266 345 286 c 128,-1,16
 308 306 308 306 244 330 c 0,17,18
 152 363 152 363 106 411 c 128,-1,19
 60 459 60 459 60 542 c 0,20,21
 60 598 60 598 89 639 c 128,-1,22
 118 680 118 680 169 702 c 128,-1,23
 220 724 220 724 288 724 c 0,24,25
 346 724 346 724 395 713 c 128,-1,26
 444 702 444 702 485 684 c 1,27,-1
 457 607 l 1,28,29
 420 623 420 623 376 634 c 128,-1,30
 332 645 332 645 286 645 c 0,31,32
 219 645 219 645 185 616.5 c 128,-1,33
 151 588 151 588 151 541 c 0,34,35
 151 505 151 505 166 481 c 128,-1,36
 181 457 181 457 215 437.5 c 128,-1,37
 249 418 249 418 307 397 c 0,38,39
 370 374 370 374 413.5 347.5 c 128,-1,40
 457 321 457 321 479.5 284 c 128,-1,41
 502 247 502 247 502 191 c 0,0,1
EndSplineSet
Substitution2: "'c2sc' Capitals to Small Capitals lookup 33 subtable" s.sc
EndChar

StartChar: T
Encoding: 84 84 55
Width: 556
GlyphClass: 2
Flags: W
AnchorPoint: "Anchor-3" 536 714 basechar 0
AnchorPoint: "Anchor-2" 278 714 basechar 0
AnchorPoint: "Anchor-1" 278 357 basechar 0
AnchorPoint: "Anchor-0" 278 0 basechar 0
LayerCount: 2
Fore
SplineSet
323 0 m 1,0,-1
 233 0 l 1,1,-1
 233 635 l 1,2,-1
 10 635 l 1,3,-1
 10 714 l 1,4,-1
 545 714 l 1,5,-1
 545 635 l 1,6,-1
 323 635 l 1,7,-1
 323 0 l 1,0,-1
EndSplineSet
Substitution2: "'c2sc' Capitals to Small Capitals lookup 33 subtable" t.sc
EndChar

StartChar: U
Encoding: 85 85 56
Width: 731
GlyphClass: 2
Flags: W
AnchorPoint: "Anchor-3" 711 714 basechar 0
AnchorPoint: "Anchor-2" 366 714 basechar 0
AnchorPoint: "Anchor-0" 364 0 basechar 0
LayerCount: 2
Fore
SplineSet
640 714 m 1,0,-1
 640 252 l 2,1,2
 640 178 640 178 610 118.5 c 128,-1,3
 580 59 580 59 518 24.5 c 128,-1,4
 456 -10 456 -10 362 -10 c 0,5,6
 228 -10 228 -10 159 62.5 c 128,-1,7
 90 135 90 135 90 254 c 2,8,-1
 90 714 l 1,9,-1
 180 714 l 1,10,-1
 180 251 l 2,11,12
 180 164 180 164 226.5 116 c 128,-1,13
 273 68 273 68 367 68 c 0,14,15
 464 68 464 68 507.5 119.5 c 128,-1,16
 551 171 551 171 551 252 c 2,17,-1
 551 714 l 1,18,-1
 640 714 l 1,0,-1
EndSplineSet
Substitution2: "'c2sc' Capitals to Small Capitals lookup 33 subtable" u.sc
EndChar

StartChar: V
Encoding: 86 86 57
Width: 600
GlyphClass: 2
Flags: W
AnchorPoint: "Anchor-3" 580 714 basechar 0
AnchorPoint: "Anchor-2" 303 714 basechar 0
AnchorPoint: "Anchor-0" 299 0 basechar 0
LayerCount: 2
Fore
SplineSet
600 714 m 1,0,-1
 345 0 l 1,1,-1
 255 0 l 1,2,-1
 0 714 l 1,3,-1
 94 714 l 1,4,-1
 255 256 l 2,5,6
 271 212 271 212 281.5 173.5 c 128,-1,7
 292 135 292 135 300 100 c 1,8,9
 307 135 307 135 318 174 c 128,-1,10
 329 213 329 213 345 258 c 2,11,-1
 505 714 l 1,12,-1
 600 714 l 1,0,-1
EndSplineSet
Substitution2: "'c2sc' Capitals to Small Capitals lookup 33 subtable" v.sc
EndChar

StartChar: W
Encoding: 87 87 58
Width: 930
GlyphClass: 2
Flags: W
AnchorPoint: "Anchor-3" 910 714 basechar 0
AnchorPoint: "Anchor-2" 465 714 basechar 0
AnchorPoint: "Anchor-0" 458 0 basechar 0
LayerCount: 2
Fore
SplineSet
917 714 m 1,0,-1
 727 0 l 1,1,-1
 636 0 l 1,2,-1
 497 468 l 2,3,4
 488 496 488 496 480.5 525.5 c 128,-1,5
 473 555 473 555 467.5 577.5 c 128,-1,6
 462 600 462 600 461 609 c 1,7,8
 460 596 460 596 450 553.5 c 128,-1,9
 440 511 440 511 427 465 c 2,10,-1
 292 0 l 1,11,-1
 201 0 l 1,12,-1
 12 714 l 1,13,-1
 106 714 l 1,14,-1
 217 278 l 2,15,16
 229 232 229 232 237.5 189 c 128,-1,17
 246 146 246 146 251 108 c 1,18,19
 256 147 256 147 266 193 c 128,-1,20
 276 239 276 239 289 283 c 2,21,-1
 415 714 l 1,22,-1
 508 714 l 1,23,-1
 639 280 l 2,24,25
 653 234 653 234 663 188 c 128,-1,26
 673 142 673 142 678 108 c 1,27,28
 682 145 682 145 691.5 188.5 c 128,-1,29
 701 232 701 232 713 279 c 2,30,-1
 823 714 l 1,31,-1
 917 714 l 1,0,-1
EndSplineSet
Substitution2: "'c2sc' Capitals to Small Capitals lookup 33 subtable" w.sc
EndChar

StartChar: X
Encoding: 88 88 59
Width: 586
GlyphClass: 2
Flags: W
AnchorPoint: "Anchor-3" 566 714 basechar 0
AnchorPoint: "Anchor-2" 292 714 basechar 0
AnchorPoint: "Anchor-0" 293 0 basechar 0
LayerCount: 2
Fore
SplineSet
582 0 m 1,0,-1
 480 0 l 1,1,-1
 291 310 l 1,2,-1
 99 0 l 1,3,-1
 4 0 l 1,4,-1
 241 372 l 1,5,-1
 19 714 l 1,6,-1
 119 714 l 1,7,-1
 294 434 l 1,8,-1
 470 714 l 1,9,-1
 565 714 l 1,10,-1
 344 374 l 1,11,-1
 582 0 l 1,0,-1
EndSplineSet
Substitution2: "'c2sc' Capitals to Small Capitals lookup 33 subtable" x.sc
EndChar

StartChar: Y
Encoding: 89 89 60
Width: 566
GlyphClass: 2
Flags: W
AnchorPoint: "Anchor-3" 546 714 basechar 0
AnchorPoint: "Anchor-2" 283 714 basechar 0
AnchorPoint: "Anchor-0" 283 0 basechar 0
LayerCount: 2
Fore
SplineSet
283 363 m 1,0,-1
 469 714 l 1,1,-1
 566 714 l 1,2,-1
 328 277 l 1,3,-1
 328 0 l 1,4,-1
 238 0 l 1,5,-1
 238 273 l 1,6,-1
 0 714 l 1,7,-1
 98 714 l 1,8,-1
 283 363 l 1,0,-1
EndSplineSet
Substitution2: "'c2sc' Capitals to Small Capitals lookup 33 subtable" y.sc
EndChar

StartChar: Z
Encoding: 90 90 61
Width: 572
GlyphClass: 2
Flags: W
AnchorPoint: "Anchor-3" 552 714 basechar 0
AnchorPoint: "Anchor-2" 290 714 basechar 0
AnchorPoint: "Anchor-0" 297 0 basechar 0
LayerCount: 2
Fore
SplineSet
533 0 m 1,0,-1
 38 0 l 1,1,-1
 38 68 l 1,2,-1
 414 634 l 1,3,-1
 50 634 l 1,4,-1
 50 714 l 1,5,-1
 523 714 l 1,6,-1
 523 646 l 1,7,-1
 147 80 l 1,8,-1
 533 80 l 1,9,-1
 533 0 l 1,0,-1
EndSplineSet
Substitution2: "'c2sc' Capitals to Small Capitals lookup 33 subtable" z.sc
EndChar

StartChar: bracketleft
Encoding: 91 91 62
Width: 329
Flags: W
LayerCount: 2
Fore
SplineSet
304 -158 m 1,0,-1
 80 -158 l 1,1,-1
 80 714 l 1,2,-1
 304 714 l 1,3,-1
 304 642 l 1,4,-1
 166 642 l 1,5,-1
 166 -86 l 1,6,-1
 304 -86 l 1,7,-1
 304 -158 l 1,0,-1
EndSplineSet
Substitution2: "'smcp' Lowercase to Small Capitals lookup 34 subtable" bracketleft.sc
Substitution2: "'c2sc' Capitals to Small Capitals lookup 33 subtable" bracketleft.sc
EndChar

StartChar: backslash
Encoding: 92 92 63
Width: 372
Flags: W
LayerCount: 2
Fore
SplineSet
96 714 m 1,0,-1
 363 0 l 1,1,-1
 276 0 l 1,2,-1
 10 714 l 1,3,-1
 96 714 l 1,0,-1
EndSplineSet
EndChar

StartChar: bracketright
Encoding: 93 93 64
Width: 329
Flags: W
LayerCount: 2
Fore
SplineSet
25 -86 m 1,0,-1
 163 -86 l 1,1,-1
 163 642 l 1,2,-1
 25 642 l 1,3,-1
 25 714 l 1,4,-1
 249 714 l 1,5,-1
 249 -158 l 1,6,-1
 25 -158 l 1,7,-1
 25 -86 l 1,0,-1
EndSplineSet
Substitution2: "'smcp' Lowercase to Small Capitals lookup 34 subtable" bracketright.sc
Substitution2: "'c2sc' Capitals to Small Capitals lookup 33 subtable" bracketright.sc
EndChar

StartChar: asciicircum
Encoding: 94 94 65
Width: 572
Flags: W
LayerCount: 2
Fore
SplineSet
38 267 m 1,0,-1
 250 719 l 1,1,-1
 300 719 l 1,2,-1
 534 267 l 1,3,-1
 456 267 l 1,4,-1
 276 626 l 1,5,-1
 116 267 l 1,6,-1
 38 267 l 1,0,-1
EndSplineSet
EndChar

StartChar: underscore
Encoding: 95 95 66
Width: 444
Flags: W
LayerCount: 2
Fore
SplineSet
446 -154 m 1,0,-1
 -2 -154 l 1,1,-1
 -2 -90 l 1,2,-1
 446 -90 l 1,3,-1
 446 -154 l 1,0,-1
EndSplineSet
EndChar

StartChar: grave
Encoding: 96 96 67
Width: 281
Flags: W
LayerCount: 2
Fore
SplineSet
145 766 m 1,0,1
 156 744 156 744 172.5 716.5 c 128,-1,2
 189 689 189 689 207.5 662.5 c 128,-1,3
 226 636 226 636 241 618 c 1,4,-1
 241 606 l 1,5,-1
 182 606 l 1,6,7
 159 624 159 624 130 652.5 c 128,-1,8
 101 681 101 681 76.5 709.5 c 128,-1,9
 52 738 52 738 40 756 c 1,10,-1
 40 766 l 1,11,-1
 145 766 l 1,0,1
EndSplineSet
EndChar

StartChar: a
Encoding: 97 97 68
Width: 561
GlyphClass: 2
Flags: W
AnchorPoint: "Anchor-3" 511 536 basechar 0
AnchorPoint: "Anchor-2" 281 536 basechar 0
AnchorPoint: "Anchor-0" 281 0 basechar 0
LayerCount: 2
Fore
SplineSet
288 545 m 0,0,1
 386 545 386 545 433 502 c 128,-1,2
 480 459 480 459 480 365 c 2,3,-1
 480 0 l 1,4,-1
 416 0 l 1,5,-1
 399 76 l 1,6,-1
 395 76 l 1,7,8
 360 32 360 32 321 11 c 128,-1,9
 282 -10 282 -10 215 -10 c 0,10,11
 142 -10 142 -10 94 28.5 c 128,-1,12
 46 67 46 67 46 149 c 0,13,14
 46 229 46 229 109 272.5 c 128,-1,15
 172 316 172 316 303 320 c 2,16,-1
 394 323 l 1,17,-1
 394 355 l 2,18,19
 394 422 394 422 365 448 c 128,-1,20
 336 474 336 474 283 474 c 0,21,22
 241 474 241 474 203 461.5 c 128,-1,23
 165 449 165 449 132 433 c 1,24,-1
 105 499 l 1,25,26
 140 518 140 518 188 531.5 c 128,-1,27
 236 545 236 545 288 545 c 0,0,1
393 262 m 1,28,-1
 314 259 l 2,29,30
 214 255 214 255 175.5 227 c 128,-1,31
 137 199 137 199 137 148 c 0,32,33
 137 103 137 103 164.5 82 c 128,-1,34
 192 61 192 61 235 61 c 0,35,36
 302 61 302 61 347.5 98.5 c 128,-1,37
 393 136 393 136 393 214 c 2,38,-1
 393 262 l 1,28,-1
EndSplineSet
Substitution2: "'smcp' Lowercase to Small Capitals lookup 34 subtable" a.sc
Substitution2: "Single Substitution lookup 28 subtable" ordfeminine
EndChar

StartChar: b
Encoding: 98 98 69
Width: 615
GlyphClass: 2
Flags: W
AnchorPoint: "Anchor-3" 515 760 basechar 0
AnchorPoint: "Anchor-2" 338 760 basechar 0
AnchorPoint: "Anchor-0" 322 0 basechar 0
LayerCount: 2
Fore
SplineSet
173 760 m 1,0,-1
 173 575 l 2,1,2
 173 541 173 541 171.5 511.5 c 128,-1,3
 170 482 170 482 168 465 c 1,4,-1
 173 465 l 1,5,6
 196 499 196 499 236 522 c 128,-1,7
 276 545 276 545 339 545 c 0,8,9
 439 545 439 545 499.5 475.5 c 128,-1,10
 560 406 560 406 560 268 c 256,11,12
 560 130 560 130 499 60 c 128,-1,13
 438 -10 438 -10 339 -10 c 0,14,15
 276 -10 276 -10 236 13 c 128,-1,16
 196 36 196 36 173 68 c 1,17,-1
 166 68 l 1,18,-1
 148 0 l 1,19,-1
 85 0 l 1,20,-1
 85 760 l 1,21,-1
 173 760 l 1,0,-1
324 472 m 0,22,23
 238 472 238 472 205.5 423 c 128,-1,24
 173 374 173 374 173 271 c 2,25,-1
 173 267 l 2,26,27
 173 168 173 168 205.5 115.5 c 128,-1,28
 238 63 238 63 326 63 c 0,29,30
 398 63 398 63 433.5 116 c 128,-1,31
 469 169 469 169 469 269 c 0,32,33
 469 472 469 472 324 472 c 0,22,23
EndSplineSet
Substitution2: "'smcp' Lowercase to Small Capitals lookup 34 subtable" b.sc
EndChar

StartChar: c
Encoding: 99 99 70
Width: 480
GlyphClass: 2
Flags: W
AnchorPoint: "Anchor-3" 460 536 basechar 0
AnchorPoint: "Anchor-2" 284 536 basechar 0
AnchorPoint: "Anchor-0" 281 0 basechar 0
LayerCount: 2
Fore
SplineSet
300 -10 m 0,0,1
 228 -10 228 -10 173 19 c 128,-1,2
 118 48 118 48 86.5 109 c 128,-1,3
 55 170 55 170 55 265 c 0,4,5
 55 364 55 364 87.5 426 c 128,-1,6
 120 488 120 488 177 517 c 128,-1,7
 234 546 234 546 306 546 c 0,8,9
 346 546 346 546 384.5 537.5 c 128,-1,10
 423 529 423 529 447 517 c 1,11,-1
 420 444 l 1,12,13
 396 453 396 453 364 461 c 128,-1,14
 332 469 332 469 304 469 c 0,15,16
 146 469 146 469 146 266 c 0,17,18
 146 169 146 169 184.5 117.5 c 128,-1,19
 223 66 223 66 299 66 c 0,20,21
 342 66 342 66 376 75 c 128,-1,22
 410 84 410 84 438 97 c 1,23,-1
 438 19 l 1,24,25
 411 5 411 5 378.5 -2.5 c 128,-1,26
 346 -10 346 -10 300 -10 c 0,0,1
EndSplineSet
Substitution2: "'smcp' Lowercase to Small Capitals lookup 34 subtable" c.sc
EndChar

StartChar: d
Encoding: 100 100 71
Width: 615
GlyphClass: 2
Flags: W
AnchorPoint: "Anchor-3" 553 760 basechar 0
AnchorPoint: "Anchor-2" 275 760 basechar 0
AnchorPoint: "Anchor-1" 308 268 basechar 0
AnchorPoint: "Anchor-0" 292 0 basechar 0
LayerCount: 2
Fore
SplineSet
275 -10 m 0,0,1
 175 -10 175 -10 115 59.5 c 128,-1,2
 55 129 55 129 55 267 c 256,3,4
 55 405 55 405 115.5 475.5 c 128,-1,5
 176 546 176 546 276 546 c 0,6,7
 338 546 338 546 377.5 523 c 128,-1,8
 417 500 417 500 442 467 c 1,9,-1
 448 467 l 1,10,11
 446 480 446 480 444 505.5 c 128,-1,12
 442 531 442 531 442 546 c 2,13,-1
 442 760 l 1,14,-1
 530 760 l 1,15,-1
 530 0 l 1,16,-1
 459 0 l 1,17,-1
 446 72 l 1,18,-1
 442 72 l 1,19,20
 418 38 418 38 378 14 c 128,-1,21
 338 -10 338 -10 275 -10 c 0,0,1
289 63 m 0,22,23
 374 63 374 63 408.5 109.5 c 128,-1,24
 443 156 443 156 443 250 c 2,25,-1
 443 266 l 2,26,27
 443 366 443 366 410 419.5 c 128,-1,28
 377 473 377 473 288 473 c 0,29,30
 217 473 217 473 181.5 416.5 c 128,-1,31
 146 360 146 360 146 265 c 0,32,33
 146 169 146 169 181.5 116 c 128,-1,34
 217 63 217 63 289 63 c 0,22,23
EndSplineSet
Substitution2: "'smcp' Lowercase to Small Capitals lookup 34 subtable" d.sc
EndChar

StartChar: e
Encoding: 101 101 72
Width: 564
GlyphClass: 2
Flags: W
AnchorPoint: "Anchor-3" 544 536 basechar 0
AnchorPoint: "Anchor-2" 285 536 basechar 0
AnchorPoint: "Anchor-0" 301 0 basechar 0
LayerCount: 2
Fore
SplineSet
292 546 m 0,0,1
 360 546 360 546 410 516 c 128,-1,2
 460 486 460 486 486.5 431.5 c 128,-1,3
 513 377 513 377 513 304 c 2,4,-1
 513 251 l 1,5,-1
 146 251 l 1,6,7
 148 160 148 160 192.5 112.5 c 128,-1,8
 237 65 237 65 317 65 c 0,9,10
 368 65 368 65 407.5 74.5 c 128,-1,11
 447 84 447 84 489 102 c 1,12,-1
 489 25 l 1,13,14
 448 7 448 7 408 -1.5 c 128,-1,15
 368 -10 368 -10 313 -10 c 0,16,17
 236 -10 236 -10 178 21 c 128,-1,18
 120 52 120 52 87.5 113 c 128,-1,19
 55 174 55 174 55 264 c 0,20,21
 55 352 55 352 84.5 415 c 128,-1,22
 114 478 114 478 167.5 512 c 128,-1,23
 221 546 221 546 292 546 c 0,0,1
291 474 m 0,24,25
 228 474 228 474 191.5 433.5 c 128,-1,26
 155 393 155 393 148 321 c 1,27,-1
 421 321 l 1,28,29
 420 389 420 389 389 431.5 c 128,-1,30
 358 474 358 474 291 474 c 0,24,25
EndSplineSet
Substitution2: "'smcp' Lowercase to Small Capitals lookup 34 subtable" e.sc
EndChar

StartChar: f
Encoding: 102 102 73
Width: 344
GlyphClass: 2
Flags: W
AnchorPoint: "Anchor-3" 380 765 basechar 0
AnchorPoint: "Anchor-2" 252 765 basechar 0
AnchorPoint: "Anchor-0" 153 0 basechar 0
LayerCount: 2
Fore
SplineSet
332 468 m 1,0,-1
 197 468 l 1,1,-1
 197 0 l 1,2,-1
 109 0 l 1,3,-1
 109 468 l 1,4,-1
 15 468 l 1,5,-1
 15 509 l 1,6,-1
 109 539 l 1,7,-1
 109 570 l 2,8,9
 109 674 109 674 154.5 719.5 c 128,-1,10
 200 765 200 765 283 765 c 0,11,12
 314 765 314 765 341 759.5 c 128,-1,13
 368 754 368 754 387 747 c 1,14,-1
 364 678 l 1,15,16
 348 683 348 683 327 688 c 128,-1,17
 306 693 306 693 284 693 c 0,18,19
 240 693 240 693 218.5 663.5 c 128,-1,20
 197 634 197 634 197 571 c 2,21,-1
 197 536 l 1,22,-1
 332 536 l 1,23,-1
 332 468 l 1,0,-1
EndSplineSet
Substitution2: "'smcp' Lowercase to Small Capitals lookup 34 subtable" f.sc
EndChar

StartChar: g
Encoding: 103 103 74
Width: 615
GlyphClass: 2
Flags: W
AnchorPoint: "Anchor-3" 555 536 basechar 0
AnchorPoint: "Anchor-2" 297 536 basechar 0
AnchorPoint: "Anchor-0" 298 -240 basechar 0
LayerCount: 2
Fore
SplineSet
275 546 m 0,0,1
 328 546 328 546 370.5 526 c 128,-1,2
 413 506 413 506 443 465 c 1,3,-1
 448 465 l 1,4,-1
 460 536 l 1,5,-1
 530 536 l 1,6,-1
 530 -9 l 2,7,8
 530 -124 530 -124 471.5 -182 c 128,-1,9
 413 -240 413 -240 290 -240 c 0,10,11
 172 -240 172 -240 97 -206 c 1,12,-1
 97 -125 l 1,13,14
 176 -167 176 -167 295 -167 c 0,15,16
 364 -167 364 -167 403.5 -126.5 c 128,-1,17
 443 -86 443 -86 443 -16 c 2,18,-1
 443 5 l 2,19,20
 443 17 443 17 444 39.5 c 128,-1,21
 445 62 445 62 446 71 c 1,22,-1
 442 71 l 1,23,24
 388 -10 388 -10 276 -10 c 0,25,26
 172 -10 172 -10 113.5 63 c 128,-1,27
 55 136 55 136 55 267 c 0,28,29
 55 395 55 395 113.5 470.5 c 128,-1,30
 172 546 172 546 275 546 c 0,0,1
287 472 m 0,31,32
 220 472 220 472 183 418.5 c 128,-1,33
 146 365 146 365 146 266 c 256,34,35
 146 167 146 167 182 114.5 c 128,-1,36
 218 62 218 62 289 62 c 0,37,38
 370 62 370 62 407 105.5 c 128,-1,39
 444 149 444 149 444 246 c 2,40,-1
 444 267 l 2,41,42
 444 376 444 376 406 424 c 128,-1,43
 368 472 368 472 287 472 c 0,31,32
EndSplineSet
Substitution2: "'smcp' Lowercase to Small Capitals lookup 34 subtable" g.sc
EndChar

StartChar: h
Encoding: 104 104 75
Width: 618
GlyphClass: 2
Flags: W
AnchorPoint: "Anchor-3" 535 760 basechar 0
AnchorPoint: "Anchor-2" 130 760 basechar 0
AnchorPoint: "Anchor-1" 309 268 basechar 0
AnchorPoint: "Anchor-0" 310 0 basechar 0
LayerCount: 2
Fore
SplineSet
173 760 m 1,0,-1
 173 537 l 2,1,2
 173 497 173 497 168 462 c 1,3,-1
 174 462 l 1,4,5
 200 503 200 503 244.5 524 c 128,-1,6
 289 545 289 545 341 545 c 0,7,8
 438 545 438 545 487.5 498.5 c 128,-1,9
 537 452 537 452 537 349 c 2,10,-1
 537 0 l 1,11,-1
 450 0 l 1,12,-1
 450 343 l 2,13,14
 450 472 450 472 330 472 c 0,15,16
 240 472 240 472 206.5 421.5 c 128,-1,17
 173 371 173 371 173 277 c 2,18,-1
 173 0 l 1,19,-1
 85 0 l 1,20,-1
 85 760 l 1,21,-1
 173 760 l 1,0,-1
EndSplineSet
Substitution2: "'smcp' Lowercase to Small Capitals lookup 34 subtable" h.sc
Substitution2: "'subs' Subscript lookup 18 subtable" uni2095
EndChar

StartChar: i
Encoding: 105 105 76
Width: 258
GlyphClass: 2
Flags: W
AnchorPoint: "Anchor-3" 238 737 basechar 0
AnchorPoint: "Anchor-2" 129 737 basechar 0
AnchorPoint: "Anchor-0" 131 0 basechar 0
LayerCount: 2
Fore
SplineSet
130 737 m 0,0,1
 150 737 150 737 165.5 723.5 c 128,-1,2
 181 710 181 710 181 681 c 256,3,4
 181 652 181 652 165.5 638.5 c 128,-1,5
 150 625 150 625 130 625 c 0,6,7
 108 625 108 625 93 638.5 c 128,-1,8
 78 652 78 652 78 681 c 256,9,10
 78 710 78 710 93 723.5 c 128,-1,11
 108 737 108 737 130 737 c 0,0,1
173 536 m 1,12,-1
 173 0 l 1,13,-1
 85 0 l 1,14,-1
 85 536 l 1,15,-1
 173 536 l 1,12,-1
EndSplineSet
Substitution2: "'smcp' Lowercase to Small Capitals lookup 34 subtable" i.sc
Substitution2: "Single Substitution lookup 5 subtable" dotlessi
Substitution2: "Single Substitution lookup 4 subtable" dotlessi
EndChar

StartChar: j
Encoding: 106 106 77
Width: 258
GlyphClass: 2
Flags: W
AnchorPoint: "Anchor-3" 238 737 basechar 0
AnchorPoint: "Anchor-2" 129 737 basechar 0
AnchorPoint: "Anchor-0" 22 -240 basechar 0
LayerCount: 2
Fore
SplineSet
78 681 m 256,0,1
 78 710 78 710 93 723.5 c 128,-1,2
 108 737 108 737 130 737 c 0,3,4
 150 737 150 737 165.5 723.5 c 128,-1,5
 181 710 181 710 181 681 c 256,6,7
 181 652 181 652 165.5 638.5 c 128,-1,8
 150 625 150 625 130 625 c 0,9,10
 108 625 108 625 93 638.5 c 128,-1,11
 78 652 78 652 78 681 c 256,0,1
22 -240 m 0,12,13
 -4 -240 -4 -240 -23 -236.5 c 128,-1,14
 -42 -233 -42 -233 -55 -228 c 1,15,-1
 -55 -157 l 1,16,17
 -40 -162 -40 -162 -24 -164.5 c 128,-1,18
 -8 -167 -8 -167 11 -167 c 0,19,20
 43 -167 43 -167 64 -149.5 c 128,-1,21
 85 -132 85 -132 85 -83 c 2,22,-1
 85 536 l 1,23,-1
 173 536 l 1,24,-1
 173 -80 l 2,25,26
 173 -155 173 -155 137 -197.5 c 128,-1,27
 101 -240 101 -240 22 -240 c 0,12,13
EndSplineSet
Substitution2: "'smcp' Lowercase to Small Capitals lookup 34 subtable" j.sc
Substitution2: "Single Substitution lookup 5 subtable" uni0237
Substitution2: "Single Substitution lookup 4 subtable" uni0237
EndChar

StartChar: k
Encoding: 107 107 78
Width: 534
GlyphClass: 2
Flags: W
AnchorPoint: "Anchor-3" 529 760 basechar 0
AnchorPoint: "Anchor-2" 129 760 basechar 0
AnchorPoint: "Anchor-0" 267 0 basechar 0
LayerCount: 2
Fore
SplineSet
172 760 m 1,0,-1
 172 363 l 2,1,2
 172 347 172 347 170.5 321 c 128,-1,3
 169 295 169 295 168 276 c 1,4,-1
 172 276 l 1,5,6
 178 284 178 284 190 299 c 128,-1,7
 202 314 202 314 214.5 329.5 c 128,-1,8
 227 345 227 345 236 355 c 2,9,-1
 407 536 l 1,10,-1
 510 536 l 1,11,-1
 293 307 l 1,12,-1
 525 0 l 1,13,-1
 419 0 l 1,14,-1
 233 250 l 1,15,-1
 172 197 l 1,16,-1
 172 0 l 1,17,-1
 85 0 l 1,18,-1
 85 760 l 1,19,-1
 172 760 l 1,0,-1
EndSplineSet
Substitution2: "'smcp' Lowercase to Small Capitals lookup 34 subtable" k.sc
Substitution2: "'subs' Subscript lookup 18 subtable" uni2096
EndChar

StartChar: l
Encoding: 108 108 79
Width: 258
GlyphClass: 2
Flags: W
AnchorPoint: "Anchor-3" 202 760 basechar 0
AnchorPoint: "Anchor-2" 129 760 basechar 0
AnchorPoint: "Anchor-1" 129 268 basechar 0
AnchorPoint: "Anchor-0" 129 0 basechar 0
LayerCount: 2
Fore
SplineSet
173 0 m 1,0,-1
 85 0 l 1,1,-1
 85 760 l 1,2,-1
 173 760 l 1,3,-1
 173 0 l 1,0,-1
EndSplineSet
Substitution2: "'smcp' Lowercase to Small Capitals lookup 34 subtable" l.sc
Substitution2: "'subs' Subscript lookup 18 subtable" uni2097
EndChar

StartChar: m
Encoding: 109 109 80
Width: 935
GlyphClass: 2
Flags: W
AnchorPoint: "Anchor-3" 885 536 basechar 0
AnchorPoint: "Anchor-2" 479 536 basechar 0
AnchorPoint: "Anchor-0" 471 0 basechar 0
LayerCount: 2
Fore
SplineSet
673 546 m 0,0,1
 764 546 764 546 809 499 c 128,-1,2
 854 452 854 452 854 349 c 2,3,-1
 854 0 l 1,4,-1
 767 0 l 1,5,-1
 767 345 l 2,6,7
 767 472 767 472 658 472 c 0,8,9
 580 472 580 472 546.5 427 c 128,-1,10
 513 382 513 382 513 296 c 2,11,-1
 513 0 l 1,12,-1
 426 0 l 1,13,-1
 426 345 l 2,14,15
 426 472 426 472 316 472 c 0,16,17
 235 472 235 472 204 422 c 128,-1,18
 173 372 173 372 173 278 c 2,19,-1
 173 0 l 1,20,-1
 85 0 l 1,21,-1
 85 536 l 1,22,-1
 156 536 l 1,23,-1
 169 463 l 1,24,-1
 174 463 l 1,25,26
 199 505 199 505 241.5 525.5 c 128,-1,27
 284 546 284 546 332 546 c 0,28,29
 458 546 458 546 496 456 c 1,30,-1
 501 456 l 1,31,32
 528 502 528 502 574 524 c 128,-1,33
 620 546 620 546 673 546 c 0,0,1
EndSplineSet
Substitution2: "'smcp' Lowercase to Small Capitals lookup 34 subtable" m.sc
Substitution2: "'subs' Subscript lookup 18 subtable" uni2098
EndChar

StartChar: n
Encoding: 110 110 81
Width: 618
GlyphClass: 2
Flags: W
AnchorPoint: "Anchor-3" 562 536 basechar 0
AnchorPoint: "Anchor-2" 309 536 basechar 0
AnchorPoint: "Anchor-0" 309 0 basechar 0
LayerCount: 2
Fore
SplineSet
343 546 m 0,0,1
 439 546 439 546 488 499 c 128,-1,2
 537 452 537 452 537 349 c 2,3,-1
 537 0 l 1,4,-1
 450 0 l 1,5,-1
 450 343 l 2,6,7
 450 472 450 472 330 472 c 0,8,9
 241 472 241 472 207 422 c 128,-1,10
 173 372 173 372 173 278 c 2,11,-1
 173 0 l 1,12,-1
 85 0 l 1,13,-1
 85 536 l 1,14,-1
 156 536 l 1,15,-1
 169 463 l 1,16,-1
 174 463 l 1,17,18
 200 505 200 505 246 525.5 c 128,-1,19
 292 546 292 546 343 546 c 0,0,1
EndSplineSet
Substitution2: "'smcp' Lowercase to Small Capitals lookup 34 subtable" n.sc
Substitution2: "'sups' Superscript lookup 19 subtable" nsuperior
Substitution2: "'subs' Subscript lookup 18 subtable" uni2099
EndChar

StartChar: o
Encoding: 111 111 82
Width: 605
GlyphClass: 2
Flags: W
AnchorPoint: "Anchor-3" 575 536 basechar 0
AnchorPoint: "Anchor-2" 303 536 basechar 0
AnchorPoint: "Anchor-1" 303 268 basechar 0
AnchorPoint: "Anchor-0" 301 0 basechar 0
LayerCount: 2
Fore
SplineSet
551 269 m 0,0,1
 551 136 551 136 483.5 63 c 128,-1,2
 416 -10 416 -10 301 -10 c 0,3,4
 230 -10 230 -10 174.5 22.5 c 128,-1,5
 119 55 119 55 87 117.5 c 128,-1,6
 55 180 55 180 55 269 c 0,7,8
 55 402 55 402 121.5 474 c 128,-1,9
 188 546 188 546 304 546 c 0,10,11
 376 546 376 546 432 513.5 c 128,-1,12
 488 481 488 481 519.5 419.5 c 128,-1,13
 551 358 551 358 551 269 c 0,0,1
146 269 m 256,14,15
 146 174 146 174 183.5 118.5 c 128,-1,16
 221 63 221 63 303 63 c 0,17,18
 384 63 384 63 422 118.5 c 128,-1,19
 460 174 460 174 460 269 c 256,20,21
 460 364 460 364 422 418 c 128,-1,22
 384 472 384 472 302 472 c 256,23,24
 220 472 220 472 183 418 c 128,-1,25
 146 364 146 364 146 269 c 256,14,15
EndSplineSet
Substitution2: "'smcp' Lowercase to Small Capitals lookup 34 subtable" o.sc
Substitution2: "Single Substitution lookup 28 subtable" ordmasculine
EndChar

StartChar: p
Encoding: 112 112 83
Width: 615
GlyphClass: 2
Flags: W
AnchorPoint: "Anchor-3" 585 536 basechar 0
AnchorPoint: "Anchor-2" 332 536 basechar 0
AnchorPoint: "Anchor-0" 129 -240 basechar 0
LayerCount: 2
Fore
SplineSet
340 546 m 0,0,1
 439 546 439 546 499.5 477 c 128,-1,2
 560 408 560 408 560 269 c 0,3,4
 560 132 560 132 499.5 61 c 128,-1,5
 439 -10 439 -10 339 -10 c 0,6,7
 277 -10 277 -10 236.5 13 c 128,-1,8
 196 36 196 36 173 68 c 1,9,-1
 167 68 l 1,10,11
 168 51 168 51 170.5 25 c 128,-1,12
 173 -1 173 -1 173 -20 c 2,13,-1
 173 -240 l 1,14,-1
 85 -240 l 1,15,-1
 85 536 l 1,16,-1
 157 536 l 1,17,-1
 169 463 l 1,18,-1
 173 463 l 1,19,20
 197 498 197 498 236 522 c 128,-1,21
 275 546 275 546 340 546 c 0,0,1
324 472 m 0,22,23
 242 472 242 472 208 426 c 128,-1,24
 174 380 174 380 173 286 c 2,25,-1
 173 269 l 2,26,27
 173 170 173 170 205.5 116.5 c 128,-1,28
 238 63 238 63 326 63 c 0,29,30
 374 63 374 63 406 89.5 c 128,-1,31
 438 116 438 116 453.5 163 c 128,-1,32
 469 210 469 210 469 270 c 0,33,34
 469 362 469 362 433.5 417 c 128,-1,35
 398 472 398 472 324 472 c 0,22,23
EndSplineSet
Substitution2: "'smcp' Lowercase to Small Capitals lookup 34 subtable" p.sc
Substitution2: "'subs' Subscript lookup 18 subtable" uni209A
EndChar

StartChar: q
Encoding: 113 113 84
Width: 615
GlyphClass: 2
Flags: W
AnchorPoint: "Anchor-3" 555 536 basechar 0
AnchorPoint: "Anchor-2" 308 536 basechar 0
AnchorPoint: "Anchor-0" 486 -240 basechar 0
LayerCount: 2
Fore
SplineSet
442 -240 m 1,0,-1
 442 -11 l 2,1,2
 442 7 442 7 443 31 c 128,-1,3
 444 55 444 55 447 72 c 1,4,-1
 441 72 l 1,5,6
 418 38 418 38 377.5 14 c 128,-1,7
 337 -10 337 -10 273 -10 c 0,8,9
 176 -10 176 -10 115.5 59.5 c 128,-1,10
 55 129 55 129 55 267 c 256,11,12
 55 405 55 405 116.5 475.5 c 128,-1,13
 178 546 178 546 276 546 c 0,14,15
 339 546 339 546 379 522 c 128,-1,16
 419 498 419 498 443 463 c 1,17,-1
 447 463 l 1,18,-1
 460 536 l 1,19,-1
 530 536 l 1,20,-1
 530 -240 l 1,21,-1
 442 -240 l 1,0,-1
290 63 m 0,22,23
 372 63 372 63 407 108.5 c 128,-1,24
 442 154 442 154 443 248 c 2,25,-1
 443 266 l 2,26,27
 443 368 443 368 409 420.5 c 128,-1,28
 375 473 375 473 288 473 c 0,29,30
 216 473 216 473 181 416.5 c 128,-1,31
 146 360 146 360 146 265 c 256,32,33
 146 170 146 170 181 116.5 c 128,-1,34
 216 63 216 63 290 63 c 0,22,23
EndSplineSet
Substitution2: "'smcp' Lowercase to Small Capitals lookup 34 subtable" q.sc
EndChar

StartChar: r
Encoding: 114 114 85
Width: 413
GlyphClass: 2
Flags: W
AnchorPoint: "Anchor-3" 393 536 basechar 0
AnchorPoint: "Anchor-2" 240 536 basechar 0
AnchorPoint: "Anchor-0" 126 0 basechar 0
LayerCount: 2
Fore
SplineSet
335 546 m 0,0,1
 350 546 350 546 367 544.5 c 128,-1,2
 384 543 384 543 398 540 c 1,3,-1
 387 459 l 1,4,5
 374 462 374 462 358 464 c 128,-1,6
 342 466 342 466 329 466 c 0,7,8
 288 466 288 466 252 443.5 c 128,-1,9
 216 421 216 421 194.5 380.5 c 128,-1,10
 173 340 173 340 173 286 c 2,11,-1
 173 0 l 1,12,-1
 85 0 l 1,13,-1
 85 536 l 1,14,-1
 157 536 l 1,15,-1
 167 438 l 1,16,-1
 171 438 l 1,17,18
 196 482 196 482 237.5 514 c 128,-1,19
 279 546 279 546 335 546 c 0,0,1
EndSplineSet
Substitution2: "'smcp' Lowercase to Small Capitals lookup 34 subtable" r.sc
EndChar

StartChar: s
Encoding: 115 115 86
Width: 479
GlyphClass: 2
Flags: W
AnchorPoint: "Anchor-3" 439 536 basechar 0
AnchorPoint: "Anchor-2" 240 536 basechar 0
AnchorPoint: "Anchor-0" 240 0 basechar 0
LayerCount: 2
Fore
SplineSet
434 148 m 0,0,1
 434 70 434 70 376 30 c 128,-1,2
 318 -10 318 -10 220 -10 c 0,3,4
 164 -10 164 -10 123.5 -1 c 128,-1,5
 83 8 83 8 52 24 c 1,6,-1
 52 104 l 1,7,8
 84 88 84 88 129.5 74.5 c 128,-1,9
 175 61 175 61 222 61 c 0,10,11
 289 61 289 61 319 82.5 c 128,-1,12
 349 104 349 104 349 140 c 0,13,14
 349 160 349 160 338 176 c 128,-1,15
 327 192 327 192 298.5 208 c 128,-1,16
 270 224 270 224 217 244 c 0,17,18
 165 264 165 264 128 284 c 128,-1,19
 91 304 91 304 71 332 c 128,-1,20
 51 360 51 360 51 404 c 0,21,22
 51 472 51 472 106.5 509 c 128,-1,23
 162 546 162 546 252 546 c 0,24,25
 301 546 301 546 343.5 536 c 128,-1,26
 386 526 386 526 423 510 c 1,27,-1
 393 440 l 1,28,29
 359 454 359 454 322 464 c 128,-1,30
 285 474 285 474 246 474 c 0,31,32
 192 474 192 474 163.5 456.5 c 128,-1,33
 135 439 135 439 135 409 c 0,34,35
 135 386 135 386 148 371 c 128,-1,36
 161 356 161 356 191.5 341 c 128,-1,37
 222 326 222 326 273 307 c 256,38,39
 324 288 324 288 360 268 c 128,-1,40
 396 248 396 248 415 219.5 c 128,-1,41
 434 191 434 191 434 148 c 0,0,1
EndSplineSet
Substitution2: "'smcp' Lowercase to Small Capitals lookup 34 subtable" s.sc
Substitution2: "'subs' Subscript lookup 18 subtable" uni209B
EndChar

StartChar: t
Encoding: 116 116 87
Width: 361
GlyphClass: 2
Flags: W
AnchorPoint: "Anchor-3" 335 659 basechar 0
AnchorPoint: "Anchor-2" 154 659 basechar 0
AnchorPoint: "Anchor-1" 181 268 basechar 0
AnchorPoint: "Anchor-0" 214 0 basechar 0
LayerCount: 2
Fore
SplineSet
264 62 m 0,0,1
 284 62 284 62 305 65 c 128,-1,2
 326 68 326 68 339 73 c 1,3,-1
 339 6 l 1,4,5
 325 -1 325 -1 299 -5.5 c 128,-1,6
 273 -10 273 -10 249 -10 c 0,7,8
 207 -10 207 -10 171.5 4.5 c 128,-1,9
 136 19 136 19 114 55 c 128,-1,10
 92 91 92 91 92 156 c 2,11,-1
 92 468 l 1,12,-1
 16 468 l 1,13,-1
 16 510 l 1,14,-1
 93 545 l 1,15,-1
 128 659 l 1,16,-1
 180 659 l 1,17,-1
 180 536 l 1,18,-1
 335 536 l 1,19,-1
 335 468 l 1,20,-1
 180 468 l 1,21,-1
 180 158 l 2,22,23
 180 109 180 109 203.5 85.5 c 128,-1,24
 227 62 227 62 264 62 c 0,0,1
EndSplineSet
Substitution2: "'smcp' Lowercase to Small Capitals lookup 34 subtable" t.sc
Substitution2: "'subs' Subscript lookup 18 subtable" uni209C
EndChar

StartChar: u
Encoding: 117 117 88
Width: 618
GlyphClass: 2
Flags: W
AnchorPoint: "Anchor-3" 562 536 basechar 0
AnchorPoint: "Anchor-2" 309 536 basechar 0
AnchorPoint: "Anchor-0" 294 0 basechar 0
LayerCount: 2
Fore
SplineSet
533 536 m 1,0,-1
 533 0 l 1,1,-1
 461 0 l 1,2,-1
 448 71 l 1,3,-1
 444 71 l 1,4,5
 418 29 418 29 372 9.5 c 128,-1,6
 326 -10 326 -10 274 -10 c 0,7,8
 177 -10 177 -10 128 36.5 c 128,-1,9
 79 83 79 83 79 185 c 2,10,-1
 79 536 l 1,11,-1
 168 536 l 1,12,-1
 168 191 l 2,13,14
 168 63 168 63 287 63 c 0,15,16
 376 63 376 63 410.5 113 c 128,-1,17
 445 163 445 163 445 257 c 2,18,-1
 445 536 l 1,19,-1
 533 536 l 1,0,-1
EndSplineSet
Substitution2: "'smcp' Lowercase to Small Capitals lookup 34 subtable" u.sc
EndChar

StartChar: v
Encoding: 118 118 89
Width: 508
GlyphClass: 2
Flags: W
AnchorPoint: "Anchor-3" 488 536 basechar 0
AnchorPoint: "Anchor-2" 252 536 basechar 0
AnchorPoint: "Anchor-0" 252 0 basechar 0
LayerCount: 2
Fore
SplineSet
203 0 m 1,0,-1
 0 536 l 1,1,-1
 94 536 l 1,2,-1
 208 220 l 2,3,4
 216 198 216 198 225 171 c 128,-1,5
 234 144 234 144 241 119 c 128,-1,6
 248 94 248 94 251 78 c 1,7,-1
 255 78 l 1,8,9
 258 94 258 94 266 119.5 c 128,-1,10
 274 145 274 145 283 171.5 c 128,-1,11
 292 198 292 198 300 220 c 2,12,-1
 414 536 l 1,13,-1
 508 536 l 1,14,-1
 304 0 l 1,15,-1
 203 0 l 1,0,-1
EndSplineSet
Substitution2: "'smcp' Lowercase to Small Capitals lookup 34 subtable" v.sc
EndChar

StartChar: w
Encoding: 119 119 90
Width: 786
GlyphClass: 2
Flags: W
AnchorPoint: "Anchor-3" 766 536 basechar 0
AnchorPoint: "Anchor-2" 393 536 basechar 0
AnchorPoint: "Anchor-0" 391 0 basechar 0
LayerCount: 2
Fore
SplineSet
523 1 m 1,0,-1
 431 303 l 2,1,2
 418 344 418 344 408 383 c 128,-1,3
 398 422 398 422 394 445 c 1,4,-1
 390 445 l 1,5,6
 386 422 386 422 377 383 c 128,-1,7
 368 344 368 344 354 302 c 2,8,-1
 258 1 l 1,9,-1
 158 1 l 1,10,-1
 11 537 l 1,11,-1
 102 537 l 1,12,-1
 176 251 l 2,13,14
 187 208 187 208 197 164 c 128,-1,15
 207 120 207 120 211 91 c 1,16,-1
 215 91 l 1,17,18
 218 108 218 108 224 133 c 128,-1,19
 230 158 230 158 237 185.5 c 128,-1,20
 244 213 244 213 251 235 c 2,21,-1
 346 537 l 1,22,-1
 442 537 l 1,23,-1
 534 235 l 2,24,25
 544 200 544 200 555 160 c 128,-1,26
 566 120 566 120 570 92 c 1,27,-1
 574 92 l 1,28,29
 577 117 577 117 587.5 161 c 128,-1,30
 598 205 598 205 610 251 c 2,31,-1
 685 537 l 1,32,-1
 775 537 l 1,33,-1
 626 1 l 1,34,-1
 523 1 l 1,0,-1
EndSplineSet
Substitution2: "'smcp' Lowercase to Small Capitals lookup 34 subtable" w.sc
EndChar

StartChar: x
Encoding: 120 120 91
Width: 529
GlyphClass: 2
Flags: W
AnchorPoint: "Anchor-3" 509 536 basechar 0
AnchorPoint: "Anchor-2" 263 536 basechar 0
AnchorPoint: "Anchor-0" 265 0 basechar 0
LayerCount: 2
Fore
SplineSet
212 274 m 1,0,-1
 27 536 l 1,1,-1
 127 536 l 1,2,-1
 265 334 l 1,3,-1
 402 536 l 1,4,-1
 501 536 l 1,5,-1
 316 274 l 1,6,-1
 511 0 l 1,7,-1
 411 0 l 1,8,-1
 265 214 l 1,9,-1
 117 0 l 1,10,-1
 18 0 l 1,11,-1
 212 274 l 1,0,-1
EndSplineSet
Substitution2: "'smcp' Lowercase to Small Capitals lookup 34 subtable" x.sc
EndChar

StartChar: y
Encoding: 121 121 92
Width: 510
GlyphClass: 2
Flags: W
AnchorPoint: "Anchor-3" 490 536 basechar 0
AnchorPoint: "Anchor-2" 255 536 basechar 0
AnchorPoint: "Anchor-0" 94 -240 basechar 0
LayerCount: 2
Fore
SplineSet
1 536 m 1,0,-1
 95 536 l 1,1,-1
 211 231 l 2,2,3
 226 190 226 190 238 154 c 128,-1,4
 250 118 250 118 256 85 c 1,5,-1
 260 85 l 1,6,7
 266 110 266 110 279 150.5 c 128,-1,8
 292 191 292 191 306 232 c 2,9,-1
 415 536 l 1,10,-1
 510 536 l 1,11,-1
 279 -74 l 2,12,13
 250 -150 250 -150 206 -195 c 128,-1,14
 162 -240 162 -240 84 -240 c 0,15,16
 60 -240 60 -240 42 -237.5 c 128,-1,17
 24 -235 24 -235 11 -232 c 1,18,-1
 11 -162 l 1,19,20
 22 -164 22 -164 37.5 -166 c 128,-1,21
 53 -168 53 -168 70 -168 c 0,22,23
 116 -168 116 -168 144 -142 c 128,-1,24
 172 -116 172 -116 189 -73 c 2,25,-1
 217 -2 l 1,26,-1
 1 536 l 1,0,-1
EndSplineSet
Substitution2: "'smcp' Lowercase to Small Capitals lookup 34 subtable" y.sc
EndChar

StartChar: z
Encoding: 122 122 93
Width: 470
GlyphClass: 2
Flags: W
AnchorPoint: "Anchor-3" 430 536 basechar 0
AnchorPoint: "Anchor-2" 235 536 basechar 0
AnchorPoint: "Anchor-0" 242 0 basechar 0
LayerCount: 2
Fore
SplineSet
431 0 m 1,0,-1
 39 0 l 1,1,-1
 39 58 l 1,2,-1
 327 468 l 1,3,-1
 56 468 l 1,4,-1
 56 536 l 1,5,-1
 424 536 l 1,6,-1
 424 470 l 1,7,-1
 140 68 l 1,8,-1
 431 68 l 1,9,-1
 431 0 l 1,0,-1
EndSplineSet
Substitution2: "'smcp' Lowercase to Small Capitals lookup 34 subtable" z.sc
EndChar

StartChar: braceleft
Encoding: 123 123 94
Width: 380
Flags: W
LayerCount: 2
Fore
SplineSet
348 -158 m 1,0,1
 256 -157 256 -157 203 -118 c 128,-1,2
 150 -79 150 -79 150 1 c 2,3,-1
 150 148 l 2,4,5
 150 199 150 199 118.5 220.5 c 128,-1,6
 87 242 87 242 28 242 c 1,7,-1
 28 315 l 1,8,9
 87 316 87 316 118.5 337 c 128,-1,10
 150 358 150 358 150 408 c 2,11,-1
 150 556 l 2,12,13
 150 636 150 636 205 675 c 128,-1,14
 260 714 260 714 348 714 c 1,15,-1
 348 642 l 1,16,17
 296 640 296 640 266.5 618.5 c 128,-1,18
 237 597 237 597 237 548 c 2,19,-1
 237 404 l 2,20,21
 237 301 237 301 128 282 c 1,22,-1
 128 276 l 1,23,24
 237 257 237 257 237 154 c 2,25,-1
 237 7 l 2,26,27
 237 -42 237 -42 266 -63.5 c 128,-1,28
 295 -85 295 -85 348 -86 c 1,29,-1
 348 -158 l 1,0,1
EndSplineSet
Substitution2: "'smcp' Lowercase to Small Capitals lookup 34 subtable" braceleft.sc
Substitution2: "'c2sc' Capitals to Small Capitals lookup 33 subtable" braceleft.sc
EndChar

StartChar: bar
Encoding: 124 124 95
Width: 551
Flags: W
LayerCount: 2
Fore
SplineSet
239 760 m 1,0,-1
 312 760 l 1,1,-1
 312 -241 l 1,2,-1
 239 -241 l 1,3,-1
 239 760 l 1,0,-1
EndSplineSet
EndChar

StartChar: braceright
Encoding: 125 125 96
Width: 380
Flags: W
LayerCount: 2
Fore
SplineSet
32 -158 m 1,0,-1
 32 -86 l 1,1,2
 84 -84 84 -84 113.5 -62.5 c 128,-1,3
 143 -41 143 -41 143 8 c 2,4,-1
 143 153 l 2,5,6
 143 256 143 256 252 275 c 1,7,-1
 252 281 l 1,8,9
 143 300 143 300 143 403 c 2,10,-1
 143 549 l 2,11,12
 143 598 143 598 114 619.5 c 128,-1,13
 85 641 85 641 32 642 c 1,14,-1
 32 714 l 1,15,16
 124 713 124 713 177 674 c 128,-1,17
 230 635 230 635 230 555 c 2,18,-1
 230 409 l 2,19,20
 230 358 230 358 261.5 336.5 c 128,-1,21
 293 315 293 315 352 315 c 1,22,-1
 352 242 l 1,23,24
 293 241 293 241 261.5 220 c 128,-1,25
 230 199 230 199 230 149 c 2,26,-1
 230 0 l 2,27,28
 230 -80 230 -80 175 -119 c 128,-1,29
 120 -158 120 -158 32 -158 c 1,0,-1
EndSplineSet
Substitution2: "'smcp' Lowercase to Small Capitals lookup 34 subtable" braceright.sc
Substitution2: "'c2sc' Capitals to Small Capitals lookup 33 subtable" braceright.sc
EndChar

StartChar: asciitilde
Encoding: 126 126 97
Width: 572
Flags: W
LayerCount: 2
Fore
SplineSet
269 319 m 0,0,1
 233 335 233 335 209.5 340.5 c 128,-1,2
 186 346 186 346 164 346 c 0,3,4
 136 346 136 346 105 329 c 128,-1,5
 74 312 74 312 50 287 c 1,6,-1
 50 365 l 1,7,8
 98 418 98 418 170 418 c 0,9,10
 198 418 198 418 227 412 c 128,-1,11
 256 406 256 406 302 386 c 0,12,13
 338 370 338 370 361.5 364.5 c 128,-1,14
 385 359 385 359 406 359 c 0,15,16
 435 359 435 359 466 376 c 128,-1,17
 497 393 497 393 521 418 c 1,18,-1
 521 341 l 1,19,20
 472 287 472 287 401 287 c 0,21,22
 372 287 372 287 343 293.5 c 128,-1,23
 314 300 314 300 269 319 c 0,0,1
EndSplineSet
EndChar

StartChar: exclamdown
Encoding: 161 161 99
Width: 269
Flags: W
LayerCount: 2
Fore
SplineSet
196 478 m 0,0,1
 196 440 196 440 178 425.5 c 128,-1,2
 160 411 160 411 134 411 c 256,3,4
 108 411 108 411 90 425.5 c 128,-1,5
 72 440 72 440 72 478 c 0,6,7
 72 514 72 514 90 530 c 128,-1,8
 108 546 108 546 134 546 c 256,9,10
 160 546 160 546 178 530 c 128,-1,11
 196 514 196 514 196 478 c 0,0,1
104 330 m 1,12,-1
 162 330 l 1,13,-1
 187 -182 l 1,14,-1
 79 -182 l 1,15,-1
 104 330 l 1,12,-1
EndSplineSet
Substitution2: "'smcp' Lowercase to Small Capitals lookup 34 subtable" exclamdown.sc
Substitution2: "'c2sc' Capitals to Small Capitals lookup 33 subtable" exclamdown.sc
EndChar

StartChar: cent
Encoding: 162 162 100
Width: 572
Flags: W
LayerCount: 2
Fore
SplineSet
353 724 m 1,0,-1
 353 644 l 1,1,2
 390 642 390 642 425 634 c 128,-1,3
 460 626 460 626 485 615 c 1,4,-1
 459 542 l 1,5,6
 433 552 433 552 400 560 c 128,-1,7
 367 568 367 568 340 568 c 0,8,9
 258 568 258 568 219.5 517 c 128,-1,10
 181 466 181 466 181 363 c 0,11,12
 181 259 181 259 220.5 211.5 c 128,-1,13
 260 164 260 164 336 164 c 0,14,15
 380 164 380 164 412.5 172.5 c 128,-1,16
 445 181 445 181 476 194 c 1,17,-1
 476 117 l 1,18,19
 449 104 449 104 420 96 c 128,-1,20
 391 88 391 88 352 87 c 1,21,-1
 352 -10 l 1,22,-1
 285 -10 l 1,23,-1
 285 90 l 1,24,25
 226 99 226 99 182.5 129 c 128,-1,26
 139 159 139 159 115 215.5 c 128,-1,27
 91 272 91 272 91 362 c 0,28,29
 91 453 91 453 115 511 c 128,-1,30
 139 569 139 569 182.5 600 c 128,-1,31
 226 631 226 631 285 640 c 1,32,-1
 285 724 l 1,33,-1
 353 724 l 1,0,-1
EndSplineSet
EndChar

StartChar: sterling
Encoding: 163 163 101
Width: 572
Flags: W
LayerCount: 2
Fore
SplineSet
334 723 m 0,0,1
 389 723 389 723 432.5 711 c 128,-1,2
 476 699 476 699 511 682 c 1,3,-1
 480 612 l 1,4,5
 450 626 450 626 413 638 c 128,-1,6
 376 650 376 650 336 650 c 0,7,8
 279 650 279 650 249 620.5 c 128,-1,9
 219 591 219 591 219 525 c 2,10,-1
 219 386 l 1,11,-1
 423 386 l 1,12,-1
 423 320 l 1,13,-1
 219 320 l 1,14,-1
 219 216 l 2,15,16
 219 155 219 155 198 125.5 c 128,-1,17
 177 96 177 96 151 80 c 1,18,-1
 535 80 l 1,19,-1
 535 0 l 1,20,-1
 32 0 l 1,21,-1
 32 74 l 1,22,23
 75 84 75 84 103 116.5 c 128,-1,24
 131 149 131 149 131 215 c 2,25,-1
 131 320 l 1,26,-1
 35 320 l 1,27,-1
 35 386 l 1,28,-1
 131 386 l 1,29,-1
 131 534 l 2,30,31
 131 623 131 623 186.5 673 c 128,-1,32
 242 723 242 723 334 723 c 0,0,1
EndSplineSet
EndChar

StartChar: currency
Encoding: 164 164 102
Width: 572
Flags: W
LayerCount: 2
Fore
SplineSet
90 353 m 0,0,1
 90 383 90 383 99.5 411.5 c 128,-1,2
 109 440 109 440 125 463 c 1,3,-1
 59 531 l 1,4,-1
 108 578 l 1,5,-1
 174 514 l 1,6,7
 197 530 197 530 225.5 539.5 c 128,-1,8
 254 549 254 549 286 549 c 0,9,10
 317 549 317 549 344.5 539.5 c 128,-1,11
 372 530 372 530 396 514 c 1,12,-1
 463 578 l 1,13,-1
 511 531 l 1,14,-1
 447 464 l 1,15,16
 462 441 462 441 472 412.5 c 128,-1,17
 482 384 482 384 482 353 c 0,18,19
 482 290 482 290 447 241 c 1,20,-1
 510 175 l 1,21,-1
 463 128 l 1,22,-1
 396 192 l 1,23,24
 373 176 373 176 345 167 c 128,-1,25
 317 158 317 158 286 158 c 0,26,27
 222 158 222 158 174 193 c 1,28,-1
 108 129 l 1,29,-1
 60 176 l 1,30,-1
 125 242 l 1,31,32
 109 265 109 265 99.5 293.5 c 128,-1,33
 90 322 90 322 90 353 c 0,0,1
157 353 m 0,34,35
 157 317 157 317 174 287.5 c 128,-1,36
 191 258 191 258 220.5 241 c 128,-1,37
 250 224 250 224 286 224 c 256,38,39
 322 224 322 224 351.5 241 c 128,-1,40
 381 258 381 258 398.5 287.5 c 128,-1,41
 416 317 416 317 416 353 c 0,42,43
 416 390 416 390 398.5 419.5 c 128,-1,44
 381 449 381 449 351.5 466.5 c 128,-1,45
 322 484 322 484 286 484 c 256,46,47
 250 484 250 484 220.5 466.5 c 128,-1,48
 191 449 191 449 174 419.5 c 128,-1,49
 157 390 157 390 157 353 c 0,34,35
EndSplineSet
EndChar

StartChar: yen
Encoding: 165 165 103
Width: 572
Flags: W
LayerCount: 2
Fore
SplineSet
285 365 m 1,0,-1
 464 714 l 1,1,-1
 556 714 l 1,2,-1
 355 339 l 1,3,-1
 479 339 l 1,4,-1
 479 275 l 1,5,-1
 328 275 l 1,6,-1
 328 193 l 1,7,-1
 479 193 l 1,8,-1
 479 129 l 1,9,-1
 328 129 l 1,10,-1
 328 0 l 1,11,-1
 242 0 l 1,12,-1
 242 129 l 1,13,-1
 91 129 l 1,14,-1
 91 193 l 1,15,-1
 242 193 l 1,16,-1
 242 275 l 1,17,-1
 91 275 l 1,18,-1
 91 339 l 1,19,-1
 213 339 l 1,20,-1
 14 714 l 1,21,-1
 107 714 l 1,22,-1
 285 365 l 1,0,-1
EndSplineSet
EndChar

StartChar: brokenbar
Encoding: 166 166 104
Width: 551
Flags: W
LayerCount: 2
Fore
SplineSet
239 760 m 1,0,-1
 312 760 l 1,1,-1
 312 379 l 1,2,-1
 239 379 l 1,3,-1
 239 760 l 1,0,-1
239 140 m 1,4,-1
 312 140 l 1,5,-1
 312 -241 l 1,6,-1
 239 -241 l 1,7,-1
 239 140 l 1,4,-1
EndSplineSet
EndChar

StartChar: section
Encoding: 167 167 105
Width: 513
Flags: W
LayerCount: 2
Fore
SplineSet
67 395 m 0,0,1
 67 444 67 444 91 475 c 128,-1,2
 115 506 115 506 146 521 c 1,3,4
 110 540 110 540 90 568 c 128,-1,5
 70 596 70 596 70 636 c 0,6,7
 70 696 70 696 121 730.5 c 128,-1,8
 172 765 172 765 267 765 c 0,9,10
 323 765 323 765 361.5 755.5 c 128,-1,11
 400 746 400 746 438 731 c 1,12,-1
 411 664 l 1,13,14
 376 678 376 678 342.5 687.5 c 128,-1,15
 309 697 309 697 261 697 c 0,16,17
 201 697 201 697 176.5 681.5 c 128,-1,18
 152 666 152 666 152 638 c 256,19,20
 152 610 152 610 180 590.5 c 128,-1,21
 208 571 208 571 284 543 c 0,22,23
 361 514 361 514 404 478.5 c 128,-1,24
 447 443 447 443 447 383 c 0,25,26
 447 332 447 332 424 299.5 c 128,-1,27
 401 267 401 267 372 250 c 1,28,29
 407 231 407 231 426.5 204.5 c 128,-1,30
 446 178 446 178 446 140 c 0,31,32
 446 71 446 71 388.5 33 c 128,-1,33
 331 -5 331 -5 228 -5 c 0,34,35
 172 -5 172 -5 131 3.5 c 128,-1,36
 90 12 90 12 59 28 c 1,37,-1
 59 103 l 1,38,39
 91 88 91 88 138 75 c 128,-1,40
 185 62 185 62 232 62 c 0,41,42
 306 62 306 62 334 83 c 128,-1,43
 362 104 362 104 362 133 c 0,44,45
 362 152 362 152 352.5 166 c 128,-1,46
 343 180 343 180 315.5 195 c 128,-1,47
 288 210 288 210 233 231 c 0,48,49
 180 250 180 250 143 271.5 c 128,-1,50
 106 293 106 293 86.5 322 c 128,-1,51
 67 351 67 351 67 395 c 0,0,1
142 405 m 0,52,53
 142 368 142 368 173.5 342.5 c 128,-1,54
 205 317 205 317 285 287 c 2,55,-1
 307 279 l 1,56,57
 330 292 330 292 350.5 314 c 128,-1,58
 371 336 371 336 371 370 c 0,59,60
 371 395 371 395 357.5 415 c 128,-1,61
 344 435 344 435 310 453.5 c 128,-1,62
 276 472 276 472 214 491 c 1,63,64
 186 484 186 484 164 461 c 128,-1,65
 142 438 142 438 142 405 c 0,52,53
EndSplineSet
EndChar

StartChar: dieresis
Encoding: 168 168 106
Width: 580
Flags: W
LayerCount: 2
Fore
SplineSet
149 681 m 0,0,1
 149 707 149 707 162.5 718.5 c 128,-1,2
 176 730 176 730 196 730 c 0,3,4
 215 730 215 730 229 718.5 c 128,-1,5
 243 707 243 707 243 681 c 0,6,7
 243 656 243 656 229 643.5 c 128,-1,8
 215 631 215 631 196 631 c 0,9,10
 176 631 176 631 162.5 643.5 c 128,-1,11
 149 656 149 656 149 681 c 0,0,1
337 681 m 0,12,13
 337 707 337 707 350.5 718.5 c 128,-1,14
 364 730 364 730 383 730 c 256,15,16
 402 730 402 730 416 718.5 c 128,-1,17
 430 707 430 707 430 681 c 0,18,19
 430 656 430 656 416 643.5 c 128,-1,20
 402 631 402 631 383 631 c 256,21,22
 364 631 364 631 350.5 643.5 c 128,-1,23
 337 656 337 656 337 681 c 0,12,13
EndSplineSet
EndChar

StartChar: copyright
Encoding: 169 169 107
Width: 832
Flags: W
LayerCount: 2
Fore
SplineSet
416 -10 m 256,0,1
 336 -10 336 -10 269 17 c 128,-1,2
 202 44 202 44 152.5 93.5 c 128,-1,3
 103 143 103 143 76 210 c 128,-1,4
 49 277 49 277 49 357 c 256,5,6
 49 437 49 437 76 504 c 128,-1,7
 103 571 103 571 152.5 620.5 c 128,-1,8
 202 670 202 670 269 697 c 128,-1,9
 336 724 336 724 416 724 c 0,10,11
 492 724 492 724 558.5 697 c 128,-1,12
 625 670 625 670 675.5 620.5 c 128,-1,13
 726 571 726 571 754.5 504 c 128,-1,14
 783 437 783 437 783 357 c 256,15,16
 783 277 783 277 756 210 c 128,-1,17
 729 143 729 143 679.5 93.5 c 128,-1,18
 630 44 630 44 563 17 c 128,-1,19
 496 -10 496 -10 416 -10 c 256,0,1
416 43 m 0,20,21
 480 43 480 43 536 66 c 128,-1,22
 592 89 592 89 635 131.5 c 128,-1,23
 678 174 678 174 702 231 c 128,-1,24
 726 288 726 288 726 357 c 0,25,26
 726 422 726 422 703 479 c 128,-1,27
 680 536 680 536 638.5 579 c 128,-1,28
 597 622 597 622 540.5 646.5 c 128,-1,29
 484 671 484 671 416 671 c 0,30,31
 326 671 326 671 255.5 630.5 c 128,-1,32
 185 590 185 590 145 519 c 128,-1,33
 105 448 105 448 105 357 c 0,34,35
 105 292 105 292 128 235 c 128,-1,36
 151 178 151 178 192.5 135 c 128,-1,37
 234 92 234 92 291 67.5 c 128,-1,38
 348 43 348 43 416 43 c 0,20,21
431 133 m 0,39,40
 332 133 332 133 283 194.5 c 128,-1,41
 234 256 234 256 234 357 c 0,42,43
 234 422 234 422 257 472.5 c 128,-1,44
 280 523 280 523 325 551.5 c 128,-1,45
 370 580 370 580 435 580 c 256,46,47
 500 580 500 580 558 550 c 1,48,-1
 529 489 l 1,49,50
 479 515 479 515 436 515 c 0,51,52
 377 515 377 515 344.5 472.5 c 128,-1,53
 312 430 312 430 312 357 c 0,54,55
 312 280 312 280 340.5 239 c 128,-1,56
 369 198 369 198 435 198 c 0,57,58
 458 198 458 198 486.5 204.5 c 128,-1,59
 515 211 515 211 540 221 c 1,60,-1
 540 157 l 1,61,62
 516 146 516 146 491 139.5 c 128,-1,63
 466 133 466 133 431 133 c 0,39,40
EndSplineSet
EndChar

StartChar: ordfeminine
Encoding: 170 170 108
Width: 357
Flags: W
LayerCount: 2
Fore
SplineSet
177 722 m 0,0,1
 242 722 242 722 275 695 c 128,-1,2
 308 668 308 668 308 609 c 2,3,-1
 308 389 l 1,4,-1
 261 389 l 1,5,-1
 249 431 l 1,6,7
 229 410 229 410 200.5 396.5 c 128,-1,8
 172 383 172 383 135 383 c 0,9,10
 88 383 88 383 60 407.5 c 128,-1,11
 32 432 32 432 32 482 c 0,12,13
 32 581 32 581 190 587 c 2,14,-1
 246 589 l 1,15,-1
 246 611 l 2,16,17
 246 644 246 644 225 657 c 128,-1,18
 204 670 204 670 175 670 c 0,19,20
 147 670 147 670 121.5 662.5 c 128,-1,21
 96 655 96 655 74 644 c 1,22,-1
 52 693 l 1,23,24
 78 706 78 706 110 714 c 128,-1,25
 142 722 142 722 177 722 c 0,0,1
246 544 m 1,26,-1
 198 542 l 2,27,28
 138 540 138 540 117 524.5 c 128,-1,29
 96 509 96 509 96 482 c 0,30,31
 96 456 96 456 110.5 445 c 128,-1,32
 125 434 125 434 150 434 c 0,33,34
 201 434 201 434 223.5 457.5 c 128,-1,35
 246 481 246 481 246 521 c 2,36,-1
 246 544 l 1,26,-1
EndSplineSet
EndChar

StartChar: guillemotleft
Encoding: 171 171 109
Width: 509
Flags: W
LayerCount: 2
Fore
SplineSet
40 270 m 1,0,-1
 208 471 l 1,1,-1
 271 435 l 1,2,-1
 131 264 l 1,3,-1
 271 93 l 1,4,-1
 208 56 l 1,5,-1
 40 257 l 1,6,-1
 40 270 l 1,0,-1
238 270 m 1,7,-1
 408 471 l 1,8,-1
 470 435 l 1,9,-1
 330 264 l 1,10,-1
 470 93 l 1,11,-1
 408 56 l 1,12,-1
 238 257 l 1,13,-1
 238 270 l 1,7,-1
EndSplineSet
EndChar

StartChar: logicalnot
Encoding: 172 172 110
Width: 572
Flags: W
LayerCount: 2
Fore
SplineSet
520 388 m 1,0,-1
 520 128 l 1,1,-1
 449 128 l 1,2,-1
 449 317 l 1,3,-1
 50 317 l 1,4,-1
 50 388 l 1,5,-1
 520 388 l 1,0,-1
EndSplineSet
EndChar

StartChar: registered
Encoding: 174 174 112
Width: 832
Flags: W
LayerCount: 2
Fore
SplineSet
416 -10 m 256,0,1
 336 -10 336 -10 269 17 c 128,-1,2
 202 44 202 44 152.5 93.5 c 128,-1,3
 103 143 103 143 76 210 c 128,-1,4
 49 277 49 277 49 357 c 256,5,6
 49 437 49 437 76 504 c 128,-1,7
 103 571 103 571 152.5 620.5 c 128,-1,8
 202 670 202 670 269 697 c 128,-1,9
 336 724 336 724 416 724 c 0,10,11
 492 724 492 724 558.5 697 c 128,-1,12
 625 670 625 670 675.5 620.5 c 128,-1,13
 726 571 726 571 754.5 504 c 128,-1,14
 783 437 783 437 783 357 c 256,15,16
 783 277 783 277 756 210 c 128,-1,17
 729 143 729 143 679.5 93.5 c 128,-1,18
 630 44 630 44 563 17 c 128,-1,19
 496 -10 496 -10 416 -10 c 256,0,1
416 43 m 0,20,21
 480 43 480 43 536 66 c 128,-1,22
 592 89 592 89 635 131.5 c 128,-1,23
 678 174 678 174 702 231 c 128,-1,24
 726 288 726 288 726 357 c 0,25,26
 726 422 726 422 703 479 c 128,-1,27
 680 536 680 536 638.5 579 c 128,-1,28
 597 622 597 622 540.5 646.5 c 128,-1,29
 484 671 484 671 416 671 c 0,30,31
 326 671 326 671 255.5 630.5 c 128,-1,32
 185 590 185 590 145 519 c 128,-1,33
 105 448 105 448 105 357 c 0,34,35
 105 292 105 292 128 235 c 128,-1,36
 151 178 151 178 192.5 135 c 128,-1,37
 234 92 234 92 291 67.5 c 128,-1,38
 348 43 348 43 416 43 c 0,20,21
279 138 m 1,39,-1
 279 575 l 1,40,-1
 407 575 l 2,41,42
 489 575 489 575 527 542.5 c 128,-1,43
 565 510 565 510 565 446 c 0,44,45
 565 399 565 399 541 371.5 c 128,-1,46
 517 344 517 344 487 332 c 1,47,-1
 603 138 l 1,48,-1
 517 138 l 1,49,-1
 417 311 l 1,50,-1
 355 311 l 1,51,-1
 355 138 l 1,52,-1
 279 138 l 1,39,-1
355 373 m 1,53,-1
 405 373 l 2,54,55
 444 373 444 373 466 392.5 c 128,-1,56
 488 412 488 412 488 444 c 0,57,58
 488 479 488 479 468 495 c 128,-1,59
 448 511 448 511 404 511 c 2,60,-1
 355 511 l 1,61,-1
 355 373 l 1,53,-1
EndSplineSet
EndChar

StartChar: overscore
Encoding: 175 175 113
Width: 500
Flags: W
LayerCount: 2
Fore
SplineSet
503 760 m 1,0,-1
 -3 760 l 1,1,-1
 -3 826 l 1,2,-1
 503 826 l 1,3,-1
 503 760 l 1,0,-1
EndSplineSet
Substitution2: "'smcp' Lowercase to Small Capitals lookup 34 subtable" overscore.sc
Substitution2: "'c2sc' Capitals to Small Capitals lookup 33 subtable" overscore.sc
EndChar

StartChar: degree
Encoding: 176 176 114
Width: 428
Flags: W
LayerCount: 2
Fore
SplineSet
214 417 m 0,0,1
 142 417 142 417 98.5 459.5 c 128,-1,2
 55 502 55 502 55 570 c 256,3,4
 55 638 55 638 97.5 681 c 128,-1,5
 140 724 140 724 214 724 c 0,6,7
 284 724 284 724 328.5 681 c 128,-1,8
 373 638 373 638 373 570 c 256,9,10
 373 502 373 502 328.5 459.5 c 128,-1,11
 284 417 284 417 214 417 c 0,0,1
215 476 m 0,12,13
 263 476 263 476 285.5 502 c 128,-1,14
 308 528 308 528 308 570 c 0,15,16
 308 614 308 614 284.5 640 c 128,-1,17
 261 666 261 666 215 666 c 0,18,19
 166 666 166 666 143 640 c 128,-1,20
 120 614 120 614 120 570 c 0,21,22
 120 528 120 528 143 502 c 128,-1,23
 166 476 166 476 215 476 c 0,12,13
EndSplineSet
EndChar

StartChar: plusminus
Encoding: 177 177 115
Width: 572
Flags: W
LayerCount: 2
Fore
SplineSet
321 391 m 1,0,-1
 520 391 l 1,1,-1
 520 320 l 1,2,-1
 321 320 l 1,3,-1
 321 114 l 1,4,-1
 249 114 l 1,5,-1
 249 320 l 1,6,-1
 50 320 l 1,7,-1
 50 391 l 1,8,-1
 249 391 l 1,9,-1
 249 598 l 1,10,-1
 321 598 l 1,11,-1
 321 391 l 1,0,-1
50 0 m 1,12,-1
 50 71 l 1,13,-1
 521 71 l 1,14,-1
 521 0 l 1,15,-1
 50 0 l 1,12,-1
EndSplineSet
EndChar

StartChar: uni00B2
Encoding: 178 178 116
Width: 350
Flags: W
LayerCount: 2
Fore
SplineSet
306 416 m 1,0,-1
 24 416 l 1,1,-1
 24 470 l 1,2,-1
 139 582 l 2,3,4
 180 621 180 621 200.5 645.5 c 128,-1,5
 221 670 221 670 228.5 689 c 128,-1,6
 236 708 236 708 236 731 c 0,7,8
 236 762 236 762 217.5 778.5 c 128,-1,9
 199 795 199 795 169 795 c 256,10,11
 139 795 139 795 114.5 783.5 c 128,-1,12
 90 772 90 772 64 752 c 1,13,-1
 29 798 l 1,14,15
 58 823 58 823 92.5 838 c 128,-1,16
 127 853 127 853 170 853 c 0,17,18
 234 853 234 853 270.5 821.5 c 128,-1,19
 307 790 307 790 307 735 c 0,20,21
 307 686 307 686 277.5 647 c 128,-1,22
 248 608 248 608 192 555 c 2,23,-1
 111 478 l 1,24,-1
 306 478 l 1,25,-1
 306 416 l 1,0,-1
EndSplineSet
EndChar

StartChar: uni00B3
Encoding: 179 179 117
Width: 350
Flags: W
LayerCount: 2
Fore
SplineSet
165 853 m 0,0,1
 236 853 236 853 272 822 c 128,-1,2
 308 791 308 791 308 743 c 0,3,4
 308 702 308 702 286.5 676.5 c 128,-1,5
 265 651 265 651 235 641 c 1,6,-1
 235 638 l 1,7,8
 274 630 274 630 297.5 605 c 128,-1,9
 321 580 321 580 321 539 c 0,10,11
 321 481 321 481 278.5 444.5 c 128,-1,12
 236 408 236 408 148 408 c 0,13,14
 111 408 111 408 79 414.5 c 128,-1,15
 47 421 47 421 17 436 c 1,16,-1
 17 499 l 1,17,18
 87 465 87 465 149 465 c 0,19,20
 201 465 201 465 225 485.5 c 128,-1,21
 249 506 249 506 249 541 c 0,22,23
 249 577 249 577 220 593.5 c 128,-1,24
 191 610 191 610 139 610 c 2,25,-1
 82 610 l 1,26,-1
 82 665 l 1,27,-1
 139 665 l 2,28,29
 189 665 189 665 212.5 684.5 c 128,-1,30
 236 704 236 704 236 735 c 256,31,32
 236 766 236 766 215.5 781 c 128,-1,33
 195 796 195 796 166 796 c 0,34,35
 135 796 135 796 108.5 785.5 c 128,-1,36
 82 775 82 775 55 758 c 1,37,-1
 19 804 l 1,38,39
 50 826 50 826 84 839.5 c 128,-1,40
 118 853 118 853 165 853 c 0,0,1
EndSplineSet
EndChar

StartChar: acute
Encoding: 180 180 118
Width: 281
Flags: W
LayerCount: 2
Fore
SplineSet
241 766 m 1,0,-1
 241 756 l 1,1,2
 228 738 228 738 203.5 709.5 c 128,-1,3
 179 681 179 681 150.5 652.5 c 128,-1,4
 122 624 122 624 98 606 c 1,5,-1
 40 606 l 1,6,-1
 40 618 l 1,7,8
 54 636 54 636 72 662.5 c 128,-1,9
 90 689 90 689 107 716.5 c 128,-1,10
 124 744 124 744 135 766 c 1,11,-1
 241 766 l 1,0,-1
EndSplineSet
EndChar

StartChar: uni00B5
Encoding: 181 181 119
Width: 623
Flags: W
LayerCount: 2
Fore
SplineSet
538 536 m 1,0,-1
 538 0 l 1,1,-1
 467 0 l 1,2,-1
 453 72 l 1,3,-1
 448 72 l 1,4,5
 422 32 422 32 382.5 11 c 128,-1,6
 343 -10 343 -10 287 -10 c 0,7,8
 248 -10 248 -10 220 2.5 c 128,-1,9
 192 15 192 15 172 35 c 1,10,-1
 168 35 l 1,11,12
 170 17 170 17 171.5 -13.5 c 128,-1,13
 173 -44 173 -44 173 -84 c 2,14,-1
 173 -240 l 1,15,-1
 85 -240 l 1,16,-1
 85 536 l 1,17,-1
 173 536 l 1,18,-1
 173 190 l 2,19,20
 173 63 173 63 293 63 c 0,21,22
 382 63 382 63 416 113 c 128,-1,23
 450 163 450 163 450 257 c 2,24,-1
 450 536 l 1,25,-1
 538 536 l 1,0,-1
EndSplineSet
EndChar

StartChar: paragraph
Encoding: 182 182 120
Width: 655
Flags: W
LayerCount: 2
Fore
SplineSet
549 -127 m 1,0,-1
 491 -127 l 1,1,-1
 491 704 l 1,2,-1
 389 704 l 1,3,-1
 389 -127 l 1,4,-1
 331 -127 l 1,5,-1
 331 273 l 1,6,7
 316 268 316 268 296.5 266 c 128,-1,8
 277 264 277 264 260 264 c 0,9,10
 198 264 198 264 152 287 c 128,-1,11
 106 310 106 310 80.5 364 c 128,-1,12
 55 418 55 418 55 509 c 0,13,14
 55 604 55 604 82.5 659 c 128,-1,15
 110 714 110 714 160 737 c 128,-1,16
 210 760 210 760 275 760 c 2,17,-1
 549 760 l 1,18,-1
 549 -127 l 1,0,-1
EndSplineSet
EndChar

StartChar: cedilla
Encoding: 184 184 122
Width: 225
Flags: W
LayerCount: 2
Fore
SplineSet
212 -139 m 0,0,1
 212 -187 212 -187 175 -213.5 c 128,-1,2
 138 -240 138 -240 64 -240 c 0,3,4
 32 -240 32 -240 14 -235 c 1,5,-1
 14 -180 l 1,6,7
 23 -182 23 -182 38 -183.5 c 128,-1,8
 53 -185 53 -185 67 -185 c 0,9,10
 103 -185 103 -185 122 -175.5 c 128,-1,11
 141 -166 141 -166 141 -141 c 0,12,13
 141 -115 141 -115 114.5 -103 c 128,-1,14
 88 -91 88 -91 50 -86 c 1,15,-1
 93 0 l 1,16,-1
 151 0 l 1,17,-1
 125 -53 l 1,18,19
 161 -61 161 -61 186.5 -81 c 128,-1,20
 212 -101 212 -101 212 -139 c 0,0,1
EndSplineSet
EndChar

StartChar: uni00B9
Encoding: 185 185 123
Width: 350
Flags: W
LayerCount: 2
Fore
SplineSet
240 844 m 1,0,-1
 240 416 l 1,1,-1
 169 416 l 1,2,-1
 169 692 l 2,3,4
 169 718 169 718 170.5 739 c 128,-1,5
 172 760 172 760 173 781 c 1,6,7
 163 772 163 772 151 761.5 c 128,-1,8
 139 751 139 751 126 742 c 2,9,-1
 72 703 l 1,10,-1
 37 752 l 1,11,-1
 167 844 l 1,12,-1
 240 844 l 1,0,-1
EndSplineSet
EndChar

StartChar: ordmasculine
Encoding: 186 186 124
Width: 376
Flags: W
LayerCount: 2
Fore
SplineSet
345 553 m 0,0,1
 345 472 345 472 302 427.5 c 128,-1,2
 259 383 259 383 187 383 c 0,3,4
 120 383 120 383 76 426.5 c 128,-1,5
 32 470 32 470 32 553 c 0,6,7
 32 635 32 635 74 678.5 c 128,-1,8
 116 722 116 722 189 722 c 0,9,10
 260 722 260 722 302.5 679 c 128,-1,11
 345 636 345 636 345 553 c 0,0,1
95 553 m 256,12,13
 95 494 95 494 116.5 465 c 128,-1,14
 138 436 138 436 188 436 c 0,15,16
 237 436 237 436 259 465 c 128,-1,17
 281 494 281 494 281 553 c 256,18,19
 281 612 281 612 259 640.5 c 128,-1,20
 237 669 237 669 188 669 c 256,21,22
 139 669 139 669 117 640.5 c 128,-1,23
 95 612 95 612 95 553 c 256,12,13
EndSplineSet
EndChar

StartChar: guillemotright
Encoding: 187 187 125
Width: 509
Flags: W
LayerCount: 2
Fore
SplineSet
469 257 m 1,0,-1
 299 56 l 1,1,-1
 237 93 l 1,2,-1
 377 264 l 1,3,-1
 237 435 l 1,4,-1
 299 471 l 1,5,-1
 469 270 l 1,6,-1
 469 257 l 1,0,-1
270 257 m 1,7,-1
 101 56 l 1,8,-1
 39 93 l 1,9,-1
 179 264 l 1,10,-1
 39 435 l 1,11,-1
 101 471 l 1,12,-1
 270 270 l 1,13,-1
 270 257 l 1,7,-1
EndSplineSet
EndChar

StartChar: onequarter
Encoding: 188 188 126
Width: 745
Flags: W
LayerCount: 2
Fore
SplineSet
126 0 m 1,0,-1
 562 714 l 1,1,-1
 637 714 l 1,2,-1
 201 0 l 1,3,-1
 126 0 l 1,0,-1
166 286 m 1,4,-1
 166 562 l 2,5,6
 166 588 166 588 167 609 c 128,-1,7
 168 630 168 630 170 651 c 1,8,9
 160 642 160 642 148 631.5 c 128,-1,10
 136 621 136 621 123 612 c 2,11,-1
 69 573 l 1,12,-1
 34 622 l 1,13,-1
 164 714 l 1,14,-1
 237 714 l 1,15,-1
 237 286 l 1,16,-1
 166 286 l 1,4,-1
600 0 m 1,17,-1
 600 96 l 1,18,-1
 405 96 l 1,19,-1
 405 148 l 1,20,-1
 602 431 l 1,21,-1
 675 431 l 1,22,-1
 675 156 l 1,23,-1
 736 156 l 1,24,-1
 736 96 l 1,25,-1
 675 96 l 1,26,-1
 675 0 l 1,27,-1
 600 0 l 1,17,-1
475 156 m 1,28,-1
 600 156 l 1,29,-1
 600 249 l 2,30,31
 600 270 600 270 601 298 c 128,-1,32
 602 326 602 326 603 350 c 1,33,34
 598 339 598 339 582 314.5 c 128,-1,35
 566 290 566 290 555 273 c 2,36,-1
 475 156 l 1,28,-1
EndSplineSet
EndChar

StartChar: onehalf
Encoding: 189 189 127
Width: 771
Flags: W
LayerCount: 2
Fore
SplineSet
96 0 m 1,0,-1
 532 714 l 1,1,-1
 607 714 l 1,2,-1
 171 0 l 1,3,-1
 96 0 l 1,0,-1
154 286 m 1,4,-1
 154 562 l 2,5,6
 154 588 154 588 155 609 c 128,-1,7
 156 630 156 630 158 651 c 1,8,9
 148 642 148 642 136 631.5 c 128,-1,10
 124 621 124 621 111 612 c 2,11,-1
 57 573 l 1,12,-1
 22 622 l 1,13,-1
 152 714 l 1,14,-1
 225 714 l 1,15,-1
 225 286 l 1,16,-1
 154 286 l 1,4,-1
445 0 m 1,17,-1
 445 54 l 1,18,-1
 560 166 l 2,19,20
 600 205 600 205 621 229.5 c 128,-1,21
 642 254 642 254 649.5 273 c 128,-1,22
 657 292 657 292 657 315 c 0,23,24
 657 346 657 346 638.5 362.5 c 128,-1,25
 620 379 620 379 590 379 c 256,26,27
 560 379 560 379 535 367.5 c 128,-1,28
 510 356 510 356 485 336 c 1,29,-1
 450 382 l 1,30,31
 479 407 479 407 513.5 422 c 128,-1,32
 548 437 548 437 591 437 c 0,33,34
 655 437 655 437 691.5 405.5 c 128,-1,35
 728 374 728 374 728 319 c 0,36,37
 728 270 728 270 698 231 c 128,-1,38
 668 192 668 192 613 139 c 2,39,-1
 532 62 l 1,40,-1
 727 62 l 1,41,-1
 727 0 l 1,42,-1
 445 0 l 1,17,-1
EndSplineSet
EndChar

StartChar: threequarters
Encoding: 190 190 128
Width: 781
Flags: W
LayerCount: 2
Fore
SplineSet
146 278 m 0,0,1
 109 278 109 278 77 284.5 c 128,-1,2
 45 291 45 291 15 306 c 1,3,-1
 15 369 l 1,4,5
 85 335 85 335 147 335 c 0,6,7
 199 335 199 335 223 355.5 c 128,-1,8
 247 376 247 376 247 411 c 0,9,10
 247 447 247 447 218 463.5 c 128,-1,11
 189 480 189 480 137 480 c 2,12,-1
 80 480 l 1,13,-1
 80 535 l 1,14,-1
 137 535 l 2,15,16
 187 535 187 535 210.5 554.5 c 128,-1,17
 234 574 234 574 234 605 c 256,18,19
 234 636 234 636 213.5 651 c 128,-1,20
 193 666 193 666 164 666 c 0,21,22
 133 666 133 666 106.5 655.5 c 128,-1,23
 80 645 80 645 53 628 c 1,24,-1
 17 674 l 1,25,26
 48 696 48 696 82 709.5 c 128,-1,27
 116 723 116 723 163 723 c 0,28,29
 234 723 234 723 270 692 c 128,-1,30
 306 661 306 661 306 613 c 0,31,32
 306 572 306 572 284.5 546.5 c 128,-1,33
 263 521 263 521 233 511 c 1,34,-1
 233 508 l 1,35,36
 272 500 272 500 295.5 475 c 128,-1,37
 319 450 319 450 319 409 c 0,38,39
 319 351 319 351 276.5 314.5 c 128,-1,40
 234 278 234 278 146 278 c 0,0,1
170 0 m 1,41,-1
 606 714 l 1,42,-1
 681 714 l 1,43,-1
 245 0 l 1,44,-1
 170 0 l 1,41,-1
636 0 m 1,45,-1
 636 96 l 1,46,-1
 441 96 l 1,47,-1
 441 148 l 1,48,-1
 638 431 l 1,49,-1
 711 431 l 1,50,-1
 711 156 l 1,51,-1
 772 156 l 1,52,-1
 772 96 l 1,53,-1
 711 96 l 1,54,-1
 711 0 l 1,55,-1
 636 0 l 1,45,-1
511 156 m 1,56,-1
 636 156 l 1,57,-1
 636 249 l 2,58,59
 636 270 636 270 637 298 c 128,-1,60
 638 326 638 326 639 350 c 1,61,62
 634 339 634 339 618 314.5 c 128,-1,63
 602 290 602 290 591 273 c 2,64,-1
 511 156 l 1,56,-1
EndSplineSet
EndChar

StartChar: AE
Encoding: 198 198 136
Width: 881
GlyphClass: 2
Flags: W
AnchorPoint: "Anchor-2" 493 714 basechar 0
AnchorPoint: "Anchor-0" 441 0 basechar 0
LayerCount: 2
Fore
SplineSet
821 0 m 1,0,-1
 449 0 l 1,1,-1
 449 221 l 1,2,-1
 199 221 l 1,3,-1
 92 0 l 1,4,-1
 -1 0 l 1,5,-1
 338 714 l 1,6,-1
 821 714 l 1,7,-1
 821 635 l 1,8,-1
 539 635 l 1,9,-1
 539 412 l 1,10,-1
 802 412 l 1,11,-1
 802 334 l 1,12,-1
 539 334 l 1,13,-1
 539 79 l 1,14,-1
 821 79 l 1,15,-1
 821 0 l 1,0,-1
234 301 m 1,16,-1
 449 301 l 1,17,-1
 449 634 l 1,18,-1
 391 634 l 1,19,-1
 234 301 l 1,16,-1
EndSplineSet
Substitution2: "'c2sc' Capitals to Small Capitals lookup 33 subtable" ae.sc
EndChar

StartChar: Eth
Encoding: 208 208 146
Width: 730
GlyphClass: 2
Flags: W
AnchorPoint: "Anchor-2" 365 714 basechar 0
AnchorPoint: "Anchor-0" 365 0 basechar 0
LayerCount: 2
Fore
SplineSet
317 714 m 2,0,1
 424 714 424 714 503 674 c 128,-1,2
 582 634 582 634 625.5 556 c 128,-1,3
 669 478 669 478 669 364 c 0,4,5
 669 183 669 183 570.5 91.5 c 128,-1,6
 472 0 472 0 295 0 c 2,7,-1
 104 0 l 1,8,-1
 104 314 l 1,9,-1
 30 314 l 1,10,-1
 30 392 l 1,11,-1
 104 392 l 1,12,-1
 104 714 l 1,13,-1
 317 714 l 2,0,1
304 637 m 2,14,-1
 194 637 l 1,15,-1
 194 392 l 1,16,-1
 372 392 l 1,17,-1
 372 314 l 1,18,-1
 194 314 l 1,19,-1
 194 77 l 1,20,-1
 284 77 l 2,21,22
 574 77 574 77 574 361 c 0,23,24
 574 504 574 504 503 570.5 c 128,-1,25
 432 637 432 637 304 637 c 2,14,-1
EndSplineSet
Substitution2: "'c2sc' Capitals to Small Capitals lookup 33 subtable" eth.sc
EndChar

StartChar: multiply
Encoding: 215 215 153
Width: 572
Flags: W
LayerCount: 2
Fore
SplineSet
456 574 m 1,0,-1
 506 523 l 1,1,-1
 336 353 l 1,2,-1
 505 183 l 1,3,-1
 455 132 l 1,4,-1
 284 301 l 1,5,-1
 117 132 l 1,6,-1
 65 183 l 1,7,-1
 234 353 l 1,8,-1
 64 522 l 1,9,-1
 116 574 l 1,10,-1
 285 403 l 1,11,-1
 456 574 l 1,0,-1
EndSplineSet
EndChar

StartChar: Oslash
Encoding: 216 216 154
Width: 781
GlyphClass: 2
Flags: W
AnchorPoint: "Anchor-2" 392 714 basechar 0
AnchorPoint: "Anchor-0" 391 0 basechar 0
LayerCount: 2
Fore
SplineSet
720 358 m 0,0,1
 720 247 720 247 682.5 164.5 c 128,-1,2
 645 82 645 82 571.5 36 c 128,-1,3
 498 -10 498 -10 391 -10 c 0,4,5
 279 -10 279 -10 206 37 c 1,6,-1
 158 -31 l 1,7,-1
 97 9 l 1,8,-1
 149 83 l 1,9,10
 105 132 105 132 83 202 c 128,-1,11
 61 272 61 272 61 359 c 0,12,13
 61 468 61 468 97 550.5 c 128,-1,14
 133 633 133 633 206.5 679 c 128,-1,15
 280 725 280 725 392 725 c 0,16,17
 444 725 444 725 488.5 713 c 128,-1,18
 533 701 533 701 570 680 c 1,19,-1
 616 746 l 1,20,-1
 677 705 l 1,21,-1
 626 634 l 1,22,23
 720 535 720 535 720 358 c 0,0,1
156 358 m 0,24,25
 156 296 156 296 167.5 246.5 c 128,-1,26
 179 197 179 197 203 160 c 1,27,-1
 522 611 l 1,28,29
 470 646 470 646 392 646 c 0,30,31
 270 646 270 646 213 569.5 c 128,-1,32
 156 493 156 493 156 358 c 0,24,25
625 358 m 0,33,34
 625 486 625 486 574 560 c 1,35,-1
 254 106 l 1,36,37
 280 88 280 88 314.5 78 c 128,-1,38
 349 68 349 68 391 68 c 0,39,40
 512 68 512 68 568.5 145.5 c 128,-1,41
 625 223 625 223 625 358 c 0,33,34
EndSplineSet
Substitution2: "'c2sc' Capitals to Small Capitals lookup 33 subtable" oslash.sc
EndChar

StartChar: Thorn
Encoding: 222 222 160
Width: 605
GlyphClass: 2
Flags: W
AnchorPoint: "Anchor-2" 303 714 basechar 0
AnchorPoint: "Anchor-0" 303 0 basechar 0
LayerCount: 2
Fore
SplineSet
554 382 m 0,0,1
 554 322 554 322 528 270 c 128,-1,2
 502 218 502 218 439.5 186.5 c 128,-1,3
 377 155 377 155 268 155 c 2,4,-1
 187 155 l 1,5,-1
 187 0 l 1,6,-1
 97 0 l 1,7,-1
 97 714 l 1,8,-1
 187 714 l 1,9,-1
 187 590 l 1,10,-1
 283 590 l 2,11,12
 428 590 428 590 491 535 c 128,-1,13
 554 480 554 480 554 382 c 0,0,1
187 231 m 1,14,-1
 259 231 l 2,15,16
 364 231 364 231 412.5 264.5 c 128,-1,17
 461 298 461 298 461 377 c 0,18,19
 461 446 461 446 417.5 479.5 c 128,-1,20
 374 513 374 513 276 513 c 2,21,-1
 187 513 l 1,22,-1
 187 231 l 1,14,-1
EndSplineSet
Substitution2: "'c2sc' Capitals to Small Capitals lookup 33 subtable" thorn.sc
EndChar

StartChar: germandbls
Encoding: 223 223 161
Width: 631
GlyphClass: 2
Flags: W
AnchorPoint: "Anchor-2" 316 765 basechar 0
AnchorPoint: "Anchor-0" 316 0 basechar 0
LayerCount: 2
Fore
SplineSet
522 617 m 0,0,1
 522 583 522 583 508 557.5 c 128,-1,2
 494 532 494 532 473 512.5 c 128,-1,3
 452 493 452 493 431 477 c 128,-1,4
 410 461 410 461 396 445.5 c 128,-1,5
 382 430 382 430 382 412 c 0,6,7
 382 398 382 398 388.5 387.5 c 128,-1,8
 395 377 395 377 414 362.5 c 128,-1,9
 433 348 433 348 470 323 c 0,10,11
 524 287 524 287 555 249.5 c 128,-1,12
 586 212 586 212 586 153 c 0,13,14
 586 68 586 68 534 29 c 128,-1,15
 482 -10 482 -10 400 -10 c 0,16,17
 353 -10 353 -10 317 -1 c 128,-1,18
 281 8 281 8 255 24 c 1,19,-1
 255 103 l 1,20,21
 280 87 280 87 318.5 74 c 128,-1,22
 357 61 357 61 397 61 c 0,23,24
 452 61 452 61 476 84 c 128,-1,25
 500 107 500 107 500 147 c 0,26,27
 500 183 500 183 479.5 207.5 c 128,-1,28
 459 232 459 232 406 267 c 0,29,30
 343 308 343 308 320 337.5 c 128,-1,31
 297 367 297 367 297 407 c 0,32,33
 297 438 297 438 310.5 460 c 128,-1,34
 324 482 324 482 344.5 498.5 c 128,-1,35
 365 515 365 515 385.5 531 c 128,-1,36
 406 547 406 547 419.5 566 c 128,-1,37
 433 585 433 585 433 612 c 0,38,39
 433 654 433 654 397.5 673 c 128,-1,40
 362 692 362 692 306 692 c 0,41,42
 271 692 271 692 240.5 682.5 c 128,-1,43
 210 673 210 673 191.5 649.5 c 128,-1,44
 173 626 173 626 173 584 c 2,45,-1
 173 0 l 1,46,-1
 85 0 l 1,47,-1
 85 584 l 2,48,49
 85 651 85 651 114 690.5 c 128,-1,50
 143 730 143 730 193 747.5 c 128,-1,51
 243 765 243 765 306 765 c 0,52,53
 403 765 403 765 462.5 728 c 128,-1,54
 522 691 522 691 522 617 c 0,0,1
EndSplineSet
Substitution2: "'smcp' Lowercase to Small Capitals lookup 34 subtable" germandbls.sc
EndChar

StartChar: ae
Encoding: 230 230 168
Width: 864
GlyphClass: 2
Flags: W
AnchorPoint: "Anchor-2" 439 536 basechar 0
AnchorPoint: "Anchor-0" 432 0 basechar 0
LayerCount: 2
Fore
SplineSet
603 546 m 0,0,1
 668 546 668 546 715 516 c 128,-1,2
 762 486 762 486 787.5 432 c 128,-1,3
 813 378 813 378 813 306 c 2,4,-1
 813 252 l 1,5,-1
 470 252 l 1,6,7
 472 156 472 156 511.5 110.5 c 128,-1,8
 551 65 551 65 625 65 c 0,9,10
 674 65 674 65 712.5 74.5 c 128,-1,11
 751 84 751 84 789 102 c 1,12,-1
 789 25 l 1,13,14
 749 7 749 7 710.5 -1.5 c 128,-1,15
 672 -10 672 -10 622 -10 c 0,16,17
 481 -10 481 -10 419 103 c 1,18,19
 384 51 384 51 338.5 20.5 c 128,-1,20
 293 -10 293 -10 216 -10 c 0,21,22
 143 -10 143 -10 94.5 28.5 c 128,-1,23
 46 67 46 67 46 149 c 0,24,25
 46 229 46 229 106 272.5 c 128,-1,26
 166 316 166 316 290 320 c 2,27,-1
 380 323 l 1,28,-1
 380 357 l 2,29,30
 380 422 380 422 349.5 448 c 128,-1,31
 319 474 319 474 268 474 c 0,32,33
 228 474 228 474 189.5 462 c 128,-1,34
 151 450 151 450 118 433 c 1,35,-1
 91 499 l 1,36,37
 126 518 126 518 176 531.5 c 128,-1,38
 226 545 226 545 275 545 c 0,39,40
 337 545 337 545 377.5 524.5 c 128,-1,41
 418 504 418 504 439 459 c 1,42,43
 465 500 465 500 507 523 c 128,-1,44
 549 546 549 546 603 546 c 0,0,1
602 474 m 0,45,46
 544 474 544 474 510.5 434.5 c 128,-1,47
 477 395 477 395 472 321 c 1,48,-1
 720 321 l 1,49,50
 720 390 720 390 691.5 432 c 128,-1,51
 663 474 663 474 602 474 c 0,45,46
378 262 m 1,52,-1
 303 259 l 2,53,54
 209 255 209 255 173 227 c 128,-1,55
 137 199 137 199 137 148 c 0,56,57
 137 103 137 103 162.5 82 c 128,-1,58
 188 61 188 61 230 61 c 0,59,60
 293 61 293 61 335.5 98.5 c 128,-1,61
 378 136 378 136 378 214 c 2,62,-1
 378 262 l 1,52,-1
EndSplineSet
Substitution2: "'smcp' Lowercase to Small Capitals lookup 34 subtable" ae.sc
EndChar

StartChar: eth
Encoding: 240 240 178
Width: 605
GlyphClass: 2
Flags: W
AnchorPoint: "Anchor-2" 303 765 basechar 0
AnchorPoint: "Anchor-0" 303 0 basechar 0
LayerCount: 2
Fore
SplineSet
216 765 m 1,0,1
 248 750 248 750 280.5 732 c 128,-1,2
 313 714 313 714 342 693 c 1,3,-1
 457 760 l 1,4,-1
 495 706 l 1,5,-1
 396 649 l 1,6,7
 464 585 464 585 507.5 490.5 c 128,-1,8
 551 396 551 396 551 275 c 0,9,10
 551 132 551 132 484 61 c 128,-1,11
 417 -10 417 -10 301 -10 c 0,12,13
 229 -10 229 -10 173.5 19.5 c 128,-1,14
 118 49 118 49 86.5 103.5 c 128,-1,15
 55 158 55 158 55 233 c 0,16,17
 55 345 55 345 118.5 409 c 128,-1,18
 182 473 182 473 290 473 c 0,19,20
 342 473 342 473 382 459 c 128,-1,21
 422 445 422 445 446 415 c 1,22,-1
 450 417 l 1,23,24
 434 474 434 474 401 522 c 128,-1,25
 368 570 368 570 326 608 c 1,26,-1
 196 533 l 1,27,-1
 158 588 l 1,28,-1
 270 652 l 1,29,30
 249 666 249 666 226 679.5 c 128,-1,31
 203 693 203 693 180 705 c 1,32,-1
 216 765 l 1,0,1
303 402 m 0,33,34
 219 402 219 402 181.5 357.5 c 128,-1,35
 144 313 144 313 144 230 c 0,36,37
 144 156 144 156 182 109 c 128,-1,38
 220 62 220 62 303 62 c 256,39,40
 386 62 386 62 424 110.5 c 128,-1,41
 462 159 462 159 462 251 c 0,42,43
 462 313 462 313 423 357.5 c 128,-1,44
 384 402 384 402 303 402 c 0,33,34
EndSplineSet
Substitution2: "'smcp' Lowercase to Small Capitals lookup 34 subtable" eth.sc
EndChar

StartChar: divide
Encoding: 247 247 185
Width: 572
Flags: W
LayerCount: 2
Fore
SplineSet
285 462 m 256,0,1
 262 462 262 462 245.5 476.5 c 128,-1,2
 229 491 229 491 229 523 c 0,3,4
 229 557 229 557 245.5 570 c 128,-1,5
 262 583 262 583 285 583 c 256,6,7
 308 583 308 583 324 570 c 128,-1,8
 340 557 340 557 340 523 c 0,9,10
 340 491 340 491 324 476.5 c 128,-1,11
 308 462 308 462 285 462 c 256,0,1
50 317 m 1,12,-1
 50 388 l 1,13,-1
 521 388 l 1,14,-1
 521 317 l 1,15,-1
 50 317 l 1,12,-1
285 121 m 256,16,17
 262 121 262 121 245.5 135.5 c 128,-1,18
 229 150 229 150 229 182 c 0,19,20
 229 216 229 216 245.5 229 c 128,-1,21
 262 242 262 242 285 242 c 256,22,23
 308 242 308 242 324 229 c 128,-1,24
 340 216 340 216 340 182 c 0,25,26
 340 150 340 150 324 135.5 c 128,-1,27
 308 121 308 121 285 121 c 256,16,17
EndSplineSet
EndChar

StartChar: oslash
Encoding: 248 248 186
Width: 605
GlyphClass: 2
Flags: W
AnchorPoint: "Anchor-2" 303 536 basechar 0
AnchorPoint: "Anchor-0" 303 0 basechar 0
LayerCount: 2
Fore
SplineSet
551 269 m 0,0,1
 551 136 551 136 483.5 63 c 128,-1,2
 416 -10 416 -10 301 -10 c 0,3,4
 228 -10 228 -10 172 23 c 1,5,-1
 132 -33 l 1,6,-1
 74 6 l 1,7,-1
 119 68 l 1,8,9
 88 104 88 104 71.5 154 c 128,-1,10
 55 204 55 204 55 269 c 0,11,12
 55 402 55 402 121.5 474 c 128,-1,13
 188 546 188 546 304 546 c 0,14,15
 377 546 377 546 435 510 c 1,16,-1
 474 566 l 1,17,-1
 533 528 l 1,18,-1
 488 465 l 1,19,20
 517 430 517 430 534 380.5 c 128,-1,21
 551 331 551 331 551 269 c 0,0,1
146 269 m 0,22,23
 146 231 146 231 151.5 198.5 c 128,-1,24
 157 166 157 166 170 141 c 1,25,-1
 390 447 l 1,26,27
 354 472 354 472 302 472 c 0,28,29
 220 472 220 472 183 418 c 128,-1,30
 146 364 146 364 146 269 c 0,22,23
460 269 m 0,31,32
 460 343 460 343 437 392 c 1,33,-1
 217 86 l 1,34,35
 251 63 251 63 303 63 c 0,36,37
 384 63 384 63 422 118.5 c 128,-1,38
 460 174 460 174 460 269 c 0,31,32
EndSplineSet
Substitution2: "'smcp' Lowercase to Small Capitals lookup 34 subtable" oslash.sc
EndChar

StartChar: thorn
Encoding: 254 254 192
Width: 615
GlyphClass: 2
Flags: W
AnchorPoint: "Anchor-2" 308 760 basechar 0
AnchorPoint: "Anchor-0" 308 -240 basechar 0
LayerCount: 2
Fore
SplineSet
560 269 m 256,0,1
 560 132 560 132 499.5 61 c 128,-1,2
 439 -10 439 -10 340 -10 c 0,3,4
 277 -10 277 -10 237 13 c 128,-1,5
 197 36 197 36 173 68 c 1,6,-1
 167 68 l 1,7,8
 168 60 168 60 169.5 44 c 128,-1,9
 171 28 171 28 172 11 c 128,-1,10
 173 -6 173 -6 173 -16 c 2,11,-1
 173 -240 l 1,12,-1
 85 -240 l 1,13,-1
 85 760 l 1,14,-1
 173 760 l 1,15,-1
 173 536 l 2,16,17
 173 522 173 522 172 499.5 c 128,-1,18
 171 477 171 477 170 464 c 1,19,-1
 174 464 l 1,20,21
 198 498 198 498 237 522 c 128,-1,22
 276 546 276 546 340 546 c 0,23,24
 439 546 439 546 499.5 476 c 128,-1,25
 560 406 560 406 560 269 c 256,0,1
469 270 m 0,26,27
 469 371 469 371 434 421.5 c 128,-1,28
 399 472 399 472 325 472 c 0,29,30
 242 472 242 472 208 426 c 128,-1,31
 174 380 174 380 173 288 c 2,32,-1
 173 269 l 2,33,34
 173 170 173 170 205.5 116.5 c 128,-1,35
 238 63 238 63 326 63 c 0,36,37
 400 63 400 63 434.5 116.5 c 128,-1,38
 469 170 469 170 469 270 c 0,26,27
EndSplineSet
Substitution2: "'smcp' Lowercase to Small Capitals lookup 34 subtable" thorn.sc
EndChar

StartChar: dcroat
Encoding: 273 273 211
Width: 617
GlyphClass: 2
Flags: W
AnchorPoint: "Anchor-2" 309 760 basechar 0
AnchorPoint: "Anchor-0" 309 0 basechar 0
LayerCount: 2
Fore
SplineSet
275 -10 m 0,0,1
 174 -10 174 -10 114.5 59 c 128,-1,2
 55 128 55 128 55 265 c 0,3,4
 55 405 55 405 115.5 474 c 128,-1,5
 176 543 176 543 275 543 c 0,6,7
 338 543 338 543 377.5 520 c 128,-1,8
 417 497 417 497 442 464 c 1,9,-1
 448 464 l 1,10,11
 446 477 446 477 444 502.5 c 128,-1,12
 442 528 442 528 442 544 c 2,13,-1
 442 605 l 1,14,-1
 229 605 l 1,15,-1
 229 671 l 1,16,-1
 442 671 l 1,17,-1
 442 760 l 1,18,-1
 530 760 l 1,19,-1
 530 671 l 1,20,-1
 606 671 l 1,21,-1
 606 605 l 1,22,-1
 530 605 l 1,23,-1
 530 0 l 1,24,-1
 458 0 l 1,25,-1
 445 72 l 1,26,-1
 441 72 l 1,27,28
 417 38 417 38 377 14 c 128,-1,29
 337 -10 337 -10 275 -10 c 0,0,1
290 63 m 0,30,31
 374 63 374 63 408.5 109 c 128,-1,32
 443 155 443 155 443 248 c 2,33,-1
 443 265 l 2,34,35
 443 366 443 366 410 418 c 128,-1,36
 377 470 377 470 288 470 c 0,37,38
 217 470 217 470 182 415 c 128,-1,39
 147 360 147 360 147 264 c 256,40,41
 147 168 147 168 182 115.5 c 128,-1,42
 217 63 217 63 290 63 c 0,30,31
EndSplineSet
Substitution2: "'smcp' Lowercase to Small Capitals lookup 34 subtable" dcroat.sc
EndChar

StartChar: eogonek
Encoding: 281 281 219
Width: 564
GlyphClass: 2
Flags: W
AnchorPoint: "Anchor-3" 544 536 basechar 0
AnchorPoint: "Anchor-2" 285 536 basechar 0
AnchorPoint: "Anchor-0" 301 -220 basechar 0
LayerCount: 2
Fore
SplineSet
389 -116 m 0,0,1
 389 -161 389 -161 434 -161 c 0,2,3
 450 -161 450 -161 462 -158.5 c 128,-1,4
 474 -156 474 -156 482 -155 c 1,5,-1
 482 -211 l 1,6,7
 468 -215 468 -215 454 -217.5 c 128,-1,8
 440 -220 440 -220 420 -220 c 0,9,10
 367 -220 367 -220 342 -195 c 128,-1,11
 317 -170 317 -170 317 -126 c 0,12,13
 317 -92 317 -92 337.5 -60.5 c 128,-1,14
 358 -29 358 -29 383 -6 c 1,15,16
 352 -10 352 -10 313 -10 c 0,17,18
 236 -10 236 -10 178 21 c 128,-1,19
 120 52 120 52 87.5 113 c 128,-1,20
 55 174 55 174 55 264 c 0,21,22
 55 352 55 352 84.5 415 c 128,-1,23
 114 478 114 478 167.5 512 c 128,-1,24
 221 546 221 546 292 546 c 0,25,26
 360 546 360 546 410 516 c 128,-1,27
 460 486 460 486 486.5 431.5 c 128,-1,28
 513 377 513 377 513 304 c 2,29,-1
 513 251 l 1,30,-1
 146 251 l 1,31,32
 148 160 148 160 192.5 112.5 c 128,-1,33
 237 65 237 65 317 65 c 0,34,35
 368 65 368 65 407.5 74.5 c 128,-1,36
 447 84 447 84 489 102 c 1,37,-1
 489 25 l 1,38,39
 448 -7 448 -7 426.5 -31 c 128,-1,40
 405 -55 405 -55 397 -75.5 c 128,-1,41
 389 -96 389 -96 389 -116 c 0,0,1
291 474 m 0,42,43
 228 474 228 474 191.5 433.5 c 128,-1,44
 155 393 155 393 148 321 c 1,45,-1
 421 321 l 1,46,47
 420 389 420 389 389 431.5 c 128,-1,48
 358 474 358 474 291 474 c 0,42,43
EndSplineSet
Substitution2: "'smcp' Lowercase to Small Capitals lookup 34 subtable" eogonek.sc
Substitution2: "'locl' Localized Forms in Latin lookup 9 subtable" eogonek.loclNAV
Ligature2: "'ccmp' Glyph Composition/Decomposition lookup 6 subtable" e uni0328
EndChar

StartChar: Hbar
Encoding: 294 294 232
Width: 741
GlyphClass: 2
Flags: W
AnchorPoint: "Anchor-2" 371 714 basechar 0
AnchorPoint: "Anchor-0" 371 0 basechar 0
LayerCount: 2
Fore
SplineSet
97 0 m 1,0,-1
 97 523 l 1,1,-1
 0 523 l 1,2,-1
 0 595 l 1,3,-1
 97 595 l 1,4,-1
 97 714 l 1,5,-1
 187 714 l 1,6,-1
 187 595 l 1,7,-1
 553 595 l 1,8,-1
 553 714 l 1,9,-1
 643 714 l 1,10,-1
 643 595 l 1,11,-1
 740 595 l 1,12,-1
 740 523 l 1,13,-1
 643 523 l 1,14,-1
 643 0 l 1,15,-1
 553 0 l 1,16,-1
 553 333 l 1,17,-1
 187 333 l 1,18,-1
 187 0 l 1,19,-1
 97 0 l 1,0,-1
187 412 m 1,20,-1
 553 412 l 1,21,-1
 553 523 l 1,22,-1
 187 523 l 1,23,-1
 187 412 l 1,20,-1
EndSplineSet
Substitution2: "'c2sc' Capitals to Small Capitals lookup 33 subtable" hbar.sc
EndChar

StartChar: hbar
Encoding: 295 295 233
Width: 618
GlyphClass: 2
Flags: W
AnchorPoint: "Anchor-2" 130 760 basechar 0
AnchorPoint: "Anchor-0" 309 0 basechar 0
LayerCount: 2
Fore
SplineSet
173 760 m 1,0,-1
 173 670 l 1,1,-1
 385 670 l 1,2,-1
 385 604 l 1,3,-1
 173 604 l 1,4,-1
 173 517 l 2,5,6
 173 498 173 498 171.5 478.5 c 128,-1,7
 170 459 170 459 168 443 c 1,8,-1
 174 443 l 1,9,10
 200 484 200 484 245 505 c 128,-1,11
 290 526 290 526 342 526 c 0,12,13
 439 526 439 526 488 479 c 128,-1,14
 537 432 537 432 537 329 c 2,15,-1
 537 0 l 1,16,-1
 450 0 l 1,17,-1
 450 323 l 2,18,19
 450 452 450 452 330 452 c 0,20,21
 240 452 240 452 206.5 402 c 128,-1,22
 173 352 173 352 173 258 c 2,23,-1
 173 0 l 1,24,-1
 85 0 l 1,25,-1
 85 604 l 1,26,-1
 9 604 l 1,27,-1
 9 670 l 1,28,-1
 85 670 l 1,29,-1
 85 760 l 1,30,-1
 173 760 l 1,0,-1
EndSplineSet
Substitution2: "'smcp' Lowercase to Small Capitals lookup 34 subtable" hbar.sc
EndChar

StartChar: kgreenlandic
Encoding: 312 312 249
Width: 534
GlyphClass: 2
Flags: W
AnchorPoint: "Anchor-2" 267 536 basechar 0
AnchorPoint: "Anchor-0" 267 0 basechar 0
LayerCount: 2
Fore
SplineSet
509 536 m 1,0,-1
 306 299 l 1,1,-1
 525 0 l 1,2,-1
 420 0 l 1,3,-1
 244 242 l 1,4,-1
 178 188 l 1,5,-1
 178 0 l 1,6,-1
 85 0 l 1,7,-1
 85 536 l 1,8,-1
 178 536 l 1,9,-1
 178 397 l 2,10,11
 178 357 178 357 176 319 c 128,-1,12
 174 281 174 281 172 261 c 1,13,-1
 174 261 l 1,14,15
 183 274 183 274 193.5 287.5 c 128,-1,16
 204 301 204 301 213 312 c 2,17,-1
 403 536 l 1,18,-1
 509 536 l 1,0,-1
EndSplineSet
EndChar

StartChar: Lslash
Encoding: 321 321 258
Width: 524
GlyphClass: 2
Flags: W
AnchorPoint: "Anchor-2" 140 714 basechar 0
AnchorPoint: "Anchor-0" 300 0 basechar 0
LayerCount: 2
Fore
SplineSet
97 0 m 1,0,-1
 97 247 l 1,1,-1
 48 219 l 1,2,-1
 13 279 l 1,3,-1
 97 329 l 1,4,-1
 97 714 l 1,5,-1
 187 714 l 1,6,-1
 187 382 l 1,7,-1
 324 463 l 1,8,-1
 360 400 l 1,9,-1
 187 300 l 1,10,-1
 187 80 l 1,11,-1
 499 80 l 1,12,-1
 499 0 l 1,13,-1
 97 0 l 1,0,-1
EndSplineSet
Substitution2: "'c2sc' Capitals to Small Capitals lookup 33 subtable" lslash.sc
EndChar

StartChar: lslash
Encoding: 322 322 259
Width: 258
GlyphClass: 2
Flags: W
AnchorPoint: "Anchor-2" 129 760 basechar 0
AnchorPoint: "Anchor-0" 129 0 basechar 0
LayerCount: 2
Fore
SplineSet
78 0 m 1,0,-1
 78 285 l 1,1,-1
 27 253 l 1,2,-1
 -9 312 l 1,3,-1
 78 368 l 1,4,-1
 78 760 l 1,5,-1
 166 760 l 1,6,-1
 166 425 l 1,7,-1
 230 469 l 1,8,-1
 267 410 l 1,9,-1
 166 342 l 1,10,-1
 166 0 l 1,11,-1
 78 0 l 1,0,-1
EndSplineSet
Substitution2: "'smcp' Lowercase to Small Capitals lookup 34 subtable" lslash.sc
EndChar

StartChar: Eng
Encoding: 330 330 267
Width: 760
GlyphClass: 2
Flags: W
AnchorPoint: "Anchor-2" 380 714 basechar 0
AnchorPoint: "Anchor-0" 380 -190 basechar 0
LayerCount: 2
Fore
SplineSet
475 -190 m 0,0,1
 450 -190 450 -190 431 -186.5 c 128,-1,2
 412 -183 412 -183 399 -177 c 1,3,-1
 399 -101 l 1,4,5
 415 -106 415 -106 434 -108.5 c 128,-1,6
 453 -111 453 -111 475 -111 c 0,7,8
 500 -111 500 -111 524 -101.5 c 128,-1,9
 548 -92 548 -92 563 -68 c 128,-1,10
 578 -44 578 -44 579 0 c 1,11,-1
 176 593 l 1,12,-1
 172 593 l 1,13,14
 174 574 174 574 175.5 539 c 128,-1,15
 177 504 177 504 178.5 464 c 128,-1,16
 180 424 180 424 180 387 c 2,17,-1
 180 0 l 1,18,-1
 97 0 l 1,19,-1
 97 714 l 1,20,-1
 201 714 l 1,21,-1
 582 142 l 1,22,-1
 586 142 l 1,23,24
 583 174 583 174 581 230 c 128,-1,25
 579 286 579 286 579 342 c 2,26,-1
 579 714 l 1,27,-1
 663 714 l 1,28,-1
 663 6 l 2,29,30
 663 -94 663 -94 612 -142 c 128,-1,31
 561 -190 561 -190 475 -190 c 0,0,1
EndSplineSet
Substitution2: "'c2sc' Capitals to Small Capitals lookup 33 subtable" eng.sc
AlternateSubs2: "'aalt' Access All Alternates lookup 1 subtable" Eng.alt1 Eng.alt2 Eng.alt3
EndChar

StartChar: eng
Encoding: 331 331 268
Width: 618
GlyphClass: 2
Flags: W
AnchorPoint: "Anchor-2" 309 536 basechar 0
AnchorPoint: "Anchor-0" 309 -240 basechar 0
LayerCount: 2
Fore
SplineSet
394 -240 m 0,0,1
 370 -240 370 -240 353 -236.5 c 128,-1,2
 336 -233 336 -233 323 -228 c 1,3,-1
 323 -157 l 1,4,5
 336 -162 336 -162 350.5 -164.5 c 128,-1,6
 365 -167 365 -167 383 -167 c 0,7,8
 412 -167 412 -167 431 -149.5 c 128,-1,9
 450 -132 450 -132 450 -83 c 2,10,-1
 450 344 l 2,11,12
 450 472 450 472 331 472 c 0,13,14
 242 472 242 472 207.5 422.5 c 128,-1,15
 173 373 173 373 173 279 c 2,16,-1
 173 0 l 1,17,-1
 85 0 l 1,18,-1
 85 536 l 1,19,-1
 156 536 l 1,20,-1
 170 463 l 1,21,-1
 175 463 l 1,22,23
 201 505 201 505 245.5 525.5 c 128,-1,24
 290 546 290 546 342 546 c 0,25,26
 440 546 440 546 489 499.5 c 128,-1,27
 538 453 538 453 538 350 c 2,28,-1
 538 -80 l 2,29,30
 538 -155 538 -155 503 -197.5 c 128,-1,31
 468 -240 468 -240 394 -240 c 0,0,1
EndSplineSet
Substitution2: "'smcp' Lowercase to Small Capitals lookup 34 subtable" eng.sc
EndChar

StartChar: OE
Encoding: 338 338 275
Width: 928
GlyphClass: 2
Flags: W
AnchorPoint: "Anchor-2" 464 714 basechar 0
AnchorPoint: "Anchor-0" 464 0 basechar 0
LayerCount: 2
Fore
SplineSet
386 725 m 0,0,1
 436 725 436 725 482 714 c 1,2,-1
 868 714 l 1,3,-1
 868 635 l 1,4,-1
 581 635 l 1,5,-1
 581 412 l 1,6,-1
 849 412 l 1,7,-1
 849 334 l 1,8,-1
 581 334 l 1,9,-1
 581 79 l 1,10,-1
 868 79 l 1,11,-1
 868 0 l 1,12,-1
 488 0 l 1,13,14
 466 -4 466 -4 441 -7 c 128,-1,15
 416 -10 416 -10 391 -10 c 0,16,17
 280 -10 280 -10 206.5 36 c 128,-1,18
 133 82 133 82 97 165 c 128,-1,19
 61 248 61 248 61 359 c 256,20,21
 61 470 61 470 96.5 552 c 128,-1,22
 132 634 132 634 204 679.5 c 128,-1,23
 276 725 276 725 386 725 c 0,0,1
394 646 m 0,24,25
 271 646 271 646 213 569.5 c 128,-1,26
 155 493 155 493 155 358 c 256,27,28
 155 223 155 223 213 145.5 c 128,-1,29
 271 68 271 68 393 68 c 0,30,31
 450 68 450 68 492 85 c 1,32,-1
 492 630 l 1,33,34
 451 646 451 646 394 646 c 0,24,25
EndSplineSet
Substitution2: "'c2sc' Capitals to Small Capitals lookup 33 subtable" oe.sc
EndChar

StartChar: oe
Encoding: 339 339 276
Width: 946
GlyphClass: 2
Flags: W
AnchorPoint: "Anchor-2" 473 536 basechar 0
AnchorPoint: "Anchor-0" 473 0 basechar 0
LayerCount: 2
Fore
SplineSet
677 545 m 0,0,1
 778 545 778 545 836 479.5 c 128,-1,2
 894 414 894 414 894 304 c 2,3,-1
 894 251 l 1,4,-1
 538 251 l 1,5,6
 540 155 540 155 581.5 110 c 128,-1,7
 623 65 623 65 700 65 c 0,8,9
 752 65 752 65 791 74.5 c 128,-1,10
 830 84 830 84 870 102 c 1,11,-1
 870 25 l 1,12,13
 830 7 830 7 791 -1.5 c 128,-1,14
 752 -10 752 -10 699 -10 c 0,15,16
 631 -10 631 -10 578.5 18 c 128,-1,17
 526 46 526 46 495 101 c 1,18,19
 464 46 464 46 413 18 c 128,-1,20
 362 -10 362 -10 296 -10 c 0,21,22
 226 -10 226 -10 171.5 22.5 c 128,-1,23
 117 55 117 55 85.5 117.5 c 128,-1,24
 54 180 54 180 54 269 c 0,25,26
 54 401 54 401 119.5 473 c 128,-1,27
 185 545 185 545 299 545 c 0,28,29
 362 545 362 545 412 517 c 128,-1,30
 462 489 462 489 492 435 c 1,31,32
 521 488 521 488 568.5 516.5 c 128,-1,33
 616 545 616 545 677 545 c 0,0,1
676 473 m 0,34,35
 616 473 616 473 581 434 c 128,-1,36
 546 395 546 395 540 321 c 1,37,-1
 801 321 l 1,38,39
 801 390 801 390 771 431.5 c 128,-1,40
 741 473 741 473 676 473 c 0,34,35
295 472 m 256,41,42
 216 472 216 472 181 421 c 128,-1,43
 146 370 146 370 146 269 c 256,44,45
 146 168 146 168 182 115.5 c 128,-1,46
 218 63 218 63 297 63 c 0,47,48
 375 63 375 63 411 114 c 128,-1,49
 447 165 447 165 447 265 c 0,50,51
 447 369 447 369 410.5 420.5 c 128,-1,52
 374 472 374 472 295 472 c 256,41,42
EndSplineSet
Substitution2: "'smcp' Lowercase to Small Capitals lookup 34 subtable" oe.sc
EndChar

StartChar: Tbar
Encoding: 358 358 295
Width: 556
GlyphClass: 2
Flags: W
AnchorPoint: "Anchor-2" 278 714 basechar 0
AnchorPoint: "Anchor-0" 278 0 basechar 0
LayerCount: 2
Fore
SplineSet
232 0 m 1,0,-1
 232 325 l 1,1,-1
 83 325 l 1,2,-1
 83 399 l 1,3,-1
 232 399 l 1,4,-1
 232 634 l 1,5,-1
 10 634 l 1,6,-1
 10 714 l 1,7,-1
 545 714 l 1,8,-1
 545 634 l 1,9,-1
 322 634 l 1,10,-1
 322 399 l 1,11,-1
 470 399 l 1,12,-1
 470 325 l 1,13,-1
 322 325 l 1,14,-1
 322 0 l 1,15,-1
 232 0 l 1,0,-1
EndSplineSet
Substitution2: "'c2sc' Capitals to Small Capitals lookup 33 subtable" tbar.sc
EndChar

StartChar: tbar
Encoding: 359 359 296
Width: 361
GlyphClass: 2
Flags: W
AnchorPoint: "Anchor-3" 335 659 basechar 0
AnchorPoint: "Anchor-2" 154 659 basechar 0
AnchorPoint: "Anchor-1" 181 268 basechar 0
AnchorPoint: "Anchor-0" 214 0 basechar 0
LayerCount: 2
Fore
SplineSet
264 62 m 0,0,1
 284 62 284 62 305 65 c 128,-1,2
 326 68 326 68 339 73 c 1,3,-1
 339 6 l 1,4,5
 325 -1 325 -1 299 -5.5 c 128,-1,6
 273 -10 273 -10 249 -10 c 0,7,8
 207 -10 207 -10 171.5 4.5 c 128,-1,9
 136 19 136 19 114 55 c 128,-1,10
 92 91 92 91 92 156 c 2,11,-1
 92 280 l 1,12,-1
 24 280 l 1,13,-1
 24 346 l 1,14,-1
 92 346 l 1,15,-1
 92 468 l 1,16,-1
 16 468 l 1,17,-1
 16 510 l 1,18,-1
 93 545 l 1,19,-1
 128 659 l 1,20,-1
 180 659 l 1,21,-1
 180 536 l 1,22,-1
 335 536 l 1,23,-1
 335 468 l 1,24,-1
 180 468 l 1,25,-1
 180 346 l 1,26,-1
 326 346 l 1,27,-1
 326 280 l 1,28,-1
 180 280 l 1,29,-1
 180 158 l 2,30,31
 180 109 180 109 203.5 85.5 c 128,-1,32
 227 62 227 62 264 62 c 0,0,1
EndSplineSet
Substitution2: "'smcp' Lowercase to Small Capitals lookup 34 subtable" tbar.sc
EndChar

StartChar: Uogonek
Encoding: 370 370 307
Width: 731
GlyphClass: 2
Flags: W
AnchorPoint: "Anchor-3" 711 714 basechar 0
AnchorPoint: "Anchor-2" 366 714 basechar 0
AnchorPoint: "Anchor-0" 364 -220 basechar 0
LayerCount: 2
Fore
SplineSet
466 -107 m 0,0,1
 466 -136 466 -136 478 -148.5 c 128,-1,2
 490 -161 490 -161 511 -161 c 0,3,4
 528 -161 528 -161 539.5 -158.5 c 128,-1,5
 551 -156 551 -156 559 -155 c 1,6,-1
 559 -211 l 1,7,8
 545 -215 545 -215 530.5 -217.5 c 128,-1,9
 516 -220 516 -220 497 -220 c 0,10,11
 444 -220 444 -220 419 -194 c 128,-1,12
 394 -168 394 -168 394 -117 c 0,13,14
 394 -86 394 -86 410 -55.5 c 128,-1,15
 426 -25 426 -25 447 -1 c 1,16,17
 408 -10 408 -10 362 -10 c 0,18,19
 228 -10 228 -10 159 62.5 c 128,-1,20
 90 135 90 135 90 254 c 2,21,-1
 90 714 l 1,22,-1
 180 714 l 1,23,-1
 180 251 l 2,24,25
 180 164 180 164 226.5 116 c 128,-1,26
 273 68 273 68 367 68 c 0,27,28
 464 68 464 68 507.5 119.5 c 128,-1,29
 551 171 551 171 551 252 c 2,30,-1
 551 714 l 1,31,-1
 640 714 l 1,32,-1
 640 252 l 2,33,34
 640 189 640 189 618 136 c 128,-1,35
 596 83 596 83 552 47 c 1,36,37
 508 -3 508 -3 487 -37.5 c 128,-1,38
 466 -72 466 -72 466 -107 c 0,0,1
EndSplineSet
Substitution2: "'c2sc' Capitals to Small Capitals lookup 33 subtable" uogonek.sc
Substitution2: "'locl' Localized Forms in Latin lookup 9 subtable" Uogonek.loclNAV
Ligature2: "'ccmp' Glyph Composition/Decomposition lookup 6 subtable" U uni0328
EndChar

StartChar: longs
Encoding: 383 383 320
Width: 326
GlyphClass: 2
Flags: W
AnchorPoint: "Anchor-2" 213 765 basechar 0
AnchorPoint: "Anchor-0" 163 0 basechar 0
LayerCount: 2
Fore
SplineSet
261 692 m 0,0,1
 220 692 220 692 196.5 666 c 128,-1,2
 173 640 173 640 173 577 c 2,3,-1
 173 0 l 1,4,-1
 85 0 l 1,5,-1
 85 577 l 2,6,7
 85 680 85 680 133.5 722.5 c 128,-1,8
 182 765 182 765 262 765 c 0,9,10
 293 765 293 765 317.5 759.5 c 128,-1,11
 342 754 342 754 362 746 c 1,12,-1
 339 677 l 1,13,14
 323 682 323 682 302 687 c 128,-1,15
 281 692 281 692 261 692 c 0,0,1
EndSplineSet
EndChar

StartChar: florin
Encoding: 402 402 321
Width: 572
GlyphClass: 2
Flags: W
AnchorPoint: "Anchor-2" 366 724 basechar 0
AnchorPoint: "Anchor-0" 286 -240 basechar 0
LayerCount: 2
Fore
SplineSet
407 724 m 0,0,1
 438 724 438 724 464.5 717 c 128,-1,2
 491 710 491 710 510 703 c 1,3,-1
 488 635 l 1,4,5
 472 640 472 640 451.5 645.5 c 128,-1,6
 431 651 431 651 410 651 c 0,7,8
 366 651 366 651 346 627.5 c 128,-1,9
 326 604 326 604 326 543 c 2,10,-1
 326 474 l 1,11,-1
 461 474 l 1,12,-1
 461 406 l 1,13,-1
 328 406 l 1,14,-1
 328 -64 l 2,15,16
 328 -162 328 -162 284.5 -201 c 128,-1,17
 241 -240 241 -240 161 -240 c 0,18,19
 142 -240 142 -240 124 -237.5 c 128,-1,20
 106 -235 106 -235 93 -231 c 1,21,-1
 93 -158 l 1,22,23
 108 -162 108 -162 124 -164.5 c 128,-1,24
 140 -167 140 -167 156 -167 c 0,25,26
 198 -167 198 -167 218 -145 c 128,-1,27
 238 -123 238 -123 238 -64 c 2,28,-1
 238 406 l 1,29,-1
 133 406 l 1,30,-1
 133 447 l 1,31,-1
 238 477 l 1,32,-1
 238 542 l 2,33,34
 238 646 238 646 282 685 c 128,-1,35
 326 724 326 724 407 724 c 0,0,1
EndSplineSet
EndChar

StartChar: Aringacute
Encoding: 506 506 322
Width: 640
GlyphClass: 2
Flags: W
AnchorPoint: "Anchor-2" 320 958 basechar 0
AnchorPoint: "Anchor-0" 320 0 basechar 0
LayerCount: 2
Fore
SplineSet
271 829 m 1,0,-1
 271 838 l 1,1,2
 292 862 292 862 316 896 c 128,-1,3
 340 930 340 930 356 958 c 1,4,-1
 462 958 l 1,5,-1
 462 950 l 1,6,7
 452 936 452 936 429 913 c 128,-1,8
 406 890 406 890 379 867 c 128,-1,9
 352 844 352 844 330 829 c 1,10,-1
 271 829 l 1,0,-1
0 0 m 1,11,-1
 258 608 l 1,12,13
 209 635 209 635 209 698 c 0,14,15
 209 748 209 748 239.5 776 c 128,-1,16
 270 804 270 804 318 804 c 0,17,18
 365 804 365 804 397.5 776 c 128,-1,19
 430 748 430 748 430 699 c 0,20,21
 430 668 430 668 417 645 c 128,-1,22
 404 622 404 622 382 609 c 1,23,-1
 640 0 l 1,24,-1
 547 0 l 1,25,-1
 465 192 l 1,26,-1
 170 192 l 1,27,-1
 92 0 l 1,28,-1
 0 0 l 1,11,-1
318 642 m 0,29,30
 343 642 343 642 358.5 656.5 c 128,-1,31
 374 671 374 671 374 698 c 256,32,33
 374 725 374 725 358.5 739.5 c 128,-1,34
 343 754 343 754 318 754 c 0,35,36
 294 754 294 754 278 739.5 c 128,-1,37
 262 725 262 725 262 698 c 0,38,39
 262 672 262 672 276.5 657 c 128,-1,40
 291 642 291 642 318 642 c 0,29,30
201 272 m 1,41,-1
 439 272 l 1,42,-1
 355 479 l 2,43,44
 348 497 348 497 337.5 525 c 128,-1,45
 327 553 327 553 319 580 c 1,46,47
 311 553 311 553 301 523.5 c 128,-1,48
 291 494 291 494 284 477 c 2,49,-1
 201 272 l 1,41,-1
EndSplineSet
Substitution2: "'c2sc' Capitals to Small Capitals lookup 33 subtable" aringacute.sc
EndChar

StartChar: aringacute
Encoding: 507 507 323
Width: 561
GlyphClass: 2
Flags: W
AnchorPoint: "Anchor-2" 281 958 basechar 0
AnchorPoint: "Anchor-0" 281 0 basechar 0
LayerCount: 2
Fore
SplineSet
446 958 m 1,0,-1
 446 952 l 1,1,2
 436 940 436 940 408 922 c 128,-1,3
 380 904 380 904 348 886 c 128,-1,4
 316 868 316 868 293 856 c 1,5,-1
 230 856 l 1,6,-1
 230 864 l 1,7,8
 251 883 251 883 275 909.5 c 128,-1,9
 299 936 299 936 315 958 c 1,10,-1
 446 958 l 1,0,-1
285 817 m 0,11,12
 332 817 332 817 364 789.5 c 128,-1,13
 396 762 396 762 396 713 c 0,14,15
 396 662 396 662 364.5 634 c 128,-1,16
 333 606 333 606 285 606 c 0,17,18
 236 606 236 606 206 634 c 128,-1,19
 176 662 176 662 176 712 c 256,20,21
 176 762 176 762 206 789.5 c 128,-1,22
 236 817 236 817 285 817 c 0,11,12
285 768 m 256,23,24
 261 768 261 768 245 753 c 128,-1,25
 229 738 229 738 229 712 c 256,26,27
 229 686 229 686 243.5 671 c 128,-1,28
 258 656 258 656 285 656 c 0,29,30
 310 656 310 656 325.5 671 c 128,-1,31
 341 686 341 686 341 712 c 256,32,33
 341 738 341 738 325 753 c 128,-1,34
 309 768 309 768 285 768 c 256,23,24
288 545 m 0,35,36
 386 545 386 545 433 502 c 128,-1,37
 480 459 480 459 480 365 c 2,38,-1
 480 0 l 1,39,-1
 416 0 l 1,40,-1
 399 76 l 1,41,-1
 395 76 l 1,42,43
 360 32 360 32 321 11 c 128,-1,44
 282 -10 282 -10 215 -10 c 0,45,46
 142 -10 142 -10 94 28.5 c 128,-1,47
 46 67 46 67 46 149 c 0,48,49
 46 229 46 229 109 272.5 c 128,-1,50
 172 316 172 316 303 320 c 2,51,-1
 394 323 l 1,52,-1
 394 355 l 2,53,54
 394 422 394 422 365 448 c 128,-1,55
 336 474 336 474 283 474 c 0,56,57
 241 474 241 474 203 461.5 c 128,-1,58
 165 449 165 449 132 433 c 1,59,-1
 105 499 l 1,60,61
 140 518 140 518 188 531.5 c 128,-1,62
 236 545 236 545 288 545 c 0,35,36
393 262 m 1,63,-1
 314 259 l 2,64,65
 214 255 214 255 175.5 227 c 128,-1,66
 137 199 137 199 137 148 c 0,67,68
 137 103 137 103 164.5 82 c 128,-1,69
 192 61 192 61 235 61 c 0,70,71
 302 61 302 61 347.5 98.5 c 128,-1,72
 393 136 393 136 393 214 c 2,73,-1
 393 262 l 1,63,-1
EndSplineSet
Substitution2: "'smcp' Lowercase to Small Capitals lookup 34 subtable" aringacute.sc
EndChar

StartChar: circumflex
Encoding: 710 710 330
Width: 418
Flags: W
LayerCount: 2
Fore
SplineSet
253 766 m 1,0,1
 265 744 265 744 287.5 716.5 c 128,-1,2
 310 689 310 689 334.5 662.5 c 128,-1,3
 359 636 359 636 378 617 c 1,4,-1
 378 606 l 1,5,-1
 316 606 l 1,6,7
 290 622 290 622 262 645.5 c 128,-1,8
 234 669 234 669 207 696 c 1,9,10
 180 669 180 669 153 645.5 c 128,-1,11
 126 622 126 622 100 606 c 1,12,-1
 40 606 l 1,13,-1
 40 617 l 1,14,15
 58 636 58 636 82 662.5 c 128,-1,16
 106 689 106 689 128 716.5 c 128,-1,17
 150 744 150 744 163 766 c 1,18,-1
 253 766 l 1,0,1
EndSplineSet
EndChar

StartChar: caron
Encoding: 711 711 331
Width: 418
Flags: W
LayerCount: 2
Fore
SplineSet
163 606 m 1,0,1
 150 628 150 628 128 655 c 128,-1,2
 106 682 106 682 82 708 c 128,-1,3
 58 734 58 734 40 753 c 1,4,-1
 40 766 l 1,5,-1
 100 766 l 1,6,7
 126 749 126 749 154 725 c 128,-1,8
 182 701 182 701 207 674 c 1,9,10
 234 701 234 701 262 725 c 128,-1,11
 290 749 290 749 316 766 c 1,12,-1
 378 766 l 1,13,-1
 378 753 l 1,14,15
 359 734 359 734 334.5 708 c 128,-1,16
 310 682 310 682 287.5 655 c 128,-1,17
 265 628 265 628 253 606 c 1,18,-1
 163 606 l 1,0,1
EndSplineSet
EndChar

StartChar: macron
Encoding: 713 713 332
Width: 377
Flags: W
LayerCount: 2
Fore
SplineSet
337 677 m 1,0,-1
 337 606 l 1,1,-1
 40 606 l 1,2,-1
 40 677 l 1,3,-1
 337 677 l 1,0,-1
EndSplineSet
EndChar

StartChar: breve
Encoding: 728 728 333
Width: 391
Flags: W
LayerCount: 2
Fore
SplineSet
351 740 m 1,0,1
 346 680 346 680 305.5 643 c 128,-1,2
 265 606 265 606 193 606 c 0,3,4
 119 606 119 606 81.5 642 c 128,-1,5
 44 678 44 678 40 740 c 1,6,-1
 94 740 l 1,7,8
 98 699 98 699 123.5 688 c 128,-1,9
 149 677 149 677 195 677 c 0,10,11
 234 677 234 677 262.5 689 c 128,-1,12
 291 701 291 701 296 740 c 1,13,-1
 351 740 l 1,0,1
EndSplineSet
EndChar

StartChar: dotaccent
Encoding: 729 729 334
Width: 183
Flags: W
LayerCount: 2
Fore
SplineSet
92 737 m 0,0,1
 112 737 112 737 127.5 723.5 c 128,-1,2
 143 710 143 710 143 681 c 256,3,4
 143 652 143 652 127.5 638.5 c 128,-1,5
 112 625 112 625 92 625 c 0,6,7
 70 625 70 625 55 638.5 c 128,-1,8
 40 652 40 652 40 681 c 256,9,10
 40 710 40 710 55 723.5 c 128,-1,11
 70 737 70 737 92 737 c 0,0,1
EndSplineSet
EndChar

StartChar: ring
Encoding: 730 730 335
Width: 300
Flags: W
LayerCount: 2
Fore
SplineSet
149 606 m 0,0,1
 100 606 100 606 70 634 c 128,-1,2
 40 662 40 662 40 712 c 256,3,4
 40 762 40 762 70 789.5 c 128,-1,5
 100 817 100 817 149 817 c 0,6,7
 196 817 196 817 228 789.5 c 128,-1,8
 260 762 260 762 260 713 c 0,9,10
 260 662 260 662 228.5 634 c 128,-1,11
 197 606 197 606 149 606 c 0,0,1
149 656 m 0,12,13
 174 656 174 656 189.5 671 c 128,-1,14
 205 686 205 686 205 712 c 256,15,16
 205 738 205 738 189 753 c 128,-1,17
 173 768 173 768 149 768 c 256,18,19
 125 768 125 768 109 753 c 128,-1,20
 93 738 93 738 93 712 c 256,21,22
 93 686 93 686 107.5 671 c 128,-1,23
 122 656 122 656 149 656 c 0,12,13
EndSplineSet
EndChar

StartChar: ogonek
Encoding: 731 731 336
Width: 245
Flags: W
LayerCount: 2
Fore
SplineSet
112 -116 m 0,0,1
 112 -161 112 -161 157 -161 c 0,2,3
 174 -161 174 -161 185.5 -158.5 c 128,-1,4
 197 -156 197 -156 205 -155 c 1,5,-1
 205 -211 l 1,6,7
 191 -215 191 -215 176.5 -217.5 c 128,-1,8
 162 -220 162 -220 143 -220 c 0,9,10
 90 -220 90 -220 65 -195 c 128,-1,11
 40 -170 40 -170 40 -126 c 0,12,13
 40 -98 40 -98 54.5 -70.5 c 128,-1,14
 69 -43 69 -43 90.5 -21 c 128,-1,15
 112 1 112 1 132 15 c 1,16,-1
 180 0 l 1,17,18
 146 -32 146 -32 129 -58.5 c 128,-1,19
 112 -85 112 -85 112 -116 c 0,0,1
EndSplineSet
EndChar

StartChar: tilde
Encoding: 732 732 337
Width: 447
Flags: W
LayerCount: 2
Fore
SplineSet
40 606 m 1,0,1
 46 665 46 665 74.5 699.5 c 128,-1,2
 103 734 103 734 150 734 c 0,3,4
 180 734 180 734 206.5 719.5 c 128,-1,5
 233 705 233 705 257 691 c 128,-1,6
 281 677 281 677 302 677 c 0,7,8
 325 677 325 677 337.5 691.5 c 128,-1,9
 350 706 350 706 357 735 c 1,10,-1
 407 735 l 1,11,12
 401 676 401 676 373 641.5 c 128,-1,13
 345 607 345 607 298 607 c 0,14,15
 270 607 270 607 243.5 621 c 128,-1,16
 217 635 217 635 192.5 649.5 c 128,-1,17
 168 664 168 664 146 664 c 0,18,19
 122 664 122 664 110 649.5 c 128,-1,20
 98 635 98 635 91 606 c 1,21,-1
 40 606 l 1,0,1
EndSplineSet
EndChar

StartChar: hungarumlaut
Encoding: 733 733 338
Width: 439
Flags: W
LayerCount: 2
Fore
SplineSet
399 766 m 1,0,-1
 399 756 l 1,1,2
 388 738 388 738 365 709.5 c 128,-1,3
 342 681 342 681 315 652.5 c 128,-1,4
 288 624 288 624 266 606 c 1,5,-1
 216 606 l 1,6,-1
 216 618 l 1,7,8
 230 637 230 637 246 663 c 128,-1,9
 262 689 262 689 277 716.5 c 128,-1,10
 292 744 292 744 303 766 c 1,11,-1
 399 766 l 1,0,-1
223 766 m 1,12,-1
 223 756 l 1,13,14
 212 738 212 738 189 709.5 c 128,-1,15
 166 681 166 681 139 652.5 c 128,-1,16
 112 624 112 624 90 606 c 1,17,-1
 40 606 l 1,18,-1
 40 618 l 1,19,20
 61 646 61 646 85.5 689 c 128,-1,21
 110 732 110 732 127 766 c 1,22,-1
 223 766 l 1,12,-1
EndSplineSet
EndChar

StartChar: tonos
Encoding: 900 900 339
Width: 577
Flags: W
AnchorPoint: "Anchor-10" 292 536 mark 0
AnchorPoint: "Anchor-6" 292 536 mark 0
AnchorPoint: "Anchor-2" 292 536 mark 0
LayerCount: 2
Fore
SplineSet
253 606 m 1,0,-1
 253 620 l 1,1,2
 262 644 262 644 271 677 c 128,-1,3
 280 710 280 710 287 744 c 128,-1,4
 294 778 294 778 298 805 c 1,5,-1
 392 805 l 1,6,-1
 392 794 l 1,7,8
 386 772 386 772 372.5 738.5 c 128,-1,9
 359 705 359 705 341.5 669.5 c 128,-1,10
 324 634 324 634 306 606 c 1,11,-1
 253 606 l 1,0,-1
EndSplineSet
EndChar

StartChar: dieresistonos
Encoding: 901 901 340
Width: 577
Flags: W
AnchorPoint: "Anchor-10" 289 536 mark 0
AnchorPoint: "Anchor-6" 289 536 mark 0
AnchorPoint: "Anchor-2" 289 536 mark 0
LayerCount: 2
Fore
SplineSet
395 838 m 1,0,-1
 395 828 l 1,1,2
 379 796 379 796 351.5 754.5 c 128,-1,3
 324 713 324 713 296 678 c 1,4,-1
 254 678 l 1,5,-1
 254 690 l 1,6,7
 265 720 265 720 278.5 762 c 128,-1,8
 292 804 292 804 299 838 c 1,9,-1
 395 838 l 1,0,-1
184 730 m 0,10,11
 203 730 203 730 216.5 718.5 c 128,-1,12
 230 707 230 707 230 681 c 0,13,14
 230 656 230 656 216.5 643.5 c 128,-1,15
 203 631 203 631 184 631 c 0,16,17
 164 631 164 631 151 643.5 c 128,-1,18
 138 656 138 656 138 681 c 0,19,20
 138 707 138 707 151 718.5 c 128,-1,21
 164 730 164 730 184 730 c 0,10,11
403 730 m 0,22,23
 421 730 421 730 435 718.5 c 128,-1,24
 449 707 449 707 449 681 c 0,25,26
 449 656 449 656 435 643.5 c 128,-1,27
 421 631 421 631 403 631 c 0,28,29
 383 631 383 631 370 643.5 c 128,-1,30
 357 656 357 656 357 681 c 0,31,32
 357 707 357 707 370 718.5 c 128,-1,33
 383 730 383 730 403 730 c 0,22,23
EndSplineSet
EndChar

StartChar: Gamma
Encoding: 915 915 352
Width: 524
GlyphClass: 2
Flags: W
AnchorPoint: "Anchor-2" 305 714 basechar 0
AnchorPoint: "Anchor-0" 262 0 basechar 0
LayerCount: 2
Fore
SplineSet
500 714 m 1,0,-1
 500 634 l 1,1,-1
 187 634 l 1,2,-1
 187 0 l 1,3,-1
 97 0 l 1,4,-1
 97 714 l 1,5,-1
 500 714 l 1,0,-1
EndSplineSet
EndChar

StartChar: uni0394
Encoding: 916 916 353
Width: 581
GlyphClass: 2
Flags: W
AnchorPoint: "Anchor-2" 291 714 basechar 0
AnchorPoint: "Anchor-0" 291 0 basechar 0
LayerCount: 2
Fore
SplineSet
335 714 m 1,0,-1
 561 54 l 1,1,-1
 561 0 l 1,2,-1
 20 0 l 1,3,-1
 20 55 l 1,4,-1
 245 714 l 1,5,-1
 335 714 l 1,0,-1
462 79 m 1,6,-1
 337 451 l 2,7,8
 322 496 322 496 309.5 538 c 128,-1,9
 297 580 297 580 289 616 c 1,10,11
 280 580 280 580 268.5 538.5 c 128,-1,12
 257 497 257 497 243 455 c 2,13,-1
 116 79 l 1,14,-1
 462 79 l 1,6,-1
EndSplineSet
EndChar

StartChar: Theta
Encoding: 920 920 357
Width: 781
GlyphClass: 2
Flags: W
AnchorPoint: "Anchor-3" 761 714 basechar 0
AnchorPoint: "Anchor-2" 391 714 basechar 0
AnchorPoint: "Anchor-1" 391 357 basechar 0
AnchorPoint: "Anchor-0" 392 0 basechar 0
LayerCount: 2
Fore
SplineSet
720 358 m 256,0,1
 720 247 720 247 682.5 164.5 c 128,-1,2
 645 82 645 82 571.5 36 c 128,-1,3
 498 -10 498 -10 391 -10 c 0,4,5
 280 -10 280 -10 206.5 36 c 128,-1,6
 133 82 133 82 97 165 c 128,-1,7
 61 248 61 248 61 359 c 0,8,9
 61 468 61 468 97 550.5 c 128,-1,10
 133 633 133 633 206.5 679 c 128,-1,11
 280 725 280 725 392 725 c 0,12,13
 499 725 499 725 572 679.5 c 128,-1,14
 645 634 645 634 682.5 551.5 c 128,-1,15
 720 469 720 469 720 358 c 256,0,1
156 358 m 256,16,17
 156 223 156 223 213 145.5 c 128,-1,18
 270 68 270 68 391 68 c 256,19,20
 512 68 512 68 568.5 145.5 c 128,-1,21
 625 223 625 223 625 358 c 256,22,23
 625 493 625 493 569 569.5 c 128,-1,24
 513 646 513 646 392 646 c 0,25,26
 270 646 270 646 213 569.5 c 128,-1,27
 156 493 156 493 156 358 c 256,16,17
541 402 m 1,28,-1
 541 324 l 1,29,-1
 239 324 l 1,30,-1
 239 402 l 1,31,-1
 541 402 l 1,28,-1
EndSplineSet
EndChar

StartChar: Lambda
Encoding: 923 923 360
Width: 608
GlyphClass: 2
Flags: W
AnchorPoint: "Anchor-2" 304 714 basechar 0
AnchorPoint: "Anchor-0" 304 0 basechar 0
LayerCount: 2
Fore
SplineSet
350 714 m 1,0,-1
 607 0 l 1,1,-1
 512 0 l 1,2,-1
 354 450 l 2,3,4
 338 496 338 496 324.5 538 c 128,-1,5
 311 580 311 580 302 616 c 1,6,7
 294 580 294 580 281 538 c 128,-1,8
 268 496 268 496 252 451 c 2,9,-1
 95 0 l 1,10,-1
 0 0 l 1,11,-1
 256 714 l 1,12,-1
 350 714 l 1,0,-1
EndSplineSet
EndChar

StartChar: Xi
Encoding: 926 926 363
Width: 555
GlyphClass: 2
Flags: W
AnchorPoint: "Anchor-2" 278 714 basechar 0
AnchorPoint: "Anchor-0" 278 0 basechar 0
LayerCount: 2
Fore
SplineSet
55 635 m 1,0,-1
 55 714 l 1,1,-1
 499 714 l 1,2,-1
 499 635 l 1,3,-1
 55 635 l 1,0,-1
95 334 m 1,4,-1
 95 412 l 1,5,-1
 459 412 l 1,6,-1
 459 334 l 1,7,-1
 95 334 l 1,4,-1
35 0 m 1,8,-1
 35 79 l 1,9,-1
 519 79 l 1,10,-1
 519 0 l 1,11,-1
 35 0 l 1,8,-1
EndSplineSet
EndChar

StartChar: Pi
Encoding: 928 928 365
Width: 731
GlyphClass: 2
Flags: W
AnchorPoint: "Anchor-2" 366 714 basechar 0
AnchorPoint: "Anchor-0" 366 0 basechar 0
LayerCount: 2
Fore
SplineSet
97 0 m 1,0,-1
 97 714 l 1,1,-1
 633 714 l 1,2,-1
 633 0 l 1,3,-1
 544 0 l 1,4,-1
 544 635 l 1,5,-1
 187 635 l 1,6,-1
 187 0 l 1,7,-1
 97 0 l 1,0,-1
EndSplineSet
EndChar

StartChar: Sigma
Encoding: 931 931 367
Width: 570
GlyphClass: 2
Flags: W
AnchorPoint: "Anchor-2" 285 714 basechar 0
AnchorPoint: "Anchor-0" 285 0 basechar 0
LayerCount: 2
Fore
SplineSet
36 0 m 1,0,-1
 36 74 l 1,1,-1
 270 373 l 1,2,-1
 42 639 l 1,3,-1
 42 714 l 1,4,-1
 517 714 l 1,5,-1
 517 634 l 1,6,-1
 262 634 l 2,7,8
 248 634 248 634 224 634 c 128,-1,9
 200 634 200 634 178 634 c 128,-1,10
 156 634 156 634 145 635 c 1,11,-1
 370 374 l 1,12,-1
 135 78 l 1,13,14
 172 78 172 78 210 78.5 c 128,-1,15
 248 79 248 79 288 79 c 2,16,-1
 546 79 l 1,17,-1
 546 0 l 1,18,-1
 36 0 l 1,0,-1
EndSplineSet
EndChar

StartChar: Phi
Encoding: 934 934 370
Width: 804
GlyphClass: 2
Flags: W
AnchorPoint: "Anchor-2" 402 714 basechar 0
AnchorPoint: "Anchor-0" 402 0 basechar 0
LayerCount: 2
Fore
SplineSet
446 724 m 1,0,-1
 446 636 l 1,1,2
 562 634 562 634 629 598 c 128,-1,3
 696 562 696 562 724 502 c 128,-1,4
 752 442 752 442 752 370 c 0,5,6
 752 322 752 322 737.5 274.5 c 128,-1,7
 723 227 723 227 688 188.5 c 128,-1,8
 653 150 653 150 594 126 c 128,-1,9
 535 102 535 102 446 100 c 1,10,-1
 446 -10 l 1,11,-1
 357 -10 l 1,12,-1
 357 100 l 1,13,14
 266 102 266 102 206.5 126.5 c 128,-1,15
 147 151 147 151 113 190.5 c 128,-1,16
 79 230 79 230 65 277 c 128,-1,17
 51 324 51 324 51 370 c 0,18,19
 51 440 51 440 79.5 500 c 128,-1,20
 108 560 108 560 175 597 c 128,-1,21
 242 634 242 634 357 636 c 1,22,-1
 357 724 l 1,23,-1
 446 724 l 1,0,-1
357 560 m 1,24,25
 276 558 276 558 229 534 c 128,-1,26
 182 510 182 510 162 468 c 128,-1,27
 142 426 142 426 142 371 c 0,28,29
 142 282 142 282 193 230 c 128,-1,30
 244 178 244 178 357 174 c 1,31,-1
 357 560 l 1,24,25
446 560 m 1,32,-1
 446 174 l 1,33,34
 562 178 562 178 611.5 231.5 c 128,-1,35
 661 285 661 285 661 371 c 0,36,37
 661 428 661 428 641 469.5 c 128,-1,38
 621 511 621 511 573.5 534.5 c 128,-1,39
 526 558 526 558 446 560 c 1,32,-1
EndSplineSet
EndChar

StartChar: Psi
Encoding: 936 936 372
Width: 804
GlyphClass: 2
Flags: W
AnchorPoint: "Anchor-2" 402 714 basechar 0
AnchorPoint: "Anchor-0" 402 0 basechar 0
LayerCount: 2
Fore
SplineSet
751 714 m 1,0,-1
 751 479 l 2,1,2
 751 428 751 428 736.5 381 c 128,-1,3
 722 334 722 334 688 297 c 128,-1,4
 654 260 654 260 594.5 238.5 c 128,-1,5
 535 217 535 217 445 217 c 1,6,-1
 445 0 l 1,7,-1
 357 0 l 1,8,-1
 357 217 l 1,9,10
 267 217 267 217 207.5 239 c 128,-1,11
 148 261 148 261 114.5 298 c 128,-1,12
 81 335 81 335 67 381.5 c 128,-1,13
 53 428 53 428 53 478 c 2,14,-1
 53 714 l 1,15,-1
 143 714 l 1,16,-1
 143 480 l 2,17,18
 143 387 143 387 194 340.5 c 128,-1,19
 245 294 245 294 357 294 c 1,20,-1
 357 714 l 1,21,-1
 445 714 l 1,22,-1
 445 294 l 1,23,24
 559 294 559 294 609 340.5 c 128,-1,25
 659 387 659 387 659 478 c 2,26,-1
 659 714 l 1,27,-1
 751 714 l 1,0,-1
EndSplineSet
EndChar

StartChar: uni03A9
Encoding: 937 937 373
Width: 782
GlyphClass: 2
Flags: W
AnchorPoint: "Anchor-2" 391 714 basechar 0
AnchorPoint: "Anchor-0" 391 0 basechar 0
LayerCount: 2
Fore
SplineSet
391 646 m 0,0,1
 271 646 271 646 215 580.5 c 128,-1,2
 159 515 159 515 159 401 c 0,3,4
 159 301 159 301 196 220 c 128,-1,5
 233 139 233 139 326 72 c 1,6,-1
 326 0 l 1,7,-1
 38 0 l 1,8,-1
 38 79 l 1,9,-1
 216 79 l 1,10,11
 152 128 152 128 108 210 c 128,-1,12
 64 292 64 292 64 404 c 0,13,14
 64 502 64 502 102 574 c 128,-1,15
 140 646 140 646 213 685.5 c 128,-1,16
 286 725 286 725 391 725 c 0,17,18
 497 725 497 725 570 686 c 128,-1,19
 643 647 643 647 681 575 c 128,-1,20
 719 503 719 503 719 405 c 0,21,22
 719 292 719 292 675.5 210 c 128,-1,23
 632 128 632 128 568 79 c 1,24,-1
 745 79 l 1,25,-1
 745 0 l 1,26,-1
 457 0 l 1,27,-1
 457 72 l 1,28,29
 550 138 550 138 587.5 220 c 128,-1,30
 625 302 625 302 625 401 c 0,31,32
 625 515 625 515 568.5 580.5 c 128,-1,33
 512 646 512 646 391 646 c 0,0,1
EndSplineSet
EndChar

StartChar: alpha
Encoding: 945 945 381
Width: 615
GlyphClass: 2
Flags: W
AnchorPoint: "Anchor-2" 311 536 basechar 0
AnchorPoint: "Anchor-0" 302 0 basechar 0
LayerCount: 2
Fore
SplineSet
275 -10 m 0,0,1
 177 -10 177 -10 116 59.5 c 128,-1,2
 55 129 55 129 55 266 c 0,3,4
 55 402 55 402 115 474 c 128,-1,5
 175 546 175 546 283 546 c 0,6,7
 342 546 342 546 381.5 525 c 128,-1,8
 421 504 421 504 447 464 c 1,9,-1
 453 464 l 1,10,11
 458 481 458 481 466 501 c 128,-1,12
 474 521 474 521 485 536 c 1,13,-1
 554 536 l 1,14,15
 546 514 546 514 540.5 478 c 128,-1,16
 535 442 535 442 532 402 c 128,-1,17
 529 362 529 362 529 326 c 2,18,-1
 529 118 l 2,19,20
 529 87 529 87 541 74.5 c 128,-1,21
 553 62 553 62 570 62 c 0,22,23
 578 62 578 62 587 64 c 128,-1,24
 596 66 596 66 600 67 c 1,25,-1
 600 3 l 1,26,27
 592 -2 592 -2 576 -6 c 128,-1,28
 560 -10 560 -10 544 -10 c 0,29,30
 507 -10 507 -10 483.5 8 c 128,-1,31
 460 26 460 26 449 72 c 1,32,-1
 442 72 l 1,33,34
 419 38 419 38 380.5 14 c 128,-1,35
 342 -10 342 -10 275 -10 c 0,0,1
290 63 m 0,36,37
 372 63 372 63 407 110.5 c 128,-1,38
 442 158 442 158 442 261 c 2,39,-1
 442 267 l 2,40,41
 442 367 442 367 409.5 419.5 c 128,-1,42
 377 472 377 472 289 472 c 0,43,44
 216 472 216 472 181 419 c 128,-1,45
 146 366 146 366 146 265 c 256,46,47
 146 164 146 164 180.5 113.5 c 128,-1,48
 215 63 215 63 290 63 c 0,36,37
EndSplineSet
EndChar

StartChar: beta
Encoding: 946 946 382
Width: 631
GlyphClass: 2
Flags: W
AnchorPoint: "Anchor-3" 557 765 basechar 0
AnchorPoint: "Anchor-2" 324 765 basechar 0
AnchorPoint: "Anchor-0" 376 0 basechar 0
LayerCount: 2
Fore
SplineSet
324 765 m 0,0,1
 391 765 391 765 443 743.5 c 128,-1,2
 495 722 495 722 524.5 680 c 128,-1,3
 554 638 554 638 554 574 c 0,4,5
 554 502 554 502 515 460 c 128,-1,6
 476 418 476 418 402 406 c 1,7,-1
 402 402 l 1,8,9
 493 392 493 392 539.5 343 c 128,-1,10
 586 294 586 294 586 203 c 0,11,12
 586 100 586 100 521.5 45 c 128,-1,13
 457 -10 457 -10 342 -10 c 0,14,15
 284 -10 284 -10 244.5 -1 c 128,-1,16
 205 8 205 8 173 24 c 1,17,-1
 173 -240 l 1,18,-1
 85 -240 l 1,19,-1
 85 535 l 2,20,21
 85 616 85 616 116 666.5 c 128,-1,22
 147 717 147 717 201 741 c 128,-1,23
 255 765 255 765 324 765 c 0,0,1
322 692 m 0,24,25
 282 692 282 692 248 678 c 128,-1,26
 214 664 214 664 193.5 629 c 128,-1,27
 173 594 173 594 173 531 c 2,28,-1
 173 103 l 1,29,30
 208 85 208 85 245.5 73.5 c 128,-1,31
 283 62 283 62 334 62 c 0,32,33
 420 62 420 62 459 100 c 128,-1,34
 498 138 498 138 498 209 c 0,35,36
 498 288 498 288 450 324.5 c 128,-1,37
 402 361 402 361 324 361 c 2,38,-1
 271 361 l 1,39,-1
 271 435 l 1,40,-1
 314 435 l 2,41,42
 392 435 392 435 428 472 c 128,-1,43
 464 509 464 509 464 570 c 0,44,45
 464 632 464 632 425 662 c 128,-1,46
 386 692 386 692 322 692 c 0,24,25
EndSplineSet
EndChar

StartChar: gamma
Encoding: 947 947 383
Width: 518
GlyphClass: 2
Flags: W
AnchorPoint: "Anchor-3" 508 536 basechar 0
AnchorPoint: "Anchor-2" 259 536 basechar 0
AnchorPoint: "Anchor-0" 259 -240 basechar 0
LayerCount: 2
Fore
SplineSet
513 536 m 1,0,-1
 315 13 l 2,1,2
 300 -28 300 -28 289 -73.5 c 128,-1,3
 278 -119 278 -119 272 -162.5 c 128,-1,4
 266 -206 266 -206 266 -240 c 1,5,-1
 171 -240 l 1,6,7
 171 -212 171 -212 177.5 -170 c 128,-1,8
 184 -128 184 -128 195.5 -81.5 c 128,-1,9
 207 -35 207 -35 222 6 c 1,10,-1
 5 536 l 1,11,-1
 96 536 l 1,12,-1
 209 255 l 2,13,14
 220 229 220 229 231 197 c 128,-1,15
 242 165 242 165 251 135.5 c 128,-1,16
 260 106 260 106 263 89 c 1,17,-1
 267 89 l 1,18,19
 270 105 270 105 278.5 135 c 128,-1,20
 287 165 287 165 297.5 197 c 128,-1,21
 308 229 308 229 316 251 c 2,22,-1
 422 536 l 1,23,-1
 513 536 l 1,0,-1
EndSplineSet
EndChar

StartChar: delta
Encoding: 948 948 384
Width: 604
GlyphClass: 2
Flags: W
AnchorPoint: "Anchor-2" 302 760 basechar 0
AnchorPoint: "Anchor-0" 302 0 basechar 0
LayerCount: 2
Fore
SplineSet
319 760 m 0,0,1
 388 760 388 760 437 743 c 128,-1,2
 486 726 486 726 525 706 c 1,3,-1
 487 637 l 1,4,5
 450 658 450 658 408 673 c 128,-1,6
 366 688 366 688 315 688 c 0,7,8
 270 688 270 688 249 667.5 c 128,-1,9
 228 647 228 647 228 619 c 0,10,11
 228 595 228 595 241 575.5 c 128,-1,12
 254 556 254 556 283 536 c 128,-1,13
 312 516 312 516 362 489 c 0,14,15
 453 440 453 440 501.5 381.5 c 128,-1,16
 550 323 550 323 550 236 c 0,17,18
 550 116 550 116 481.5 53 c 128,-1,19
 413 -10 413 -10 300 -10 c 0,20,21
 228 -10 228 -10 172.5 16 c 128,-1,22
 117 42 117 42 85.5 92 c 128,-1,23
 54 142 54 142 54 214 c 0,24,25
 54 278 54 278 81.5 326 c 128,-1,26
 109 374 109 374 156.5 406 c 128,-1,27
 204 438 204 438 263 456 c 1,28,29
 207 488 207 488 173 526 c 128,-1,30
 139 564 139 564 139 620 c 0,31,32
 139 689 139 689 190.5 724.5 c 128,-1,33
 242 760 242 760 319 760 c 0,0,1
333 418 m 1,34,35
 302 410 302 410 269.5 396 c 128,-1,36
 237 382 237 382 209 358.5 c 128,-1,37
 181 335 181 335 163.5 299.5 c 128,-1,38
 146 264 146 264 146 213 c 0,39,40
 146 147 146 147 186.5 105 c 128,-1,41
 227 63 227 63 300 63 c 0,42,43
 376 63 376 63 417.5 107.5 c 128,-1,44
 459 152 459 152 459 235 c 0,45,46
 459 302 459 302 425.5 344.5 c 128,-1,47
 392 387 392 387 333 418 c 1,34,35
EndSplineSet
EndChar

StartChar: epsilon
Encoding: 949 949 385
Width: 483
GlyphClass: 2
Flags: W
AnchorPoint: "Anchor-2" 268 536 basechar 0
AnchorPoint: "Anchor-0" 242 0 basechar 0
LayerCount: 2
Fore
SplineSet
355 315 m 1,0,-1
 355 243 l 1,1,-1
 282 243 l 2,2,3
 131 243 131 243 131 151 c 0,4,5
 131 102 131 102 172 82 c 128,-1,6
 213 62 213 62 273 62 c 0,7,8
 328 62 328 62 371 75 c 128,-1,9
 414 88 414 88 447 104 c 1,10,-1
 447 27 l 1,11,12
 416 10 416 10 373 0 c 128,-1,13
 330 -10 330 -10 268 -10 c 0,14,15
 153 -10 153 -10 98 34.5 c 128,-1,16
 43 79 43 79 43 146 c 0,17,18
 43 186 43 186 59.5 211.5 c 128,-1,19
 76 237 76 237 103 252.5 c 128,-1,20
 130 268 130 268 162 277 c 1,21,-1
 162 282 l 1,22,23
 117 296 117 296 89.5 325.5 c 128,-1,24
 62 355 62 355 62 404 c 0,25,26
 62 472 62 472 119.5 509 c 128,-1,27
 177 546 177 546 268 546 c 0,28,29
 326 546 326 546 367.5 536 c 128,-1,30
 409 526 409 526 449 508 c 1,31,-1
 416 438 l 1,32,33
 383 453 383 453 348.5 463 c 128,-1,34
 314 473 314 473 267 473 c 0,35,36
 146 473 146 473 146 397 c 0,37,38
 146 353 146 353 187.5 334 c 128,-1,39
 229 315 229 315 299 315 c 2,40,-1
 355 315 l 1,0,-1
EndSplineSet
EndChar

StartChar: zeta
Encoding: 950 950 386
Width: 484
GlyphClass: 2
Flags: W
AnchorPoint: "Anchor-2" 242 760 basechar 0
AnchorPoint: "Anchor-0" 242 -195 basechar 0
LayerCount: 2
Fore
SplineSet
457 -40 m 0,0,1
 457 -84 457 -84 437.5 -124 c 128,-1,2
 418 -164 418 -164 394 -195 c 1,3,-1
 307 -195 l 1,4,5
 331 -164 331 -164 350 -127 c 128,-1,6
 369 -90 369 -90 369 -63 c 0,7,8
 369 -49 369 -49 361 -37 c 128,-1,9
 353 -25 353 -25 327.5 -14.5 c 128,-1,10
 302 -4 302 -4 248 5 c 0,11,12
 153 22 153 22 104 73.5 c 128,-1,13
 55 125 55 125 55 224 c 0,14,15
 55 299 55 299 79 361.5 c 128,-1,16
 103 424 103 424 144.5 479 c 128,-1,17
 186 534 186 534 240 586 c 128,-1,18
 294 638 294 638 353 691 c 1,19,20
 348 690 348 690 326 689.5 c 128,-1,21
 304 689 304 689 271.5 688 c 128,-1,22
 239 687 239 687 205 687 c 2,23,-1
 85 687 l 1,24,-1
 85 760 l 1,25,-1
 457 760 l 1,26,-1
 457 694 l 1,27,28
 354 607 354 607 291.5 538.5 c 128,-1,29
 229 470 229 470 198 415 c 128,-1,30
 167 360 167 360 156.5 315 c 128,-1,31
 146 270 146 270 146 230 c 0,32,33
 146 173 146 173 166 143.5 c 128,-1,34
 186 114 186 114 224 99.5 c 128,-1,35
 262 85 262 85 316 74 c 0,36,37
 392 58 392 58 424.5 30.5 c 128,-1,38
 457 3 457 3 457 -40 c 0,0,1
EndSplineSet
EndChar

StartChar: eta
Encoding: 951 951 387
Width: 618
GlyphClass: 2
Flags: W
AnchorPoint: "Anchor-2" 326 536 basechar 0
AnchorPoint: "Anchor-0" 309 -240 basechar 0
LayerCount: 2
Fore
SplineSet
343 546 m 0,0,1
 439 546 439 546 488 499 c 128,-1,2
 537 452 537 452 537 349 c 2,3,-1
 537 -240 l 1,4,-1
 450 -240 l 1,5,-1
 450 343 l 2,6,7
 450 407 450 407 421 439.5 c 128,-1,8
 392 472 392 472 330 472 c 0,9,10
 242 472 242 472 207.5 422 c 128,-1,11
 173 372 173 372 173 278 c 2,12,-1
 173 0 l 1,13,-1
 85 0 l 1,14,-1
 85 536 l 1,15,-1
 156 536 l 1,16,-1
 169 463 l 1,17,-1
 174 463 l 1,18,19
 200 505 200 505 246 525.5 c 128,-1,20
 292 546 292 546 343 546 c 0,0,1
EndSplineSet
EndChar

StartChar: theta
Encoding: 952 952 388
Width: 595
GlyphClass: 2
Flags: W
AnchorPoint: "Anchor-3" 515 765 basechar 0
AnchorPoint: "Anchor-2" 298 765 basechar 0
AnchorPoint: "Anchor-0" 298 0 basechar 0
LayerCount: 2
Fore
SplineSet
540 377 m 0,0,1
 540 256 540 256 515.5 169.5 c 128,-1,2
 491 83 491 83 437.5 36.5 c 128,-1,3
 384 -10 384 -10 296 -10 c 0,4,5
 172 -10 172 -10 113.5 93 c 128,-1,6
 55 196 55 196 55 377 c 0,7,8
 55 499 55 499 79 586 c 128,-1,9
 103 673 103 673 156.5 719 c 128,-1,10
 210 765 210 765 296 765 c 0,11,12
 420 765 420 765 480 663.5 c 128,-1,13
 540 562 540 562 540 377 c 0,0,1
296 693 m 256,14,15
 220 693 220 693 184.5 625.5 c 128,-1,16
 149 558 149 558 144 424 c 1,17,-1
 450 424 l 1,18,19
 445 558 445 558 408.5 625.5 c 128,-1,20
 372 693 372 693 296 693 c 256,14,15
296 62 m 0,21,22
 374 62 374 62 411 134 c 128,-1,23
 448 206 448 206 451 351 c 1,24,-1
 144 351 l 1,25,26
 146 208 146 208 181 135 c 128,-1,27
 216 62 216 62 296 62 c 0,21,22
EndSplineSet
EndChar

StartChar: iota
Encoding: 953 953 389
Width: 346
GlyphClass: 2
Flags: W
AnchorPoint: "Anchor-2" 130 536 basechar 0
AnchorPoint: "Anchor-0" 209 0 basechar 0
LayerCount: 2
Fore
SplineSet
169 536 m 1,0,-1
 169 158 l 2,1,2
 169 110 169 110 187.5 86 c 128,-1,3
 206 62 206 62 246 62 c 0,4,5
 268 62 268 62 291.5 65.5 c 128,-1,6
 315 69 315 69 328 73 c 1,7,-1
 328 6 l 1,8,9
 314 -1 314 -1 287 -5.5 c 128,-1,10
 260 -10 260 -10 234 -10 c 0,11,12
 190 -10 190 -10 155.5 4.5 c 128,-1,13
 121 19 121 19 101.5 55.5 c 128,-1,14
 82 92 82 92 82 157 c 2,15,-1
 82 536 l 1,16,-1
 169 536 l 1,0,-1
EndSplineSet
EndChar

StartChar: lambda
Encoding: 955 955 391
Width: 542
GlyphClass: 2
Flags: W
AnchorPoint: "Anchor-2" 271 766 basechar 0
AnchorPoint: "Anchor-0" 271 0 basechar 0
LayerCount: 2
Fore
SplineSet
-6 0 m 1,0,-1
 225 526 l 1,1,-1
 198 601 l 2,2,3
 182 644 182 644 163 668.5 c 128,-1,4
 144 693 144 693 101 693 c 0,5,6
 83 693 83 693 69.5 691 c 128,-1,7
 56 689 56 689 45 687 c 1,8,-1
 45 758 l 1,9,10
 58 761 58 761 75.5 763.5 c 128,-1,11
 93 766 93 766 111 766 c 0,12,13
 162 766 162 766 194 748 c 128,-1,14
 226 730 226 730 247 693 c 128,-1,15
 268 656 268 656 289 598 c 2,16,-1
 462 116 l 2,17,18
 481 62 481 62 512 62 c 0,19,20
 520 62 520 62 528.5 64 c 128,-1,21
 537 66 537 66 542 67 c 1,22,-1
 542 2 l 1,23,24
 531 -3 531 -3 516.5 -6.5 c 128,-1,25
 502 -10 502 -10 485 -10 c 0,26,27
 448 -10 448 -10 426.5 8.5 c 128,-1,28
 405 27 405 27 389 71 c 2,29,-1
 316 276 l 2,30,31
 308 300 308 300 297.5 329.5 c 128,-1,32
 287 359 287 359 278.5 387.5 c 128,-1,33
 270 416 270 416 266 435 c 1,34,-1
 262 435 l 1,35,36
 253 400 253 400 238.5 360 c 128,-1,37
 224 320 224 320 207 281 c 2,38,-1
 85 0 l 1,39,-1
 -6 0 l 1,0,-1
EndSplineSet
EndChar

StartChar: nu
Encoding: 957 957 393
Width: 547
GlyphClass: 2
Flags: W
AnchorPoint: "Anchor-2" 274 536 basechar 0
AnchorPoint: "Anchor-0" 274 0 basechar 0
LayerCount: 2
Fore
SplineSet
0 536 m 1,0,-1
 91 536 l 1,1,-1
 198 247 l 2,2,3
 207 223 207 223 218.5 190 c 128,-1,4
 230 157 230 157 240.5 125.5 c 128,-1,5
 251 94 251 94 256 74 c 1,6,-1
 260 74 l 1,7,8
 322 136 322 136 356.5 206 c 128,-1,9
 391 276 391 276 405 357.5 c 128,-1,10
 419 439 419 439 419 536 c 1,11,-1
 506 536 l 1,12,13
 506 431 506 431 487.5 340.5 c 128,-1,14
 469 250 469 250 423.5 166.5 c 128,-1,15
 378 83 378 83 295 0 c 1,16,-1
 200 0 l 1,17,-1
 0 536 l 1,0,-1
EndSplineSet
EndChar

StartChar: xi
Encoding: 958 958 394
Width: 477
GlyphClass: 2
Flags: W
AnchorPoint: "Anchor-2" 239 760 basechar 0
AnchorPoint: "Anchor-0" 239 -195 basechar 0
LayerCount: 2
Fore
SplineSet
54 206 m 0,0,1
 54 256 54 256 73.5 294.5 c 128,-1,2
 93 333 93 333 125 358.5 c 128,-1,3
 157 384 157 384 194 395 c 1,4,-1
 194 401 l 1,5,6
 144 415 144 415 116 447.5 c 128,-1,7
 88 480 88 480 88 537 c 0,8,9
 88 584 88 584 108.5 614.5 c 128,-1,10
 129 645 129 645 162.5 663.5 c 128,-1,11
 196 682 196 682 236 693 c 1,12,13
 236 693 236 693 218.5 691.5 c 128,-1,14
 201 690 201 690 173.5 688.5 c 128,-1,15
 146 687 146 687 115 687 c 2,16,-1
 85 687 l 1,17,-1
 85 760 l 1,18,-1
 431 760 l 1,19,-1
 431 692 l 1,20,-1
 405 692 l 2,21,22
 348 692 348 692 294.5 675 c 128,-1,23
 241 658 241 658 207 624 c 128,-1,24
 173 590 173 590 173 539 c 256,25,26
 173 488 173 488 210 460.5 c 128,-1,27
 247 433 247 433 336 433 c 2,28,-1
 419 433 l 1,29,-1
 419 366 l 1,30,-1
 333 366 l 2,31,32
 242 366 242 366 194 322 c 128,-1,33
 146 278 146 278 146 213 c 0,34,35
 146 162 146 162 167 136 c 128,-1,36
 188 110 188 110 227 97 c 128,-1,37
 266 84 266 84 320 73 c 0,38,39
 396 57 396 57 426.5 28.5 c 128,-1,40
 457 0 457 0 457 -40 c 0,41,42
 457 -84 457 -84 438 -124 c 128,-1,43
 419 -164 419 -164 397 -195 c 1,44,-1
 314 -195 l 1,45,46
 337 -164 337 -164 355 -127 c 128,-1,47
 373 -90 373 -90 373 -62 c 0,48,49
 373 -48 373 -48 365 -36.5 c 128,-1,50
 357 -25 357 -25 330.5 -14.5 c 128,-1,51
 304 -4 304 -4 251 5 c 0,52,53
 154 22 154 22 104 71 c 128,-1,54
 54 120 54 120 54 206 c 0,0,1
EndSplineSet
EndChar

StartChar: pi
Encoding: 960 960 396
Width: 659
GlyphClass: 2
Flags: W
AnchorPoint: "Anchor-2" 330 536 basechar 0
AnchorPoint: "Anchor-0" 330 0 basechar 0
LayerCount: 2
Fore
SplineSet
568 62 m 0,0,1
 582 62 582 62 593 65 c 128,-1,2
 604 68 604 68 612 72 c 1,3,-1
 612 3 l 1,4,5
 604 -2 604 -2 586.5 -6 c 128,-1,6
 569 -10 569 -10 546 -10 c 0,7,8
 435 -10 435 -10 435 118 c 2,9,-1
 435 463 l 1,10,-1
 208 463 l 1,11,-1
 208 0 l 1,12,-1
 121 0 l 1,13,-1
 121 463 l 1,14,-1
 12 463 l 1,15,-1
 12 501 l 1,16,-1
 84 536 l 1,17,-1
 627 536 l 1,18,-1
 627 463 l 1,19,-1
 522 463 l 1,20,-1
 522 124 l 2,21,22
 522 89 522 89 535 75.5 c 128,-1,23
 548 62 548 62 568 62 c 0,0,1
EndSplineSet
EndChar

StartChar: rho
Encoding: 961 961 397
Width: 605
GlyphClass: 2
Flags: W
AnchorPoint: "Anchor-2" 303 536 basechar 0
AnchorPoint: "Anchor-0" 303 -240 basechar 0
LayerCount: 2
Fore
SplineSet
550 268 m 0,0,1
 550 132 550 132 486 61 c 128,-1,2
 422 -10 422 -10 313 -10 c 0,3,4
 272 -10 272 -10 234 1.5 c 128,-1,5
 196 13 196 13 168 35 c 1,6,-1
 163 35 l 1,7,8
 165 18 165 18 166.5 -17.5 c 128,-1,9
 168 -53 168 -53 168 -98 c 2,10,-1
 168 -240 l 1,11,-1
 79 -240 l 1,12,-1
 79 275 l 2,13,14
 79 412 79 412 143.5 479 c 128,-1,15
 208 546 208 546 318 546 c 0,16,17
 386 546 386 546 438.5 514 c 128,-1,18
 491 482 491 482 520.5 420 c 128,-1,19
 550 358 550 358 550 268 c 0,0,1
314 472 m 0,20,21
 168 472 168 472 168 274 c 2,22,-1
 168 112 l 1,23,24
 196 87 196 87 234 75 c 128,-1,25
 272 63 272 63 312 63 c 0,26,27
 391 63 391 63 425.5 115 c 128,-1,28
 460 167 460 167 460 268 c 0,29,30
 460 371 460 371 425.5 421.5 c 128,-1,31
 391 472 391 472 314 472 c 0,20,21
EndSplineSet
EndChar

StartChar: sigma1
Encoding: 962 962 398
Width: 484
GlyphClass: 2
Flags: W
AnchorPoint: "Anchor-2" 242 536 basechar 0
AnchorPoint: "Anchor-0" 242 -195 basechar 0
LayerCount: 2
Fore
SplineSet
313 546 m 0,0,1
 353 546 353 546 391.5 537.5 c 128,-1,2
 430 529 430 529 458 517 c 1,3,-1
 430 444 l 1,4,5
 404 454 404 454 373 461.5 c 128,-1,6
 342 469 342 469 309 469 c 0,7,8
 222 469 222 469 184 414 c 128,-1,9
 146 359 146 359 146 254 c 0,10,11
 146 194 146 194 160 160.5 c 128,-1,12
 174 127 174 127 211.5 108 c 128,-1,13
 249 89 249 89 319 74 c 0,14,15
 396 58 396 58 426.5 29.5 c 128,-1,16
 457 1 457 1 457 -40 c 0,17,18
 457 -84 457 -84 438 -124.5 c 128,-1,19
 419 -165 419 -165 397 -195 c 1,20,-1
 314 -195 l 1,21,22
 337 -164 337 -164 355.5 -127 c 128,-1,23
 374 -90 374 -90 374 -62 c 0,24,25
 374 -48 374 -48 366 -36.5 c 128,-1,26
 358 -25 358 -25 332 -14.5 c 128,-1,27
 306 -4 306 -4 252 6 c 0,28,29
 197 16 197 16 152.5 42.5 c 128,-1,30
 108 69 108 69 81.5 119.5 c 128,-1,31
 55 170 55 170 55 253 c 0,32,33
 55 354 55 354 88 419 c 128,-1,34
 121 484 121 484 179 515 c 128,-1,35
 237 546 237 546 313 546 c 0,0,1
EndSplineSet
EndChar

StartChar: sigma
Encoding: 963 963 399
Width: 617
GlyphClass: 2
Flags: W
AnchorPoint: "Anchor-2" 309 536 basechar 0
AnchorPoint: "Anchor-0" 309 0 basechar 0
LayerCount: 2
Fore
SplineSet
550 246 m 256,0,1
 550 174 550 174 522 116 c 128,-1,2
 494 58 494 58 438.5 24 c 128,-1,3
 383 -10 383 -10 301 -10 c 0,4,5
 190 -10 190 -10 122.5 58 c 128,-1,6
 55 126 55 126 55 256 c 0,7,8
 55 356 55 356 90.5 418 c 128,-1,9
 126 480 126 480 191.5 508 c 128,-1,10
 257 536 257 536 346 536 c 2,11,-1
 593 536 l 1,12,-1
 593 463 l 1,13,-1
 463 463 l 1,14,15
 502 426 502 426 526 372 c 128,-1,16
 550 318 550 318 550 246 c 256,0,1
146 256 m 0,17,18
 146 171 146 171 183 117 c 128,-1,19
 220 63 220 63 303 63 c 256,20,21
 386 63 386 63 423 114 c 128,-1,22
 460 165 460 165 460 244 c 0,23,24
 460 308 460 308 438.5 364 c 128,-1,25
 417 420 417 420 377 463 c 1,26,-1
 346 463 l 2,27,28
 246 463 246 463 196 416 c 128,-1,29
 146 369 146 369 146 256 c 0,17,18
EndSplineSet
EndChar

StartChar: tau
Encoding: 964 964 400
Width: 479
GlyphClass: 2
Flags: W
AnchorPoint: "Anchor-2" 240 536 basechar 0
AnchorPoint: "Anchor-0" 240 0 basechar 0
LayerCount: 2
Fore
SplineSet
452 536 m 1,0,-1
 452 462 l 1,1,-1
 243 462 l 1,2,-1
 243 164 l 2,3,4
 243 106 243 106 269.5 83 c 128,-1,5
 296 60 296 60 339 60 c 0,6,7
 361 60 361 60 384.5 63 c 128,-1,8
 408 66 408 66 424 71 c 1,9,-1
 424 5 l 1,10,11
 410 -1 410 -1 382.5 -6 c 128,-1,12
 355 -11 355 -11 326 -11 c 0,13,14
 280 -11 280 -11 241 2.5 c 128,-1,15
 202 16 202 16 178 52 c 128,-1,16
 154 88 154 88 154 155 c 2,17,-1
 154 462 l 1,18,-1
 10 462 l 1,19,-1
 10 501 l 1,20,-1
 83 536 l 1,21,-1
 452 536 l 1,0,-1
EndSplineSet
EndChar

StartChar: upsilon
Encoding: 965 965 401
Width: 613
GlyphClass: 2
Flags: W
AnchorPoint: "Anchor-2" 308 536 basechar 0
AnchorPoint: "Anchor-0" 307 0 basechar 0
LayerCount: 2
Fore
SplineSet
307 -10 m 0,0,1
 218 -10 218 -10 168.5 23.5 c 128,-1,2
 119 57 119 57 99 114.5 c 128,-1,3
 79 172 79 172 79 243 c 2,4,-1
 79 536 l 1,5,-1
 167 536 l 1,6,-1
 167 246 l 2,7,8
 167 160 167 160 202 111 c 128,-1,9
 237 62 237 62 314 62 c 0,10,11
 394 62 394 62 432 119 c 128,-1,12
 470 176 470 176 470 296 c 0,13,14
 470 366 470 366 462 421 c 128,-1,15
 454 476 454 476 439 536 c 1,16,-1
 527 536 l 1,17,18
 543 477 543 477 551 421.5 c 128,-1,19
 559 366 559 366 559 292 c 0,20,21
 559 137 559 137 495.5 63.5 c 128,-1,22
 432 -10 432 -10 307 -10 c 0,0,1
EndSplineSet
EndChar

StartChar: phi
Encoding: 966 966 402
Width: 725
GlyphClass: 2
Flags: W
AnchorPoint: "Anchor-2" 363 536 basechar 0
AnchorPoint: "Anchor-0" 363 -240 basechar 0
LayerCount: 2
Fore
SplineSet
157 541 m 1,0,-1
 225 494 l 1,1,2
 188 445 188 445 165.5 391.5 c 128,-1,3
 143 338 143 338 143 268 c 0,4,5
 143 195 143 195 166.5 151.5 c 128,-1,6
 190 108 190 108 229 88 c 128,-1,7
 268 68 268 68 314 63 c 1,8,-1
 314 361 l 2,9,10
 314 452 314 452 356 499 c 128,-1,11
 398 546 398 546 472 546 c 0,12,13
 534 546 534 546 578 512.5 c 128,-1,14
 622 479 622 479 646 419.5 c 128,-1,15
 670 360 670 360 670 281 c 0,16,17
 670 184 670 184 632.5 121.5 c 128,-1,18
 595 59 595 59 533.5 27 c 128,-1,19
 472 -5 472 -5 400 -9 c 1,20,-1
 400 -240 l 1,21,-1
 314 -240 l 1,22,-1
 314 -9 l 1,23,24
 240 -5 240 -5 181.5 24 c 128,-1,25
 123 53 123 53 89 113 c 128,-1,26
 55 173 55 173 55 271 c 0,27,28
 55 352 55 352 84 419.5 c 128,-1,29
 113 487 113 487 157 541 c 1,0,-1
473 473 m 0,30,31
 444 473 444 473 422 449 c 128,-1,32
 400 425 400 425 400 362 c 2,33,-1
 400 63 l 1,34,35
 451 68 451 68 492 92.5 c 128,-1,36
 533 117 533 117 557 163.5 c 128,-1,37
 581 210 581 210 581 280 c 0,38,39
 581 374 581 374 550.5 423.5 c 128,-1,40
 520 473 520 473 473 473 c 0,30,31
EndSplineSet
EndChar

StartChar: chi
Encoding: 967 967 403
Width: 551
GlyphClass: 2
Flags: W
AnchorPoint: "Anchor-3" 531 536 basechar 0
AnchorPoint: "Anchor-2" 276 536 basechar 0
AnchorPoint: "Anchor-0" 276 -240 basechar 0
LayerCount: 2
Fore
SplineSet
90 539 m 0,0,1
 140 539 140 539 163.5 507.5 c 128,-1,2
 187 476 187 476 210 417 c 2,3,-1
 278 245 l 1,4,-1
 431 536 l 1,5,-1
 525 536 l 1,6,-1
 315 160 l 1,7,-1
 408 -76 l 2,8,9
 426 -122 426 -122 444.5 -145 c 128,-1,10
 463 -168 463 -168 500 -168 c 0,11,12
 513 -168 513 -168 524.5 -167 c 128,-1,13
 536 -166 536 -166 545 -164 c 1,14,-1
 545 -232 l 1,15,16
 534 -235 534 -235 519 -237.5 c 128,-1,17
 504 -240 504 -240 483 -240 c 0,18,19
 438 -240 438 -240 409.5 -223.5 c 128,-1,20
 381 -207 381 -207 362.5 -176.5 c 128,-1,21
 344 -146 344 -146 328 -104 c 2,22,-1
 257 82 l 1,23,-1
 83 -240 l 1,24,-1
 -11 -240 l 1,25,-1
 217 170 l 1,26,-1
 135 383 l 2,27,28
 120 423 120 423 103 445.5 c 128,-1,29
 86 468 86 468 61 468 c 0,30,31
 42 468 42 468 28 462 c 1,32,-1
 28 531 l 1,33,34
 38 534 38 534 53.5 536.5 c 128,-1,35
 69 539 69 539 90 539 c 0,0,1
EndSplineSet
EndChar

StartChar: psi
Encoding: 968 968 404
Width: 761
GlyphClass: 2
Flags: W
AnchorPoint: "Anchor-2" 381 759 basechar 0
AnchorPoint: "Anchor-0" 381 -240 basechar 0
LayerCount: 2
Fore
SplineSet
426 759 m 1,0,-1
 426 65 l 1,1,2
 511 72 511 72 562.5 123 c 128,-1,3
 614 174 614 174 614 280 c 0,4,5
 614 349 614 349 606 407.5 c 128,-1,6
 598 466 598 466 582 536 c 1,7,-1
 669 536 l 1,8,9
 685 468 685 468 692.5 408.5 c 128,-1,10
 700 349 700 349 700 283 c 0,11,12
 700 180 700 180 663 117.5 c 128,-1,13
 626 55 626 55 564 25.5 c 128,-1,14
 502 -4 502 -4 426 -9 c 1,15,-1
 426 -240 l 1,16,-1
 340 -240 l 1,17,-1
 340 -9 l 1,18,19
 264 -6 264 -6 205 22 c 128,-1,20
 146 50 146 50 112.5 110 c 128,-1,21
 79 170 79 170 79 270 c 2,22,-1
 79 536 l 1,23,-1
 166 536 l 1,24,-1
 166 267 l 2,25,26
 166 192 166 192 190 149 c 128,-1,27
 214 106 214 106 254 87 c 128,-1,28
 294 68 294 68 340 64 c 1,29,-1
 340 759 l 1,30,-1
 426 759 l 1,0,-1
EndSplineSet
EndChar

StartChar: omega
Encoding: 969 969 405
Width: 782
GlyphClass: 2
Flags: W
AnchorPoint: "Anchor-2" 389 536 basechar 0
AnchorPoint: "Anchor-0" 391 0 basechar 0
LayerCount: 2
Fore
SplineSet
667 536 m 1,0,1
 698 466 698 466 712 402 c 128,-1,2
 726 338 726 338 726 260 c 0,3,4
 726 180 726 180 704 119 c 128,-1,5
 682 58 682 58 639.5 24 c 128,-1,6
 597 -10 597 -10 535 -10 c 0,7,8
 427 -10 427 -10 393 80 c 1,9,-1
 388 80 l 1,10,11
 356 -10 356 -10 247 -10 c 0,12,13
 185 -10 185 -10 142.5 24 c 128,-1,14
 100 58 100 58 78 119 c 128,-1,15
 56 180 56 180 56 260 c 0,16,17
 56 338 56 338 70 402 c 128,-1,18
 84 466 84 466 115 536 c 1,19,-1
 205 536 l 1,20,21
 174 466 174 466 159 402 c 128,-1,22
 144 338 144 338 144 259 c 0,23,24
 144 162 144 162 174 112.5 c 128,-1,25
 204 63 204 63 253 63 c 256,26,27
 302 63 302 63 325.5 100 c 128,-1,28
 349 137 349 137 349 193 c 2,29,-1
 349 344 l 1,30,-1
 433 344 l 1,31,-1
 433 193 l 2,32,33
 433 131 433 131 458 97 c 128,-1,34
 483 63 483 63 528 63 c 0,35,36
 578 63 578 63 608 112.5 c 128,-1,37
 638 162 638 162 638 259 c 0,38,39
 638 338 638 338 623 402 c 128,-1,40
 608 466 608 466 577 536 c 1,41,-1
 667 536 l 1,0,1
EndSplineSet
EndChar

StartChar: afii10051
Encoding: 1026 1026 412
Width: 741
GlyphClass: 2
Flags: W
AnchorPoint: "Anchor-2" 371 714 basechar 0
AnchorPoint: "Anchor-0" 371 0 basechar 0
LayerCount: 2
Fore
SplineSet
484 -10 m 0,0,1
 435 -10 435 -10 408 2 c 1,2,-1
 408 80 l 1,3,4
 437 70 437 70 480 70 c 0,5,6
 502 70 502 70 524.5 78.5 c 128,-1,7
 547 87 547 87 562 111 c 128,-1,8
 577 135 577 135 577 181 c 2,9,-1
 577 245 l 2,10,11
 577 303 577 303 548 331 c 128,-1,12
 519 359 519 359 449 359 c 2,13,-1
 265 359 l 1,14,-1
 265 0 l 1,15,-1
 176 0 l 1,16,-1
 176 635 l 1,17,-1
 10 635 l 1,18,-1
 10 714 l 1,19,-1
 482 714 l 1,20,-1
 482 635 l 1,21,-1
 265 635 l 1,22,-1
 265 438 l 1,23,-1
 456 438 l 2,24,25
 556 438 556 438 611 391.5 c 128,-1,26
 666 345 666 345 666 257 c 2,27,-1
 666 187 l 2,28,29
 666 86 666 86 615 38 c 128,-1,30
 564 -10 564 -10 484 -10 c 0,0,1
EndSplineSet
EndChar

StartChar: afii10053
Encoding: 1028 1028 414
Width: 643
GlyphClass: 2
Flags: W
AnchorPoint: "Anchor-2" 322 714 basechar 0
AnchorPoint: "Anchor-0" 322 0 basechar 0
LayerCount: 2
Fore
SplineSet
407 645 m 0,0,1
 301 645 301 645 236 586 c 128,-1,2
 171 527 171 527 158 411 c 1,3,-1
 506 411 l 1,4,-1
 506 333 l 1,5,-1
 156 333 l 1,6,7
 161 206 161 206 223.5 137.5 c 128,-1,8
 286 69 286 69 407 69 c 0,9,10
 456 69 456 69 500 77 c 128,-1,11
 544 85 544 85 586 97 c 1,12,-1
 586 19 l 1,13,14
 508 -10 508 -10 395 -10 c 0,15,16
 279 -10 279 -10 205 36 c 128,-1,17
 131 82 131 82 96 164.5 c 128,-1,18
 61 247 61 247 61 358 c 0,19,20
 61 468 61 468 101 550.5 c 128,-1,21
 141 633 141 633 218.5 679 c 128,-1,22
 296 725 296 725 409 725 c 0,23,24
 474 725 474 725 523.5 713 c 128,-1,25
 573 701 573 701 614 681 c 1,26,-1
 577 604 l 1,27,28
 542 621 542 621 500 633 c 128,-1,29
 458 645 458 645 407 645 c 0,0,1
EndSplineSet
EndChar

StartChar: afii10058
Encoding: 1033 1033 419
Width: 936
GlyphClass: 2
Flags: W
AnchorPoint: "Anchor-2" 468 714 basechar 0
AnchorPoint: "Anchor-0" 468 0 basechar 0
LayerCount: 2
Fore
SplineSet
66 -11 m 0,0,1
 49 -11 49 -11 31.5 -7.5 c 128,-1,2
 14 -4 14 -4 1 1 c 1,3,-1
 1 76 l 1,4,5
 12 71 12 71 26 67.5 c 128,-1,6
 40 64 40 64 56 64 c 0,7,8
 86 64 86 64 103 87.5 c 128,-1,9
 120 111 120 111 130 147.5 c 128,-1,10
 140 184 140 184 148 223 c 0,11,12
 156 263 156 263 167.5 336 c 128,-1,13
 179 409 179 409 192.5 506 c 128,-1,14
 206 603 206 603 221 714 c 1,15,-1
 561 714 l 1,16,-1
 561 412 l 1,17,-1
 620 412 l 2,18,19
 725 412 725 412 785.5 385 c 128,-1,20
 846 358 846 358 872 312 c 128,-1,21
 898 266 898 266 898 209 c 0,22,23
 898 114 898 114 835 57 c 128,-1,24
 772 0 772 0 635 0 c 2,25,-1
 471 0 l 1,26,-1
 471 635 l 1,27,-1
 297 635 l 1,28,29
 287 561 287 561 275.5 479.5 c 128,-1,30
 264 398 264 398 253 324 c 128,-1,31
 242 250 242 250 231 198 c 0,32,33
 218 130 218 130 199 83.5 c 128,-1,34
 180 37 180 37 148.5 13 c 128,-1,35
 117 -11 117 -11 66 -11 c 0,0,1
561 77 m 1,36,-1
 624 77 l 2,37,38
 717 77 717 77 761 109.5 c 128,-1,39
 805 142 805 142 805 209 c 0,40,41
 805 278 805 278 757 306 c 128,-1,42
 709 334 709 334 609 334 c 2,43,-1
 561 334 l 1,44,-1
 561 77 l 1,36,-1
EndSplineSet
EndChar

StartChar: afii10059
Encoding: 1034 1034 420
Width: 958
GlyphClass: 2
Flags: W
AnchorPoint: "Anchor-2" 479 714 basechar 0
AnchorPoint: "Anchor-0" 479 0 basechar 0
LayerCount: 2
Fore
SplineSet
97 0 m 1,0,-1
 97 714 l 1,1,-1
 187 714 l 1,2,-1
 187 412 l 1,3,-1
 493 412 l 1,4,-1
 493 714 l 1,5,-1
 584 714 l 1,6,-1
 584 412 l 1,7,-1
 642 412 l 2,8,9
 747 412 747 412 807.5 385 c 128,-1,10
 868 358 868 358 894 312 c 128,-1,11
 920 266 920 266 920 209 c 0,12,13
 920 114 920 114 857 57 c 128,-1,14
 794 0 794 0 658 0 c 2,15,-1
 493 0 l 1,16,-1
 493 333 l 1,17,-1
 187 333 l 1,18,-1
 187 0 l 1,19,-1
 97 0 l 1,0,-1
584 77 m 1,20,-1
 647 77 l 2,21,22
 739 77 739 77 783 109.5 c 128,-1,23
 827 142 827 142 827 209 c 0,24,25
 827 278 827 278 779 306 c 128,-1,26
 731 334 731 334 632 334 c 2,27,-1
 584 334 l 1,28,-1
 584 77 l 1,20,-1
EndSplineSet
EndChar

StartChar: afii10060
Encoding: 1035 1035 421
Width: 741
GlyphClass: 2
Flags: W
AnchorPoint: "Anchor-2" 371 714 basechar 0
AnchorPoint: "Anchor-0" 371 0 basechar 0
LayerCount: 2
Fore
SplineSet
510 714 m 1,0,-1
 510 634 l 1,1,-1
 265 634 l 1,2,-1
 265 437 l 1,3,-1
 459 437 l 2,4,5
 559 437 559 437 612.5 390.5 c 128,-1,6
 666 344 666 344 666 256 c 2,7,-1
 666 0 l 1,8,-1
 576 0 l 1,9,-1
 576 245 l 2,10,11
 576 303 576 303 548 330.5 c 128,-1,12
 520 358 520 358 453 358 c 2,13,-1
 265 358 l 1,14,-1
 265 0 l 1,15,-1
 175 0 l 1,16,-1
 175 634 l 1,17,-1
 10 634 l 1,18,-1
 10 714 l 1,19,-1
 510 714 l 1,0,-1
EndSplineSet
EndChar

StartChar: afii10145
Encoding: 1039 1039 424
Width: 731
GlyphClass: 2
Flags: W
AnchorPoint: "Anchor-2" 366 714 basechar 0
AnchorPoint: "Anchor-0" 366 -188 basechar 0
LayerCount: 2
Fore
SplineSet
633 0 m 1,0,-1
 408 0 l 1,1,-1
 408 -188 l 1,2,-1
 316 -188 l 1,3,-1
 316 0 l 1,4,-1
 97 0 l 1,5,-1
 97 714 l 1,6,-1
 187 714 l 1,7,-1
 187 80 l 1,8,-1
 544 80 l 1,9,-1
 544 714 l 1,10,-1
 633 714 l 1,11,-1
 633 0 l 1,0,-1
EndSplineSet
EndChar

StartChar: afii10018
Encoding: 1041 1041 426
Width: 615
GlyphClass: 2
Flags: W
AnchorPoint: "Anchor-2" 308 714 basechar 0
AnchorPoint: "Anchor-0" 308 0 basechar 0
LayerCount: 2
Fore
SplineSet
97 0 m 1,0,-1
 97 714 l 1,1,-1
 521 714 l 1,2,-1
 521 635 l 1,3,-1
 187 635 l 1,4,-1
 187 412 l 1,5,-1
 293 412 l 2,6,7
 400 412 400 412 459 385.5 c 128,-1,8
 518 359 518 359 541 313.5 c 128,-1,9
 564 268 564 268 564 209 c 0,10,11
 564 111 564 111 505 55.5 c 128,-1,12
 446 0 446 0 306 0 c 2,13,-1
 97 0 l 1,0,-1
187 77 m 1,14,-1
 297 77 l 2,15,16
 393 77 393 77 432 109.5 c 128,-1,17
 471 142 471 142 471 209 c 0,18,19
 471 278 471 278 428 306 c 128,-1,20
 385 334 385 334 282 334 c 2,21,-1
 187 334 l 1,22,-1
 187 77 l 1,14,-1
EndSplineSet
EndChar

StartChar: afii10021
Encoding: 1044 1044 429
Width: 691
GlyphClass: 2
Flags: W
AnchorPoint: "Anchor-2" 346 714 basechar 0
AnchorPoint: "Anchor-0" 346 -188 basechar 0
LayerCount: 2
Fore
SplineSet
578 714 m 1,0,-1
 578 80 l 1,1,-1
 669 80 l 1,2,-1
 669 -188 l 1,3,-1
 583 -188 l 1,4,-1
 583 0 l 1,5,-1
 92 0 l 1,6,-1
 92 -188 l 1,7,-1
 6 -188 l 1,8,-1
 6 80 l 1,9,-1
 61 80 l 1,10,11
 97 142 97 142 129.5 219 c 128,-1,12
 162 296 162 296 187 380.5 c 128,-1,13
 212 465 212 465 228 550 c 128,-1,14
 244 635 244 635 248 714 c 1,15,-1
 578 714 l 1,0,-1
489 633 m 1,16,-1
 327 633 l 1,17,18
 323 575 323 575 307.5 502 c 128,-1,19
 292 429 292 429 268.5 352.5 c 128,-1,20
 245 276 245 276 216.5 205 c 128,-1,21
 188 134 188 134 156 80 c 1,22,-1
 489 80 l 1,23,-1
 489 633 l 1,16,-1
EndSplineSet
EndChar

StartChar: afii10024
Encoding: 1046 1046 431
Width: 854
GlyphClass: 2
Flags: W
AnchorPoint: "Anchor-2" 428 714 basechar 0
AnchorPoint: "Anchor-0" 427 0 basechar 0
LayerCount: 2
Fore
SplineSet
288 367 m 1,0,-1
 11 714 l 1,1,-1
 111 714 l 1,2,-1
 384 368 l 1,3,-1
 384 714 l 1,4,-1
 470 714 l 1,5,-1
 470 368 l 1,6,-1
 743 714 l 1,7,-1
 843 714 l 1,8,-1
 566 368 l 1,9,-1
 852 0 l 1,10,-1
 749 0 l 1,11,-1
 470 362 l 1,12,-1
 470 0 l 1,13,-1
 384 0 l 1,14,-1
 384 362 l 1,15,-1
 104 0 l 1,16,-1
 1 0 l 1,17,-1
 288 367 l 1,0,-1
EndSplineSet
EndChar

StartChar: afii10025
Encoding: 1047 1047 432
Width: 588
GlyphClass: 2
Flags: W
AnchorPoint: "Anchor-2" 287 714 basechar 0
AnchorPoint: "Anchor-0" 294 0 basechar 0
LayerCount: 2
Fore
SplineSet
519 547 m 0,0,1
 519 474 519 474 473 431.5 c 128,-1,2
 427 389 427 389 350 377 c 1,3,-1
 350 373 l 1,4,5
 440 361 440 361 487 316.5 c 128,-1,6
 534 272 534 272 534 202 c 0,7,8
 534 108 534 108 462 49 c 128,-1,9
 390 -10 390 -10 246 -10 c 0,10,11
 188 -10 188 -10 135.5 -1.5 c 128,-1,12
 83 7 83 7 38 29 c 1,13,-1
 38 111 l 1,14,15
 84 88 84 88 140 76 c 128,-1,16
 196 64 196 64 245 64 c 0,17,18
 341 64 341 64 390.5 100 c 128,-1,19
 440 136 440 136 440 202 c 0,20,21
 440 270 440 270 382 301 c 128,-1,22
 324 332 324 332 220 332 c 2,23,-1
 118 332 l 1,24,-1
 118 407 l 1,25,-1
 215 407 l 2,26,27
 321 407 321 407 373.5 442.5 c 128,-1,28
 426 478 426 478 426 538 c 0,29,30
 426 592 426 592 386 621 c 128,-1,31
 346 650 346 650 282 650 c 0,32,33
 214 650 214 650 170 633 c 128,-1,34
 126 616 126 616 84 589 c 1,35,-1
 41 650 l 1,36,37
 83 681 83 681 144.5 702.5 c 128,-1,38
 206 724 206 724 283 724 c 0,39,40
 398 724 398 724 458.5 674 c 128,-1,41
 519 624 519 624 519 547 c 0,0,1
EndSplineSet
EndChar

StartChar: afii10026
Encoding: 1048 1048 433
Width: 768
GlyphClass: 2
Flags: W
AnchorPoint: "Anchor-2" 395 714 basechar 0
AnchorPoint: "Anchor-0" 384 0 basechar 0
LayerCount: 2
Fore
SplineSet
98 714 m 1,0,-1
 182 714 l 1,1,-1
 182 322 l 2,2,3
 182 288 182 288 181 247.5 c 128,-1,4
 180 207 180 207 178 172.5 c 128,-1,5
 176 138 176 138 175 123 c 1,6,-1
 179 123 l 1,7,-1
 572 714 l 1,8,-1
 672 714 l 1,9,-1
 672 0 l 1,10,-1
 588 0 l 1,11,-1
 588 388 l 2,12,13
 588 424 588 424 589.5 466.5 c 128,-1,14
 591 509 591 509 593 544 c 128,-1,15
 595 579 595 579 596 594 c 1,16,-1
 592 594 l 1,17,-1
 198 0 l 1,18,-1
 98 0 l 1,19,-1
 98 714 l 1,0,-1
EndSplineSet
EndChar

StartChar: afii10028
Encoding: 1050 1050 435
Width: 618
GlyphClass: 2
Flags: W
AnchorPoint: "Anchor-2" 336 714 basechar 0
AnchorPoint: "Anchor-0" 309 0 basechar 0
LayerCount: 2
Fore
SplineSet
618 0 m 1,0,-1
 510 0 l 1,1,-1
 187 362 l 1,2,-1
 187 0 l 1,3,-1
 97 0 l 1,4,-1
 97 714 l 1,5,-1
 187 714 l 1,6,-1
 187 368 l 1,7,-1
 502 714 l 1,8,-1
 604 714 l 1,9,-1
 294 367 l 1,10,-1
 618 0 l 1,0,-1
EndSplineSet
EndChar

StartChar: afii10029
Encoding: 1051 1051 436
Width: 708
GlyphClass: 2
Flags: W
AnchorPoint: "Anchor-2" 354 714 basechar 0
AnchorPoint: "Anchor-0" 354 0 basechar 0
LayerCount: 2
Fore
SplineSet
611 0 m 1,0,-1
 521 0 l 1,1,-1
 521 635 l 1,2,-1
 295 635 l 1,3,4
 286 561 286 561 275 479.5 c 128,-1,5
 264 398 264 398 253 324 c 128,-1,6
 242 250 242 250 231 198 c 0,7,8
 218 130 218 130 199 83.5 c 128,-1,9
 180 37 180 37 148.5 13 c 128,-1,10
 117 -11 117 -11 66 -11 c 0,11,12
 49 -11 49 -11 31.5 -7.5 c 128,-1,13
 14 -4 14 -4 1 1 c 1,14,-1
 1 76 l 1,15,16
 12 71 12 71 26 67.5 c 128,-1,17
 40 64 40 64 56 64 c 0,18,19
 86 64 86 64 103.5 88.5 c 128,-1,20
 121 113 121 113 130.5 149.5 c 128,-1,21
 140 186 140 186 148 222 c 0,22,23
 156 260 156 260 167.5 333.5 c 128,-1,24
 179 407 179 407 192.5 505 c 128,-1,25
 206 603 206 603 220 714 c 1,26,-1
 611 714 l 1,27,-1
 611 0 l 1,0,-1
EndSplineSet
EndChar

StartChar: afii10037
Encoding: 1059 1059 444
Width: 624
GlyphClass: 2
Flags: W
AnchorPoint: "Anchor-2" 326 714 basechar 0
AnchorPoint: "Anchor-0" 312 0 basechar 0
LayerCount: 2
Fore
SplineSet
624 714 m 1,0,-1
 396 203 l 2,1,2
 364 132 364 132 331.5 84.5 c 128,-1,3
 299 37 299 37 255 13.5 c 128,-1,4
 211 -10 211 -10 143 -10 c 0,5,6
 115 -10 115 -10 90.5 -6 c 128,-1,7
 66 -2 66 -2 46 5 c 1,8,-1
 46 94 l 1,9,10
 66 85 66 85 89 79.5 c 128,-1,11
 112 74 112 74 137 74 c 0,12,13
 192 74 192 74 225 98 c 128,-1,14
 258 122 258 122 286 183 c 1,15,-1
 11 714 l 1,16,-1
 110 714 l 1,17,-1
 309 321 l 2,18,19
 314 310 314 310 321 295 c 128,-1,20
 328 280 328 280 333 266 c 1,21,-1
 337 266 l 1,22,23
 341 276 341 276 346.5 292 c 128,-1,24
 352 308 352 308 357 318 c 2,25,-1
 529 714 l 1,26,-1
 624 714 l 1,0,-1
EndSplineSet
EndChar

StartChar: afii10040
Encoding: 1062 1062 447
Width: 741
GlyphClass: 2
Flags: W
AnchorPoint: "Anchor-2" 371 714 basechar 0
AnchorPoint: "Anchor-0" 371 -188 basechar 0
LayerCount: 2
Fore
SplineSet
720 79 m 1,0,-1
 720 -188 l 1,1,-1
 634 -188 l 1,2,-1
 634 0 l 1,3,-1
 97 0 l 1,4,-1
 97 714 l 1,5,-1
 187 714 l 1,6,-1
 187 80 l 1,7,-1
 544 80 l 1,8,-1
 544 714 l 1,9,-1
 633 714 l 1,10,-1
 633 79 l 1,11,-1
 720 79 l 1,0,-1
EndSplineSet
EndChar

StartChar: afii10041
Encoding: 1063 1063 448
Width: 698
GlyphClass: 2
Flags: W
AnchorPoint: "Anchor-2" 338 714 basechar 0
AnchorPoint: "Anchor-0" 349 0 basechar 0
LayerCount: 2
Fore
SplineSet
601 0 m 1,0,-1
 511 0 l 1,1,-1
 511 293 l 1,2,3
 453 273 453 273 402.5 260.5 c 128,-1,4
 352 248 352 248 290 248 c 0,5,6
 190 248 190 248 135 294.5 c 128,-1,7
 80 341 80 341 80 429 c 2,8,-1
 80 714 l 1,9,-1
 170 714 l 1,10,-1
 170 442 l 2,11,12
 170 384 170 384 200.5 355.5 c 128,-1,13
 231 327 231 327 299 327 c 0,14,15
 358 327 358 327 405 337.5 c 128,-1,16
 452 348 452 348 511 368 c 1,17,-1
 511 714 l 1,18,-1
 601 714 l 1,19,-1
 601 0 l 1,0,-1
EndSplineSet
EndChar

StartChar: afii10042
Encoding: 1064 1064 449
Width: 1037
GlyphClass: 2
Flags: W
AnchorPoint: "Anchor-2" 519 714 basechar 0
AnchorPoint: "Anchor-0" 519 0 basechar 0
LayerCount: 2
Fore
SplineSet
939 0 m 1,0,-1
 97 0 l 1,1,-1
 97 714 l 1,2,-1
 187 714 l 1,3,-1
 187 80 l 1,4,-1
 472 80 l 1,5,-1
 472 714 l 1,6,-1
 562 714 l 1,7,-1
 562 80 l 1,8,-1
 848 80 l 1,9,-1
 848 714 l 1,10,-1
 939 714 l 1,11,-1
 939 0 l 1,0,-1
EndSplineSet
EndChar

StartChar: afii10043
Encoding: 1065 1065 450
Width: 1041
GlyphClass: 2
Flags: W
AnchorPoint: "Anchor-2" 521 714 basechar 0
AnchorPoint: "Anchor-0" 521 0 basechar 0
LayerCount: 2
Fore
SplineSet
1011 79 m 1,0,-1
 1011 -188 l 1,1,-1
 925 -188 l 1,2,-1
 925 0 l 1,3,-1
 97 0 l 1,4,-1
 97 714 l 1,5,-1
 187 714 l 1,6,-1
 187 80 l 1,7,-1
 465 80 l 1,8,-1
 465 714 l 1,9,-1
 556 714 l 1,10,-1
 556 80 l 1,11,-1
 835 80 l 1,12,-1
 835 714 l 1,13,-1
 925 714 l 1,14,-1
 925 79 l 1,15,-1
 1011 79 l 1,0,-1
EndSplineSet
EndChar

StartChar: afii10044
Encoding: 1066 1066 451
Width: 692
GlyphClass: 2
Flags: W
AnchorPoint: "Anchor-2" 346 714 basechar 0
AnchorPoint: "Anchor-0" 346 0 basechar 0
LayerCount: 2
Fore
SplineSet
174 0 m 1,0,-1
 174 635 l 1,1,-1
 8 635 l 1,2,-1
 8 714 l 1,3,-1
 263 714 l 1,4,-1
 263 412 l 1,5,-1
 376 412 l 2,6,7
 476 412 476 412 534 385 c 128,-1,8
 592 358 592 358 616.5 312 c 128,-1,9
 641 266 641 266 641 209 c 0,10,11
 641 114 641 114 580 57 c 128,-1,12
 519 0 519 0 388 0 c 2,13,-1
 174 0 l 1,0,-1
263 77 m 1,14,-1
 379 77 l 2,15,16
 466 77 466 77 507 109.5 c 128,-1,17
 548 142 548 142 548 209 c 0,18,19
 548 278 548 278 503 306 c 128,-1,20
 458 334 458 334 365 334 c 2,21,-1
 263 334 l 1,22,-1
 263 77 l 1,14,-1
EndSplineSet
EndChar

StartChar: afii10045
Encoding: 1067 1067 452
Width: 858
GlyphClass: 2
Flags: W
AnchorPoint: "Anchor-2" 433 714 basechar 0
AnchorPoint: "Anchor-0" 429 0 basechar 0
LayerCount: 2
Fore
SplineSet
97 0 m 1,0,-1
 97 714 l 1,1,-1
 187 714 l 1,2,-1
 187 412 l 1,3,-1
 297 412 l 2,4,5
 396 412 396 412 454 385 c 128,-1,6
 512 358 512 358 536.5 312 c 128,-1,7
 561 266 561 266 561 209 c 0,8,9
 561 114 561 114 500.5 57 c 128,-1,10
 440 0 440 0 308 0 c 2,11,-1
 97 0 l 1,0,-1
671 0 m 1,12,-1
 671 714 l 1,13,-1
 761 714 l 1,14,-1
 761 0 l 1,15,-1
 671 0 l 1,12,-1
187 76 m 1,16,-1
 300 76 l 2,17,18
 386 76 386 76 427 109 c 128,-1,19
 468 142 468 142 468 209 c 0,20,21
 468 278 468 278 423.5 305.5 c 128,-1,22
 379 333 379 333 287 333 c 2,23,-1
 187 333 l 1,24,-1
 187 76 l 1,16,-1
EndSplineSet
EndChar

StartChar: afii10046
Encoding: 1068 1068 453
Width: 642
GlyphClass: 2
Flags: W
AnchorPoint: "Anchor-2" 321 714 basechar 0
AnchorPoint: "Anchor-0" 321 0 basechar 0
LayerCount: 2
Fore
SplineSet
97 0 m 1,0,-1
 97 714 l 1,1,-1
 187 714 l 1,2,-1
 187 412 l 1,3,-1
 321 412 l 2,4,5
 420 412 420 412 479.5 385 c 128,-1,6
 539 358 539 358 565 312 c 128,-1,7
 591 266 591 266 591 209 c 0,8,9
 591 114 591 114 527 57 c 128,-1,10
 463 0 463 0 332 0 c 2,11,-1
 97 0 l 1,0,-1
187 77 m 1,12,-1
 323 77 l 2,13,14
 498 77 498 77 498 209 c 0,15,16
 498 278 498 278 450 306 c 128,-1,17
 402 334 402 334 310 334 c 2,18,-1
 187 334 l 1,19,-1
 187 77 l 1,12,-1
EndSplineSet
EndChar

StartChar: afii10047
Encoding: 1069 1069 454
Width: 633
GlyphClass: 2
Flags: W
AnchorPoint: "Anchor-2" 236 714 basechar 0
AnchorPoint: "Anchor-0" 317 0 basechar 0
LayerCount: 2
Fore
SplineSet
232 645 m 0,0,1
 182 645 182 645 141 633.5 c 128,-1,2
 100 622 100 622 67 607 c 1,3,-1
 30 682 l 1,4,5
 71 702 71 702 124 713 c 128,-1,6
 177 724 177 724 233 724 c 0,7,8
 348 724 348 724 422.5 678 c 128,-1,9
 497 632 497 632 534 551.5 c 128,-1,10
 571 471 571 471 571 369 c 0,11,12
 571 252 571 252 533 167 c 128,-1,13
 495 82 495 82 418.5 36 c 128,-1,14
 342 -10 342 -10 226 -10 c 0,15,16
 164 -10 164 -10 121 -3 c 128,-1,17
 78 4 78 4 36 19 c 1,18,-1
 36 97 l 1,19,20
 78 86 78 86 121 77.5 c 128,-1,21
 164 69 164 69 212 69 c 0,22,23
 341 69 341 69 406.5 137.5 c 128,-1,24
 472 206 472 206 476 334 c 1,25,-1
 129 334 l 1,26,-1
 129 413 l 1,27,-1
 475 413 l 1,28,29
 465 522 465 522 400.5 583.5 c 128,-1,30
 336 645 336 645 232 645 c 0,0,1
EndSplineSet
EndChar

StartChar: afii10048
Encoding: 1070 1070 455
Width: 1052
GlyphClass: 2
Flags: W
AnchorPoint: "Anchor-2" 526 714 basechar 0
AnchorPoint: "Anchor-0" 526 0 basechar 0
LayerCount: 2
Fore
SplineSet
990 358 m 256,0,1
 990 247 990 247 954.5 164.5 c 128,-1,2
 919 82 919 82 848.5 36 c 128,-1,3
 778 -10 778 -10 675 -10 c 0,4,5
 573 -10 573 -10 503.5 32 c 128,-1,6
 434 74 434 74 397 151 c 128,-1,7
 360 228 360 228 356 333 c 1,8,-1
 187 333 l 1,9,-1
 187 0 l 1,10,-1
 97 0 l 1,11,-1
 97 714 l 1,12,-1
 187 714 l 1,13,-1
 187 412 l 1,14,-1
 358 412 l 1,15,16
 365 507 365 507 402 577.5 c 128,-1,17
 439 648 439 648 506.5 686.5 c 128,-1,18
 574 725 574 725 673 725 c 0,19,20
 776 725 776 725 846.5 679.5 c 128,-1,21
 917 634 917 634 953.5 551.5 c 128,-1,22
 990 469 990 469 990 358 c 256,0,1
450 358 m 0,23,24
 450 223 450 223 503.5 145.5 c 128,-1,25
 557 68 557 68 672 68 c 0,26,27
 789 68 789 68 842.5 145.5 c 128,-1,28
 896 223 896 223 896 358 c 256,29,30
 896 493 896 493 843 569.5 c 128,-1,31
 790 646 790 646 674 646 c 256,32,33
 558 646 558 646 504 569 c 128,-1,34
 450 492 450 492 450 358 c 0,23,24
EndSplineSet
EndChar

StartChar: afii10049
Encoding: 1071 1071 456
Width: 639
GlyphClass: 2
Flags: W
AnchorPoint: "Anchor-2" 320 714 basechar 0
AnchorPoint: "Anchor-0" 320 0 basechar 0
LayerCount: 2
Fore
SplineSet
312 296 m 1,0,-1
 127 0 l 1,1,-1
 22 0 l 1,2,-1
 222 312 l 1,3,4
 184 324 184 324 150.5 347 c 128,-1,5
 117 370 117 370 96 410 c 128,-1,6
 75 450 75 450 75 514 c 0,7,8
 75 611 75 611 141.5 662.5 c 128,-1,9
 208 714 208 714 342 714 c 2,10,-1
 542 714 l 1,11,-1
 542 0 l 1,12,-1
 452 0 l 1,13,-1
 452 296 l 1,14,-1
 312 296 l 1,0,-1
452 637 m 1,15,-1
 344 637 l 2,16,17
 258 637 258 637 213 607.5 c 128,-1,18
 168 578 168 578 168 510 c 0,19,20
 168 444 168 444 212 408 c 128,-1,21
 256 372 256 372 348 372 c 2,22,-1
 452 372 l 1,23,-1
 452 637 l 1,15,-1
EndSplineSet
EndChar

StartChar: afii10066
Encoding: 1073 1073 458
Width: 599
GlyphClass: 2
Flags: W
AnchorPoint: "Anchor-2" 300 765 basechar 0
AnchorPoint: "Anchor-0" 300 0 basechar 0
LayerCount: 2
Fore
SplineSet
57 322 m 0,0,1
 57 498 57 498 110 596 c 128,-1,2
 163 694 163 694 281 720 c 0,3,4
 346 734 346 734 408 745 c 128,-1,5
 470 756 470 756 524 765 c 1,6,-1
 539 688 l 1,7,8
 504 682 504 682 460 675 c 128,-1,9
 416 668 416 668 373 660 c 128,-1,10
 330 652 330 652 299 646 c 0,11,12
 234 632 234 632 196 578 c 128,-1,13
 158 524 158 524 153 412 c 1,14,-1
 159 412 l 1,15,16
 173 431 173 431 197.5 451 c 128,-1,17
 222 471 222 471 256.5 485 c 128,-1,18
 291 499 291 499 335 499 c 0,19,20
 439 499 439 499 492 432 c 128,-1,21
 545 365 545 365 545 258 c 0,22,23
 545 168 545 168 514 108.5 c 128,-1,24
 483 49 483 49 427.5 19.5 c 128,-1,25
 372 -10 372 -10 300 -10 c 0,26,27
 189 -10 189 -10 123 75 c 128,-1,28
 57 160 57 160 57 322 c 0,0,1
307 63 m 0,29,30
 372 63 372 63 412 105 c 128,-1,31
 452 147 452 147 452 249 c 0,32,33
 452 331 452 331 421.5 378.5 c 128,-1,34
 391 426 391 426 321 426 c 0,35,36
 276 426 276 426 240.5 406.5 c 128,-1,37
 205 387 205 387 180.5 362 c 128,-1,38
 156 337 156 337 147 320 c 1,39,40
 147 271 147 271 154 225 c 128,-1,41
 161 179 161 179 178.5 142.5 c 128,-1,42
 196 106 196 106 227.5 84.5 c 128,-1,43
 259 63 259 63 307 63 c 0,29,30
EndSplineSet
Substitution2: "'locl' Localized Forms in Cyrillic lookup 17 subtable" afii10066.loclSRB
EndChar

StartChar: afii10067
Encoding: 1074 1074 459
Width: 576
GlyphClass: 2
Flags: W
AnchorPoint: "Anchor-2" 288 536 basechar 0
AnchorPoint: "Anchor-0" 288 0 basechar 0
LayerCount: 2
Fore
SplineSet
516 401 m 0,0,1
 516 351 516 351 486 323 c 128,-1,2
 456 295 456 295 409 285 c 1,3,-1
 409 281 l 1,4,5
 458 274 458 274 495.5 245.5 c 128,-1,6
 533 217 533 217 533 157 c 0,7,8
 533 89 533 89 482.5 44.5 c 128,-1,9
 432 0 432 0 316 0 c 2,10,-1
 85 0 l 1,11,-1
 85 536 l 1,12,-1
 315 536 l 2,13,14
 372 536 372 536 417.5 523.5 c 128,-1,15
 463 511 463 511 489.5 481.5 c 128,-1,16
 516 452 516 452 516 401 c 0,0,1
427 390 m 0,17,18
 427 428 427 428 399.5 445.5 c 128,-1,19
 372 463 372 463 310 463 c 2,20,-1
 173 463 l 1,21,-1
 173 316 l 1,22,-1
 294 316 l 2,23,24
 427 316 427 316 427 390 c 0,17,18
442 157 m 0,25,26
 442 203 442 203 407 223 c 128,-1,27
 372 243 372 243 304 243 c 2,28,-1
 173 243 l 1,29,-1
 173 71 l 1,30,-1
 306 71 l 2,31,32
 372 71 372 71 407 90.5 c 128,-1,33
 442 110 442 110 442 157 c 0,25,26
EndSplineSet
EndChar

StartChar: afii10068
Encoding: 1075 1075 460
Width: 433
GlyphClass: 2
Flags: W
AnchorPoint: "Anchor-2" 249 536 basechar 0
AnchorPoint: "Anchor-0" 217 0 basechar 0
LayerCount: 2
Fore
SplineSet
412 536 m 1,0,-1
 412 462 l 1,1,-1
 173 462 l 1,2,-1
 173 0 l 1,3,-1
 85 0 l 1,4,-1
 85 536 l 1,5,-1
 412 536 l 1,0,-1
EndSplineSet
EndChar

StartChar: afii10069
Encoding: 1076 1076 461
Width: 581
GlyphClass: 2
Flags: W
AnchorPoint: "Anchor-2" 291 536 basechar 0
AnchorPoint: "Anchor-0" 291 -186 basechar 0
LayerCount: 2
Fore
SplineSet
483 536 m 1,0,-1
 483 74 l 1,1,-1
 561 74 l 1,2,-1
 561 -186 l 1,3,-1
 476 -186 l 1,4,-1
 476 0 l 1,5,-1
 103 0 l 1,6,-1
 103 -186 l 1,7,-1
 19 -186 l 1,8,-1
 19 74 l 1,9,-1
 62 74 l 1,10,11
 131 169 131 169 165.5 290.5 c 128,-1,12
 200 412 200 412 201 536 c 1,13,-1
 483 536 l 1,0,-1
398 467 m 1,14,-1
 279 467 l 1,15,16
 274 399 274 399 257.5 326.5 c 128,-1,17
 241 254 241 254 214.5 188 c 128,-1,18
 188 122 188 122 153 74 c 1,19,-1
 398 74 l 1,20,-1
 398 467 l 1,14,-1
EndSplineSet
EndChar

StartChar: afii10072
Encoding: 1078 1078 463
Width: 750
GlyphClass: 2
Flags: W
AnchorPoint: "Anchor-2" 373 536 basechar 0
AnchorPoint: "Anchor-0" 375 0 basechar 0
LayerCount: 2
Fore
SplineSet
728 536 m 1,0,-1
 507 276 l 1,1,-1
 747 0 l 1,2,-1
 647 0 l 1,3,-1
 415 272 l 1,4,-1
 415 0 l 1,5,-1
 333 0 l 1,6,-1
 333 272 l 1,7,-1
 101 0 l 1,8,-1
 1 0 l 1,9,-1
 241 276 l 1,10,-1
 20 536 l 1,11,-1
 116 536 l 1,12,-1
 333 276 l 1,13,-1
 333 536 l 1,14,-1
 415 536 l 1,15,-1
 415 276 l 1,16,-1
 633 536 l 1,17,-1
 728 536 l 1,0,-1
EndSplineSet
EndChar

StartChar: afii10073
Encoding: 1079 1079 464
Width: 490
GlyphClass: 2
Flags: W
AnchorPoint: "Anchor-2" 234 536 basechar 0
AnchorPoint: "Anchor-0" 245 0 basechar 0
LayerCount: 2
Fore
SplineSet
226 546 m 0,0,1
 318 546 318 546 372.5 509 c 128,-1,2
 427 472 427 472 427 405 c 0,3,4
 427 356 427 356 399.5 327.5 c 128,-1,5
 372 299 372 299 326 286 c 1,6,-1
 326 282 l 1,7,8
 358 273 358 273 385 257 c 128,-1,9
 412 241 412 241 428.5 214.5 c 128,-1,10
 445 188 445 188 445 148 c 0,11,12
 445 81 445 81 389.5 35.5 c 128,-1,13
 334 -10 334 -10 216 -10 c 0,14,15
 158 -10 158 -10 111 -1 c 128,-1,16
 64 8 64 8 33 25 c 1,17,-1
 33 104 l 1,18,19
 67 88 67 88 113.5 75 c 128,-1,20
 160 62 160 62 215 62 c 0,21,22
 275 62 275 62 316.5 82.5 c 128,-1,23
 358 103 358 103 358 153 c 0,24,25
 358 243 358 243 205 243 c 2,26,-1
 133 243 l 1,27,-1
 133 315 l 1,28,-1
 191 315 l 2,29,30
 260 315 260 315 301.5 333.5 c 128,-1,31
 343 352 343 352 343 397 c 0,32,33
 343 435 343 435 311.5 454 c 128,-1,34
 280 473 280 473 221 473 c 0,35,36
 177 473 177 473 143.5 464.5 c 128,-1,37
 110 456 110 456 70 439 c 1,38,-1
 39 509 l 1,39,40
 123 546 123 546 226 546 c 0,0,1
EndSplineSet
EndChar

StartChar: afii10074
Encoding: 1080 1080 465
Width: 643
GlyphClass: 2
Flags: W
AnchorPoint: "Anchor-2" 330 536 basechar 0
AnchorPoint: "Anchor-0" 322 0 basechar 0
LayerCount: 2
Fore
SplineSet
168 536 m 1,0,-1
 168 209 l 2,1,2
 168 196 168 196 167 172.5 c 128,-1,3
 166 149 166 149 164.5 124.5 c 128,-1,4
 163 100 163 100 162 87 c 1,5,-1
 449 536 l 1,6,-1
 557 536 l 1,7,-1
 557 0 l 1,8,-1
 475 0 l 1,9,-1
 475 316 l 2,10,11
 475 332 475 332 475.5 358 c 128,-1,12
 476 384 476 384 477 409.5 c 128,-1,13
 478 435 478 435 479 448 c 1,14,-1
 194 0 l 1,15,-1
 85 0 l 1,16,-1
 85 536 l 1,17,-1
 168 536 l 1,0,-1
EndSplineSet
EndChar

StartChar: afii10076
Encoding: 1082 1082 467
Width: 529
GlyphClass: 2
Flags: W
AnchorPoint: "Anchor-2" 279 536 basechar 0
AnchorPoint: "Anchor-0" 265 0 basechar 0
LayerCount: 2
Fore
SplineSet
402 536 m 1,0,-1
 498 536 l 1,1,-1
 269 278 l 1,2,-1
 517 0 l 1,3,-1
 415 0 l 1,4,-1
 173 272 l 1,5,-1
 173 0 l 1,6,-1
 85 0 l 1,7,-1
 85 536 l 1,8,-1
 173 536 l 1,9,-1
 173 276 l 1,10,-1
 402 536 l 1,0,-1
EndSplineSet
EndChar

StartChar: afii10077
Encoding: 1083 1083 468
Width: 578
GlyphClass: 2
Flags: W
AnchorPoint: "Anchor-2" 289 536 basechar 0
AnchorPoint: "Anchor-0" 289 0 basechar 0
LayerCount: 2
Fore
SplineSet
493 0 m 1,0,-1
 404 0 l 1,1,-1
 404 463 l 1,2,-1
 246 463 l 1,3,4
 233 294 233 294 210 190.5 c 128,-1,5
 187 87 187 87 148.5 40 c 128,-1,6
 110 -7 110 -7 53 -7 c 0,7,8
 40 -7 40 -7 27.5 -5.5 c 128,-1,9
 15 -4 15 -4 7 0 c 1,10,-1
 7 66 l 1,11,12
 13 64 13 64 20 63 c 128,-1,13
 27 62 27 62 34 62 c 0,14,15
 88 62 88 62 120.5 177 c 128,-1,16
 153 292 153 292 170 536 c 1,17,-1
 493 536 l 1,18,-1
 493 0 l 1,0,-1
EndSplineSet
EndChar

StartChar: afii10078
Encoding: 1084 1084 469
Width: 746
GlyphClass: 2
Flags: W
AnchorPoint: "Anchor-2" 373 536 basechar 0
AnchorPoint: "Anchor-0" 373 0 basechar 0
LayerCount: 2
Fore
SplineSet
660 536 m 1,0,-1
 660 0 l 1,1,-1
 581 0 l 1,2,-1
 581 342 l 2,3,4
 581 363 581 363 582.5 385.5 c 128,-1,5
 584 408 584 408 586 431 c 1,6,-1
 583 431 l 1,7,-1
 408 0 l 1,8,-1
 334 0 l 1,9,-1
 164 431 l 1,10,-1
 161 431 l 1,11,12
 164 386 164 386 164 339 c 2,13,-1
 164 0 l 1,14,-1
 85 0 l 1,15,-1
 85 536 l 1,16,-1
 202 536 l 1,17,-1
 371 105 l 1,18,-1
 543 536 l 1,19,-1
 660 536 l 1,0,-1
EndSplineSet
EndChar

StartChar: afii10079
Encoding: 1085 1085 470
Width: 637
GlyphClass: 2
Flags: W
AnchorPoint: "Anchor-2" 319 536 basechar 0
AnchorPoint: "Anchor-0" 319 0 basechar 0
LayerCount: 2
Fore
SplineSet
173 536 m 1,0,-1
 173 313 l 1,1,-1
 464 313 l 1,2,-1
 464 536 l 1,3,-1
 552 536 l 1,4,-1
 552 0 l 1,5,-1
 464 0 l 1,6,-1
 464 239 l 1,7,-1
 173 239 l 1,8,-1
 173 0 l 1,9,-1
 85 0 l 1,10,-1
 85 536 l 1,11,-1
 173 536 l 1,0,-1
EndSplineSet
EndChar

StartChar: afii10081
Encoding: 1087 1087 472
Width: 624
GlyphClass: 2
Flags: W
AnchorPoint: "Anchor-2" 312 536 basechar 0
AnchorPoint: "Anchor-0" 312 0 basechar 0
LayerCount: 2
Fore
SplineSet
538 536 m 1,0,-1
 538 0 l 1,1,-1
 450 0 l 1,2,-1
 450 461 l 1,3,-1
 173 461 l 1,4,-1
 173 0 l 1,5,-1
 85 0 l 1,6,-1
 85 536 l 1,7,-1
 538 536 l 1,0,-1
EndSplineSet
EndChar

StartChar: afii10084
Encoding: 1090 1090 475
Width: 476
GlyphClass: 2
Flags: W
AnchorPoint: "Anchor-2" 238 536 basechar 0
AnchorPoint: "Anchor-0" 238 0 basechar 0
LayerCount: 2
Fore
SplineSet
455 462 m 1,0,-1
 280 462 l 1,1,-1
 280 0 l 1,2,-1
 193 0 l 1,3,-1
 193 462 l 1,4,-1
 20 462 l 1,5,-1
 20 536 l 1,6,-1
 455 536 l 1,7,-1
 455 462 l 1,0,-1
EndSplineSet
EndChar

StartChar: afii10086
Encoding: 1092 1092 477
Width: 725
GlyphClass: 2
Flags: W
AnchorPoint: "Anchor-2" 363 760 basechar 0
AnchorPoint: "Anchor-0" 363 -240 basechar 0
LayerCount: 2
Fore
SplineSet
405 760 m 1,0,-1
 405 544 l 1,1,2
 484 536 484 536 544 501.5 c 128,-1,3
 604 467 604 467 637 408 c 128,-1,4
 670 349 670 349 670 268 c 0,5,6
 670 146 670 146 599.5 74 c 128,-1,7
 529 2 529 2 405 -8 c 1,8,-1
 405 -240 l 1,9,-1
 319 -240 l 1,10,-1
 319 -8 l 1,11,12
 240 -1 240 -1 180 33.5 c 128,-1,13
 120 68 120 68 87 127 c 128,-1,14
 54 186 54 186 54 268 c 0,15,16
 54 390 54 390 124.5 462 c 128,-1,17
 195 534 195 534 322 544 c 1,18,-1
 322 760 l 1,19,-1
 405 760 l 1,0,-1
322 471 m 1,20,21
 230 462 230 462 188 410.5 c 128,-1,22
 146 359 146 359 146 268 c 256,23,24
 146 177 146 177 188 125 c 128,-1,25
 230 73 230 73 322 64 c 1,26,-1
 322 471 l 1,20,21
405 470 m 1,27,-1
 405 64 l 1,28,29
 495 74 495 74 537 126 c 128,-1,30
 579 178 579 178 579 268 c 256,31,32
 579 358 579 358 536.5 409 c 128,-1,33
 494 460 494 460 405 470 c 1,27,-1
EndSplineSet
EndChar

StartChar: afii10088
Encoding: 1094 1094 479
Width: 632
GlyphClass: 2
Flags: W
AnchorPoint: "Anchor-2" 312 536 basechar 0
AnchorPoint: "Anchor-0" 312 -186 basechar 0
LayerCount: 2
Fore
SplineSet
614 -186 m 1,0,-1
 528 -186 l 1,1,-1
 528 0 l 1,2,-1
 85 0 l 1,3,-1
 85 536 l 1,4,-1
 173 536 l 1,5,-1
 173 74 l 1,6,-1
 450 74 l 1,7,-1
 450 536 l 1,8,-1
 538 536 l 1,9,-1
 538 73 l 1,10,-1
 614 73 l 1,11,-1
 614 -186 l 1,0,-1
EndSplineSet
EndChar

